Monoisome.sfdir
StartChar: exclam
Encoding: 33 33 846
GlifName: exclam
Width: 1024
VWidth: 0
Flags: W
HStem: -16 288<479.538 672.462> 1388 20G<502 650>
VStem: 432 288<31.5385 224.462> 512 128<512 1408>
LayerCount: 5
Back
Fore
SplineSet
576 272 m 0xe0
 661 272 720 213 720 128 c 0
 720 43 661 -16 576 -16 c 0
 491 -16 432 43 432 128 c 0
 432 213 491 272 576 272 c 0xe0
640 512 m 1xd0
 512 512 l 1
 502 1408 l 1
 650 1408 l 1
 640 512 l 1xd0
EndSplineSet
Validated: 1
Layer: 2
Layer: 3
Layer: 4
Position2: "Single Positioning lookup 21 subtable" dx=-128 dy=0 dh=0 dv=0
Position2: "Single Positioning lookup 15 subtable" dx=128 dy=0 dh=0 dv=0
Position2: "Single Positioning lookup 12 subtable" dx=128 dy=0 dh=0 dv=0
Position2: "Single Positioning lookup 11 subtable" dx=128 dy=0 dh=0 dv=0
Position2: "Single Positioning lookup 6 subtable" dx=128 dy=0 dh=0 dv=0
Position2: "Single Positioning lookup 5 subtable" dx=128 dy=0 dh=0 dv=0
Position2: "Single Positioning lookup 4 subtable" dx=128 dy=0 dh=0 dv=0
Position2: "Single Positioning lookup 2 subtable" dx=128 dy=0 dh=0 dv=0
Position2: "Single Positioning lookup 1 subtable" dx=128 dy=0 dh=0 dv=0
Substitution2: "Single Substitution lookup 43 subtable" larsenwork2
Substitution2: "Single Substitution lookup 40 subtable" larsenwork1
Substitution2: "Single Substitution lookup 21 subtable" larsenwork5
EndChar
StartChar: percent
Encoding: 37 37 981
GlifName: percent
Width: 1024
VWidth: 0
Flags: W
HStem: -16 120<674.268 861.732> 408 120<674.268 861.732> 880 120<290.268 477.732> 1304 120<290.268 477.732>
VStem: 112 128<1049.17 1254.83> 496 128<153.173 358.827> 528 128<1049.17 1254.83> 912 128<153.173 358.827>
LayerCount: 5
Back
SplineSet
128 256 m 5
 1024 1152 l 1029
EndSplineSet
Fore
SplineSet
172 212 m 1xf9
 84 300 l 1
 980 1196 l 1
 1068 1108 l 1
 172 212 l 1xf9
384 1304 m 0
 300 1304 240 1250 240 1152 c 0
 240 1054 300 1000 384 1000 c 0
 468 1000 528 1054 528 1152 c 0xfb
 528 1250 468 1304 384 1304 c 0
384 1424 m 0
 545 1424 656 1304 656 1152 c 0
 656 1000 545 880 384 880 c 0
 223 880 112 1000 112 1152 c 0
 112 1304 223 1424 384 1424 c 0
768 408 m 0
 684 408 624 354 624 256 c 0xfd
 624 158 684 104 768 104 c 0
 852 104 912 158 912 256 c 0
 912 354 852 408 768 408 c 0
768 528 m 0
 929 528 1040 408 1040 256 c 0
 1040 104 929 -16 768 -16 c 0
 607 -16 496 104 496 256 c 0
 496 408 607 528 768 528 c 0
EndSplineSet
Validated: 1
Layer: 2
SplineSet
128 1408 m 5
 1024 1408 l 5
 1024 0 l 5
 128 0 l 5
 128 1408 l 5
EndSplineSet
Layer: 3
SplineSet
768 468 m 4
 890.525 468 976 381.08828125 976 256 c 4
 976 130.91171875 890.525 44 768 44 c 4
 645.475 44 560 130.91171875 560 256 c 4
 560 381.08828125 645.475 468 768 468 c 4
128 434 m 1
 1024 1130 l 1
 1024 974 l 1
 128 278 l 1
 128 434 l 1
EndSplineSet
Layer: 4
EndChar
StartChar: asterisk
Encoding: 42 42 65
GlifName: asterisk
Width: 1024
VWidth: 0
Flags: W
HStem: 1004 20G<512 640>
VStem: 512 128<630 1024>
LayerCount: 5
Back
Fore
SplineSet
512 630 m 1
 512 1024 l 1
 640 1024 l 1
 640 630 l 1
 1008 750 l 1
 1050 637 l 1
 676 515 l 1
 909 195 l 1
 803 128 l 1
 576 439 l 1
 350 128 l 1
 244 195 l 1
 476 515 l 1
 102 637 l 1
 144 750 l 1
 512 630 l 1
EndSplineSet
Validated: 1
Layer: 2
Layer: 3
SplineSet
169 553 m 29
 983 1367 l 1053
169 1367 m 29
 983 553 l 1053
EndSplineSet
Layer: 4
SplineSet
512 601 m 5
 427 640 l 5
 158 906 l 1
 240 1000 l 1
 571 664 l 1
 581 664 l 1
 912 1000 l 1
 994 906 l 1
 664 581 l 1
 664 571 l 1
 994 246 l 1
 912 152 l 1
 581 488 l 1
 571 488 l 1
 240 152 l 1
 158 246 l 1
 427 512 l 5
 512 551 l 5
 512 601 l 5
601 640 m 1
 640 725 l 1
 906 994 l 1
 1000 912 l 1
 664 581 l 1
 664 571 l 1
 1000 240 l 1
 906 158 l 1
 581 488 l 1
 571 488 l 1
 246 158 l 1
 152 240 l 1
 488 571 l 1
 488 581 l 1
 152 912 l 1
 246 994 l 1
 512 725 l 1
 551 640 l 1
 601 640 l 1
640 551 m 1
 725 512 l 1
 994 246 l 1
 912 152 l 1
 581 488 l 1
 571 488 l 1
 240 152 l 1
 158 246 l 1
 488 571 l 1
 488 581 l 1
 158 906 l 1
 240 1000 l 1
 571 664 l 1
 581 664 l 1
 912 1000 l 1
 994 906 l 1
 725 640 l 1
 640 601 l 1
 640 551 l 1
EndSplineSet
Substitution2: "Single Substitution lookup 102 subtable" asterisk.commentend
Substitution2: "Single Substitution lookup 101 subtable" asterisk.commentstart
Substitution2: "Single Substitution lookup 100 subtable" asterisk.commentstart
Substitution2: "Single Substitution lookup 83 subtable" asterisk.period
Substitution2: "'ss02' Style Set 2 lookup 2 subtable" asterisk.multi
EndChar
StartChar: plus
Encoding: 43 43 993
GlifName: plus
Width: 1024
VWidth: 0
Flags: W
HStem: 516 120<128 512 640 1024> 1004 20G<512 640>
VStem: 512 128<128 516 636 1024>
LayerCount: 5
Back
Fore
SplineSet
640 636 m 1
 1024 636 l 1
 1024 516 l 1
 640 516 l 1
 640 128 l 1
 512 128 l 1
 512 516 l 1
 128 516 l 1
 128 636 l 1
 512 636 l 1
 512 1024 l 1
 640 1024 l 1
 640 636 l 1
EndSplineSet
Validated: 1
Layer: 2
Layer: 3
Layer: 4
EndChar
StartChar: comma
Encoding: 44 44 814
GlifName: comma
Width: 1024
VWidth: 0
Flags: W
HStem: -272 120<384 473.335> 128 240<384 512>
VStem: 384 256<128 368> 512 128<-111.68 128>
LayerCount: 5
Back
Fore
SplineSet
384 368 m 5xe0
 640 368 l 5xe0
 640 23 l 6xd0
 640 -37 640 -107 588 -177 c 4
 546 -234 474 -272 384 -272 c 5
 384 -152 l 5xe0
 431 -152 463 -135 484 -107 c 4
 512 -70 512 -27 512 23 c 6
 512 128 l 5xd0
 384 128 l 5
 384 368 l 5xe0
EndSplineSet
Validated: 1
Layer: 2
SplineSet
354 -213 m 5
 391 -159 450 -76 450 -9 c 4
 450 95 368 149 368 256 c 4
 368 343 430 400 512 400 c 4
 589 400 656 347 656 224 c 4
 656 4 561 -155 454 -286 c 5
 354 -213 l 5
EndSplineSet
Layer: 3
Layer: 4
Position2: "Single Positioning lookup 21 subtable" dx=-128 dy=0 dh=0 dv=0
Position2: "Single Positioning lookup 15 subtable" dx=128 dy=0 dh=0 dv=0
Position2: "Single Positioning lookup 12 subtable" dx=128 dy=0 dh=0 dv=0
Position2: "Single Positioning lookup 11 subtable" dx=128 dy=0 dh=0 dv=0
Position2: "Single Positioning lookup 6 subtable" dx=128 dy=0 dh=0 dv=0
Position2: "Single Positioning lookup 5 subtable" dx=128 dy=0 dh=0 dv=0
Position2: "Single Positioning lookup 4 subtable" dx=128 dy=0 dh=0 dv=0
Position2: "Single Positioning lookup 2 subtable" dx=128 dy=0 dh=0 dv=0
Position2: "Single Positioning lookup 1 subtable" dx=128 dy=0 dh=0 dv=0
EndChar
StartChar: hyphen
Encoding: 45 45 55
GlifName: hyphen
Width: 1024
VWidth: 0
Flags: W
HStem: 516 120<128 1024>
LayerCount: 5
Back
Fore
SplineSet
128 636 m 5
 1024 636 l 1
 1024 516 l 1
 128 516 l 5
 128 636 l 5
EndSplineSet
Validated: 1
Layer: 2
Layer: 3
Layer: 4
EndChar
StartChar: period
Encoding: 46 46 68
GlifName: period
Width: 1024
VWidth: 0
Flags: W
HStem: 0 240<384 640>
VStem: 384 256<0 240>
LayerCount: 5
Back
Fore
SplineSet
384 240 m 1
 640 240 l 1
 640 0 l 1
 384 0 l 1
 384 240 l 1
EndSplineSet
Validated: 1
Layer: 2
Layer: 3
Layer: 4
Position2: "Single Positioning lookup 21 subtable" dx=-128 dy=0 dh=0 dv=0
Position2: "Single Positioning lookup 15 subtable" dx=128 dy=0 dh=0 dv=0
Position2: "Single Positioning lookup 12 subtable" dx=128 dy=0 dh=0 dv=0
Position2: "Single Positioning lookup 11 subtable" dx=128 dy=0 dh=0 dv=0
Position2: "Single Positioning lookup 6 subtable" dx=128 dy=0 dh=0 dv=0
Position2: "Single Positioning lookup 5 subtable" dx=128 dy=0 dh=0 dv=0
Position2: "Single Positioning lookup 4 subtable" dx=128 dy=0 dh=0 dv=0
Position2: "Single Positioning lookup 2 subtable" dx=128 dy=0 dh=0 dv=0
Position2: "Single Positioning lookup 1 subtable" dx=128 dy=0 dh=0 dv=0
Substitution2: "Single Substitution lookup 93 subtable" period.2r
Substitution2: "Single Substitution lookup 92 subtable" period.2l
Substitution2: "Single Substitution lookup 90 subtable" larsenwork
Substitution2: "Single Substitution lookup 89 subtable" larsenwork
Substitution2: "Single Substitution lookup 88 subtable" period.x3
Substitution2: "Single Substitution lookup 87 subtable" larsenwork
Substitution2: "Single Substitution lookup 86 subtable" larsenwork
EndChar
StartChar: slash
Encoding: 47 47 1047
GlifName: slash
Width: 1024
VWidth: 0
Flags: W
LayerCount: 5
Back
SplineSet
238.034488438 -154.535563034 m 1
 125.965511562 -101.464436966 l 1
 913.965511562 1562.53556303 l 1
 1026.03448844 1509.46443697 l 1
 238.034488438 -154.535563034 l 1
EndSplineSet
Fore
SplineSet
238 -155 m 1
 125 -102 l 1
 914 1563 l 1
 1027 1510 l 1
 238 -155 l 1
EndSplineSet
Validated: 1
Layer: 2
SplineSet
182 -128 m 5
 970 1536 l 1029
EndSplineSet
Layer: 3
Layer: 4
Position2: "Single Positioning lookup 23 subtable" dx=128 dy=0 dh=0 dv=0
Substitution2: "Single Substitution lookup 99 subtable" ligadoubleslash
Substitution2: "Single Substitution lookup 98 subtable" larsenwork
Substitution2: "Single Substitution lookup 19 subtable" slash.shrug
EndChar
StartChar: zero
Encoding: 48 48 1352
GlifName: zero
Width: 1024
VWidth: 0
Flags: W
HStem: -18 124<483.985 668.866> 1302 124<483.134 668.015>
VStem: 253 124<415.309 1083.05> 775 124<324.95 992.691>
LayerCount: 5
Back
SplineSet
740 241 m 5
 710 164 658 106 576 106 c 4
 486 106 432 176 404 264 c 4
 377 348 377 515 377 704 c 4
 377 813 377 915 382 997 c 5
 740 241 l 5
576 1302 m 4
 666 1302 720 1232 748 1144 c 4
 775 1060 775 893 775 704 c 4
 775 595 770 493 770 411 c 5
 412 1167 l 5
 442 1244 494 1302 576 1302 c 4
576 1426 m 4
 411 1426 332 1315 292 1209 c 4
 253 1105 253 926 253 704 c 4
 253 482 253 303 292 199 c 4
 332 93 411 -18 576 -18 c 4
 741 -18 820 93 860 199 c 4
 899 303 899 482 899 704 c 4
 899 926 899 1105 860 1209 c 4
 820 1315 741 1426 576 1426 c 4
EndSplineSet
Fore
SplineSet
412 241 m 1
 442 164 494 106 576 106 c 0
 666 106 720 176 748 264 c 0
 775 348 775 515 775 704 c 0
 775 813 775 915 770 997 c 1
 412 241 l 1
576 1302 m 0
 486 1302 432 1232 404 1144 c 0
 377 1060 377 893 377 704 c 0
 377 595 377 493 382 411 c 1
 740 1167 l 1
 710 1244 658 1302 576 1302 c 0
576 1426 m 0
 741 1426 820 1315 860 1209 c 0
 899 1105 899 926 899 704 c 0
 899 482 899 303 860 199 c 0
 820 93 741 -18 576 -18 c 0
 411 -18 332 93 292 199 c 0
 253 303 253 482 253 704 c 0
 253 926 253 1105 292 1209 c 0
 332 1315 411 1426 576 1426 c 0
EndSplineSet
Validated: 1
Layer: 2
SplineSet
576 1364 m 0
 608.961573602 1364 641.84773507 1356.04918534 671.350436298 1341.35034339 c 0
 700.853137526 1326.65150145 726.89350014 1305.31760253 748 1280 c 0
 779.121942979 1242.66870454 799.325784282 1197.14609009 811.695975209 1150.14418235 c 0
 824.066166136 1103.1422746 829.143375711 1054.51845683 832 1006 c 0
 837.91818181 905.482389128 837 804.691682731 837 704 c 0
 837 603.308317269 837.91818181 502.517610872 832 402 c 0
 829.143375711 353.481543171 824.066166136 304.857725399 811.695975209 257.855817652 c 0
 799.325784282 210.853909906 779.121942979 165.331295459 748 128 c 0
 726.89350014 102.682397468 700.853137526 81.3484985535 671.350436298 66.649656607 c 0
 641.84773507 51.9508146605 608.961573602 44 576 44 c 0
 543.038426398 44 510.15226493 51.9508146605 480.649563702 66.649656607 c 0
 451.146862474 81.3484985535 425.10649986 102.682397468 404 128 c 0
 372.878057021 165.331295459 352.674215718 210.853909906 340.304024791 257.855817652 c 0
 327.933833864 304.857725399 322.856624289 353.481543171 320 402 c 0
 314.08181819 502.517610872 315 603.308317269 315 704 c 0
 315 804.691682731 314.08181819 905.482389128 320 1006 c 0
 322.856624289 1054.51845683 327.933833864 1103.1422746 340.304024791 1150.14418235 c 0
 352.674215718 1197.14609009 372.878057021 1242.66870454 404 1280 c 0
 425.10649986 1305.31760253 451.146862474 1326.65150145 480.649563702 1341.35034339 c 0
 510.15226493 1356.04918534 543.038426398 1364 576 1364 c 0
  Spiro
    576 1364 o
    748 1280 o
    832 1006 o
    837 704 o
    832 402 o
    748 128 o
    576 44 o
    404 128 o
    320 402 o
    315 704 o
    320 1006 o
    404 1280 o
    0 0 z
  EndSpiro
EndSplineSet
Layer: 3
SplineSet
572.001953125 1301.96777344 m 0
 548.958007812 1301.96777344 525.767578125 1296.33105469 505.377929688 1286.171875 c 0
 484.956054688 1275.99804688 466.125976562 1260.76757812 450.586914062 1242.12792969 c 0
 427.673828125 1214.64355469 410.8515625 1178.3671875 400.234375 1138.02832031 c 0
 389.5546875 1097.44921875 384.671875 1053.00488281 381.924804688 1006.34667969 c 0
 376.172851562 908.651367188 377.032226562 809.065429688 377.032226562 707.998046875 c 0
 377.032226562 606.92578125 376.170898438 507.36328125 381.92578125 409.608398438 c 0
 384.67578125 362.909179688 389.534179688 318.360351562 400.366210938 277.206054688 c 0
 411.130859375 236.303710938 428.336914062 198.705078125 452.686523438 169.497070312 c 0
 469.194335938 149.696289062 489.375 133.368164062 511.116210938 122.536132812 c 0
 532.83203125 111.716796875 556.953125 106.032226562 579.998046875 106.032226562 c 0
 603.041015625 106.032226562 626.23046875 111.668945312 646.622070312 121.828125 c 0
 667.045898438 132.00390625 685.873046875 147.231445312 701.412109375 165.870117188 c 0
 724.329101562 193.359375 741.1484375 229.630859375 751.765625 269.971679688 c 0
 762.4453125 310.55078125 767.328125 354.995117188 770.075195312 401.653320312 c 0
 775.827148438 499.349609375 774.96875 598.93359375 774.967773438 700.001953125 c 0
 774.967773438 801.075195312 775.829101562 900.635742188 770.073242188 998.391601562 c 0
 767.32421875 1045.09277344 762.465820312 1089.63867188 751.634765625 1130.79394531 c 0
 740.870117188 1171.6953125 723.663085938 1209.29394531 699.3125 1238.50292969 c 0
 682.805664062 1258.30371094 662.625 1274.63183594 640.8828125 1285.46484375 c 0
 619.168945312 1296.28320312 595.046875 1301.96777344 572.001953125 1301.96777344 c 0
  Spiro
    572.002 1301.97 o
    549.041 1300.13 o
    526.57 1294.78 o
    505.378 1286.17 o
    485.569 1274.39 o
    467.143 1259.55 o
    450.587 1242.13 o
    429.727 1211.92 o
    412.901 1176.8 o
    400.234 1138.03 o
    391.359 1096.26 o
    385.515 1052.16 o
    381.925 1006.35 o
    378.102 908.135 o
    377.022 808.456 o
    377.032 707.998 o
    377.022 607.54 o
    378.102 507.856 o
    381.926 409.608 o
    385.517 363.717 o
    391.39 319.403 o
    400.366 277.206 o
    413.289 237.631 o
    430.712 201.279 o
    452.687 169.497 o
    470.322 150.946 o
    489.994 135.111 o
    511.116 122.536 o
    533.482 113.456 o
    556.747 107.903 o
    579.998 106.032 o
    602.958 107.866 o
    625.429 113.225 o
    646.622 121.828 o
    666.432 133.614 o
    684.857 148.445 o
    701.412 165.87 o
    722.274 196.079 o
    739.1 231.199 o
    751.766 269.972 o
    760.641 311.735 o
    766.485 355.839 o
    770.075 401.653 o
    773.898 499.865 o
    774.978 599.543 o
    774.968 700.002 o
    774.978 800.46 o
    773.898 900.144 o
    770.073 998.392 o
    766.483 1044.28 o
    760.611 1088.6 o
    751.635 1130.79 o
    738.712 1170.37 o
    721.288 1206.72 o
    699.312 1238.5 o
    681.678 1257.05 o
    662.006 1272.89 o
    640.883 1285.46 o
    618.518 1294.54 o
    595.253 1300.1 o
    0 0 z
  EndSpiro
579.998046875 1426.03222656 m 0
 622.876953125 1426.03222656 664.526367188 1415.81542969 701.817382812 1397.23632812 c 0
 739.081054688 1378.67089844 770.981445312 1352.33105469 796.686523438 1321.49707031 c 0
 834.581054688 1276.04296875 857.782226562 1222.59667969 871.7578125 1169.49414062 c 0
 885.666992188 1116.64550781 890.962890625 1063.94433594 893.92578125 1013.60839844 c 0
 900.006835938 910.329101562 899.032226562 808.30859375 899.032226562 707.999023438 c 0
 899.033203125 607.68359375 900.008789062 505.685546875 893.923828125 402.346679688 c 0
 890.958984375 351.967773438 885.686523438 299.165039062 871.625976562 245.740234375 c 0
 857.502929688 192.076171875 833.915039062 137.302734375 794.587890625 90.130859375 c 0
 767.9140625 58.1337890625 734.659179688 30.6923828125 696.078125 11.4716796875 c 0
 657.463867188 -7.7666015625 614.8828125 -18.0322265625 572.001953125 -18.0322265625 c 0
 529.124023438 -18.0322265625 487.473632812 -7.8154296875 450.181640625 10.763671875 c 0
 412.918945312 29.330078125 381.018554688 55.66796875 355.3125 86.5029296875 c 0
 317.419921875 131.956054688 294.21875 185.403320312 280.2421875 238.505859375 c 0
 266.333007812 291.354492188 261.037109375 344.053710938 258.073242188 394.392578125 c 0
 251.993164062 497.670898438 252.967773438 599.690429688 252.967773438 700.001953125 c 0
 252.967773438 800.317382812 251.991210938 902.313476562 258.075195312 1005.65429688 c 0
 261.041992188 1056.03125 266.313476562 1108.8359375 280.374023438 1162.25976562 c 0
 294.498046875 1215.92480469 318.083007812 1270.69433594 357.413085938 1317.87109375 c 0
 384.086914062 1349.8671875 417.338867188 1377.30566406 455.920898438 1396.52929688 c 0
 494.536132812 1415.76757812 537.118164062 1426.03222656 579.998046875 1426.03222656 c 0
  Spiro
    579.998 1426.03 o
    622.31 1422.7 o
    663.229 1412.95 o
    701.817 1397.24 o
    737.229 1376.22 o
    768.977 1350.68 o
    796.687 1321.5 o
    829.857 1273.74 o
    854.525 1222.35 o
    871.758 1169.49 o
    883.02 1116.83 o
    889.958 1064.6 o
    893.926 1013.61 o
    897.95 910.868 o
    899.06 808.761 o
    899.032 707.999 o
    899.061 607.237 o
    897.951 505.124 o
    893.924 402.347 o
    889.955 351.278 o
    882.988 298.838 o
    871.626 245.74 o
    854.137 192.082 o
    828.871 139.463 o
    794.588 90.1309 o
    765.798 59.8166 o
    732.802 33.2726 o
    696.078 11.4717 o
    656.318 -4.71471 o
    614.605 -14.6649 o
    572.002 -18.0322 o
    529.691 -14.7019 o
    488.771 -4.94651 o
    450.182 10.7637 o
    414.771 31.7759 o
    383.023 57.3157 o
    355.312 86.5029 o
    322.143 134.262 o
    297.475 185.65 o
    280.242 238.506 o
    268.98 291.17 o
    262.042 343.4 o
    258.073 394.393 o
    254.05 497.132 o
    252.94 599.239 o
    252.968 700.002 o
    252.94 800.764 o
    254.049 902.877 o
    258.075 1005.65 o
    262.045 1056.72 o
    269.012 1109.16 o
    280.374 1162.26 o
    297.863 1215.92 o
    323.128 1268.54 o
    357.413 1317.87 o
    386.202 1348.18 o
    419.197 1374.73 o
    455.921 1396.53 o
    495.682 1412.72 o
    537.396 1422.67 o
    0 0 z
  EndSpiro
EndSplineSet
Layer: 4
Substitution2: "'ss04' Style Set 4 lookup 4 subtable" zero.clear
Substitution2: "'ss03' Style Set 3 lookup 3 subtable" zero.dot
EndChar
StartChar: two
Encoding: 50 50 1094
GlifName: two
Width: 1024
VWidth: 0
Flags: W
HStem: 0 120<418 950> 1304 120<259.954 688.267>
VStem: 780 128<952.507 1216.51>
LayerCount: 5
Back
Fore
SplineSet
256 1393 m 1
 343 1410 449 1424 544 1424 c 0
 810 1424 908 1259 908 1093 c 0
 908 981 874 916 832 843 c 2
 418 120 l 1
 950 120 l 1
 950 0 l 1
 256 0 l 1
 256 89 l 1
 718 899 l 2
 753 961 780 1008 780 1093 c 0
 780 1188 740 1304 544 1304 c 0
 445 1304 337 1288 256 1273 c 1
 256 1393 l 1
EndSplineSet
Validated: 1
Layer: 2
SplineSet
576 1364 m 4
 733.868164062 1364 844 1254.12988281 844 1096 c 4
 844 937.870076497 733.868164062 828 576 828 c 4
 418.131795247 828 308 937.870076497 308 1096 c 4
 308 1254.12988281 418.131795247 1364 576 1364 c 4
EndSplineSet
Layer: 3
SplineSet
192 1293 m 4
 248.355904097 1308.52974632 304.967301076 1323.17688803 362 1336 c 4
 428.18775421 1350.88151533 495.3409582 1364.00064682 563.175452299 1364.00064682 c 4
 564 1364 l 4
 603.210791242 1363.93844802 642.706382424 1359.01018897 679.650250993 1345.87091526 c 4
 716.594119563 1332.73164155 750.646621617 1311.0342795 777 1282 c 4
 800.08411194 1256.56756593 817.130103031 1225.90940022 828.042690246 1193.34254027 c 4
 838.854362991 1161.07684332 844.001344804 1126.98301712 844.001344804 1092.95287789 c 4
 844.001344804 1063.36742011 839.951057919 1034.17348812 831.244726667 1006.08964992 c 4
 822.640059437 978.333747312 809.142161828 952.385619678 795 927 c 6
 312 60 l 5
 896 60 l 1029
  Spiro
    192 1293 {
    362 1336 o
    564 1364 o
    777 1282 o
    844 1092 o
    795 927 [
    312 60 v
    896 60 v
    0 0 z
  EndSpiro
EndSplineSet
Layer: 4
EndChar
StartChar: four
Encoding: 52 52 871
GlifName: four
Width: 1024
VWidth: 0
Flags: W
HStem: 0 21G<768 896> 388 120<387 768 896 1024> 1388 20G<389.131 518 768 896>
VStem: 768 128<0 388 508 1408>
LayerCount: 5
Back
Fore
SplineSet
896 0 m 1
 768 0 l 1
 768 388 l 1
 256 388 l 1
 256 460 l 1
 392 1408 l 1
 518 1408 l 1
 387 508 l 1
 768 508 l 1
 768 1408 l 1
 896 1408 l 1
 896 508 l 1
 1024 508 l 1
 1024 388 l 1
 896 388 l 1
 896 0 l 1
EndSplineSet
Validated: 1
Layer: 2
SplineSet
1024 448 m 29
 174 448 l 29
 384 1408 l 1053
832 0 m 29
 832 1408 l 1053
EndSplineSet
Layer: 3
Layer: 4
Substitution2: "'ss12' Style Set 12 lookup 12 subtable" four.triangle
EndChar
StartChar: six
Encoding: 54 54 1046
GlifName: six
Width: 1024
VWidth: 0
Flags: W
HStem: -16 120<475.787 709.364> 792 120<480.311 708.108>
VStem: 256 128<210.189 685.189> 800 128<210.238 685.311>
LayerCount: 5
Back
Fore
SplineSet
691 1375 m 5
 594 1210 507 1046 442 864 c 5
 451 860 l 5
 497 895 551 912 612 912 c 4
 760 912 857 829 900 712 c 4
 928 635 928 550 928 448 c 4
 928 366 928 271 896 184 c 4
 853 67 750 -16 602 -16 c 4
 435 -16 332 66 288 184 c 4
 260 259 256 331 256 448 c 4
 256 617 280 789 342 950 c 4
 407 1120 491 1281 581 1436 c 5
 691 1375 l 5
384 448 m 4
 384 261 405 104 592 104 c 4
 779 104 800 261 800 448 c 4
 800 635 779 792 592 792 c 4
 405 792 384 635 384 448 c 4
EndSplineSet
Validated: 1
Layer: 2
SplineSet
592 852 m 4
 569.874950019 852 547.708987409 850.270562295 526 846 c 4
 485.669098677 838.066160283 447.076701406 820.262547848 416.241313788 793.083396194 c 4
 385.40592617 765.904244539 362.748306891 730.14912327 348.306511624 691.665854651 c 4
 319.422921089 614.699317412 319.999999999 530.20772261 320 448 c 4
 320 365.79227739 319.422921091 281.300682587 348.306511626 204.334145348 c 4
 362.748306893 165.850876729 385.405926172 130.09575546 416.241313789 102.916603806 c 4
 447.076701407 75.7374521517 485.669098677 57.9338397167 526 50 c 4
 547.708987409 45.7294377049 569.874950019 44 592 44 c 4
 614.125049981 44 636.291012591 45.7294377049 658 50 c 4
 698.330901323 57.9338397167 736.923298594 75.7374521519 767.758686212 102.916603806 c 4
 798.59407383 130.095755461 821.251693109 165.85087673 835.693488376 204.334145349 c 4
 864.577078911 281.300682588 864.000000001 365.79227739 864 448 c 4
 864 530.20772261 864.577078909 614.699317413 835.693488374 691.665854652 c 4
 821.251693107 730.149123271 798.594073828 765.90424454 767.758686211 793.083396194 c 4
 736.923298593 820.262547848 698.330901323 838.066160283 658 846 c 4
 636.291012591 850.270562295 614.125049981 852 592 852 c 4
  Spiro
    592 852 o
    526 846 o
    320 448 o
    526 50 o
    592 44 o
    658 50 o
    864 448 o
    658 846 o
    0 0 z
  EndSpiro
EndSplineSet
Layer: 3
Layer: 4
Substitution2: "'ss13' Style Set 13 lookup 13 subtable" six.round
EndChar
StartChar: seven
Encoding: 55 55 1038
GlifName: seven
Width: 1024
VWidth: 0
Flags: W
HStem: 0 21G<363 499.102> 1288 120<192 825>
LayerCount: 5
Back
Fore
SplineSet
192 1288 m 1
 192 1408 l 1
 960 1408 l 1
 960 1318 l 1
 492 0 l 1
 363 0 l 1
 825 1278 l 1
 825 1288 l 1
 192 1288 l 1
EndSplineSet
Validated: 1
Layer: 2
Layer: 3
Layer: 4
EndChar
StartChar: nine
Encoding: 57 57 950
GlifName: nine
Width: 1024
VWidth: 0
Flags: W
HStem: 496 120<443.892 671.689> 1304 120<441.627 678.07>
VStem: 224 128<722.689 1197.76> 768 128<722.811 1197.83>
LayerCount: 5
Back
Fore
SplineSet
560 1424 m 4
 717 1424 820 1342 864 1224 c 4
 892 1149 896 1078 896 960 c 4
 896 791 872 619 810 458 c 4
 745 288 661 127 571 -28 c 5
 461 33 l 5
 558 198 645 362 710 544 c 5
 701 548 l 5
 655 513 601 496 540 496 c 4
 392 496 295 579 252 696 c 4
 224 773 224 858 224 960 c 4
 224 1042 224 1137 256 1224 c 4
 299 1341 402 1424 560 1424 c 4
560 1304 m 4
 373 1304 352 1147 352 960 c 4
 352 773 373 616 560 616 c 4
 747 616 768 773 768 960 c 4
 768 1147 747 1304 560 1304 c 4
EndSplineSet
Validated: 1
Layer: 2
Layer: 3
Layer: 4
Substitution2: "'ss13' Style Set 13 lookup 13 subtable" nine.round
EndChar
StartChar: colon
Encoding: 58 58 80
GlifName: colon
Width: 1024
VWidth: 0
Flags: W
HStem: 0 240<384 640> 784 240<384 640>
VStem: 384 256<0 240 784 1024>
LayerCount: 5
Back
Fore
SplineSet
384 240 m 1
 640 240 l 1
 640 0 l 1
 384 0 l 1
 384 240 l 1
384 1024 m 1
 640 1024 l 1
 640 784 l 1
 384 784 l 1
 384 1024 l 1
EndSplineSet
Validated: 1
Layer: 2
Layer: 3
Layer: 4
Position2: "Single Positioning lookup 21 subtable" dx=-128 dy=0 dh=0 dv=0
Position2: "Single Positioning lookup 15 subtable" dx=128 dy=0 dh=0 dv=0
Position2: "Single Positioning lookup 12 subtable" dx=128 dy=0 dh=0 dv=0
Position2: "Single Positioning lookup 11 subtable" dx=128 dy=0 dh=0 dv=0
Position2: "Single Positioning lookup 6 subtable" dx=128 dy=0 dh=0 dv=0
Position2: "Single Positioning lookup 5 subtable" dx=128 dy=0 dh=0 dv=0
Position2: "Single Positioning lookup 4 subtable" dx=128 dy=0 dh=0 dv=0
Position2: "Single Positioning lookup 2 subtable" dx=128 dy=0 dh=0 dv=0
Position2: "Single Positioning lookup 1 subtable" dx=128 dy=0 dh=0 dv=0
Substitution2: "Single Substitution lookup 55 subtable" larsenwork7
EndChar
StartChar: less
Encoding: 60 60 925
GlifName: less
Width: 1024
VWidth: 0
Flags: W
LayerCount: 5
Back
SplineSet
931.853419358 200.5819367 m 1
 860.146580642 99.4180632999 l 1
 259.146580642 525.4180633 l 1
 259.146580642 626.5819367 l 1
 860.146580642 1052.5819367 l 1
 931.853419358 951.4180633 l 1
 402.214320665 576 l 1
 931.853419358 200.5819367 l 1
EndSplineSet
Fore
SplineSet
389 571 m 1
 900 95 l 1
 814 5 l 1
 256 531 l 1
 256 621 l 1
 814 1147 l 1
 900 1057 l 1
 389 581 l 1
 389 571 l 1
EndSplineSet
Validated: 1
Layer: 2
SplineSet
896 150 m 5
 295 576 l 5
 896 1002 l 1029
EndSplineSet
Layer: 3
Layer: 4
Substitution2: "Single Substitution lookup 98 subtable" less2
Substitution2: "Single Substitution lookup 97 subtable" less1
Substitution2: "Single Substitution lookup 92 subtable" rangeless
Substitution2: "Single Substitution lookup 66 subtable" equallessless
Substitution2: "Single Substitution lookup 65 subtable" larsenwork8
Substitution2: "Single Substitution lookup 59 subtable" larsenwork3
Substitution2: "Single Substitution lookup 52 subtable" larsenwork6
Substitution2: "Single Substitution lookup 46 subtable" less1
Substitution2: "Single Substitution lookup 37 subtable" larsenwork2
Substitution2: "Single Substitution lookup 32 subtable" larsenwork1
Substitution2: "Single Substitution lookup 31 subtable" larsenwork1
Substitution2: "Single Substitution lookup 25 subtable" larsenwork3
Substitution2: "Single Substitution lookup 21 subtable" larsenwork5
EndChar
StartChar: equal
Encoding: 61 61 839
GlifName: equal
Width: 1024
VWidth: 0
Flags: W
HStem: 260 120<256 896> 772 120<256 896>
LayerCount: 5
Back
Fore
SplineSet
256 380 m 1
 896 380 l 5
 896 260 l 5
 256 260 l 1
 256 380 l 1
256 892 m 1
 896 892 l 5
 896 772 l 5
 256 772 l 1
 256 892 l 1
EndSplineSet
Validated: 1
Layer: 2
Layer: 3
Layer: 4
Substitution2: "Single Substitution lookup 69 subtable" larsenwork2
Substitution2: "Single Substitution lookup 68 subtable" greaterequalliga
Substitution2: "Single Substitution lookup 64 subtable" larsenwork8
Substitution2: "Single Substitution lookup 63 subtable" greatergreaterequal
Substitution2: "Single Substitution lookup 60 subtable" lessequalliga
Substitution2: "Single Substitution lookup 58 subtable" equal.after
Substitution2: "Single Substitution lookup 57 subtable" equalcolonequal
Substitution2: "Single Substitution lookup 55 subtable" larsenwork7
Substitution2: "Single Substitution lookup 54 subtable" leftarrowequallong
Substitution2: "Single Substitution lookup 53 subtable" larsenwork6
Substitution2: "Single Substitution lookup 50 subtable" larsenwork5
Substitution2: "Single Substitution lookup 49 subtable" larsenwork5
Substitution2: "Single Substitution lookup 47 subtable" equal.wide
Substitution2: "Single Substitution lookup 45 subtable" notequalliga
Substitution2: "Single Substitution lookup 43 subtable" notequaltypeliga
Substitution2: "Single Substitution lookup 42 subtable" larsenwork1
EndChar
StartChar: greater
Encoding: 62 62 884
GlifName: greater
Width: 1024
VWidth: 0
Flags: W
LayerCount: 5
Back
Fore
SplineSet
763 571 m 1
 763 581 l 1
 252 1057 l 1
 338 1147 l 1
 896 621 l 1
 896 531 l 1
 338 5 l 1
 252 95 l 1
 763 571 l 1
EndSplineSet
Validated: 1
Layer: 2
Layer: 3
Layer: 4
EndChar
StartChar: A
Encoding: 65 65 29
GlifName: A_
Width: 1024
VWidth: 0
Flags: W
HStem: 0 21G<103 243.5 908.5 1049> 388 120<314 838> 1388 20G<389 763>
VStem: 103 135<0 253.02> 914 135<0 253.803>
AnchorPoint: "bottom" 960 0 basechar 0
AnchorPoint: "top" 576 1408 basechar 0
LayerCount: 5
Back
Fore
SplineSet
103 0 m 1
 156 496 267 971 511 1408 c 1
 641 1408 l 1
 885 971 996 496 1049 0 c 1
 914 0 l 1
 903 136 883 265 859 388 c 1
 293 388 l 1
 274 265 249 136 238 0 c 1
 103 0 l 1
838 508 m 1
 770 796 697 1054 581 1279 c 1
 571 1279 l 1
 455 1054 382 796 314 508 c 1
 838 508 l 1
EndSplineSet
Validated: 1
Layer: 2
Layer: 3
Layer: 4
Position2: "Single Positioning lookup 22 subtable" dx=128 dy=0 dh=0 dv=0
Position2: "Single Positioning lookup 20 subtable" dx=-128 dy=0 dh=0 dv=0
Position2: "Single Positioning lookup 19 subtable" dx=0 dy=0 dh=0 dv=0
Position2: "Single Positioning lookup 14 subtable" dx=0 dy=0 dh=0 dv=0
EndChar
StartChar: H
Encoding: 72 72 36
GlifName: H_
Width: 1024
VWidth: 0
Flags: W
HStem: 0 21G<128 256 896 1024> 640 120<256 896> 1388 20G<128 256 896 1024>
VStem: 128 128<0 640 760 1408> 896 128<0 640 760 1408>
AnchorPoint: "top" 576 1408 basechar 0
LayerCount: 5
Back
Fore
SplineSet
128 1408 m 1
 256 1408 l 1
 256 760 l 1
 896 760 l 1
 896 1408 l 1
 1024 1408 l 1
 1024 0 l 1
 896 0 l 1
 896 640 l 1
 256 640 l 1
 256 0 l 1
 128 0 l 1
 128 1408 l 1
EndSplineSet
Validated: 1
Layer: 2
Layer: 3
Layer: 4
Position2: "Single Positioning lookup 22 subtable" dx=128 dy=0 dh=0 dv=0
Position2: "Single Positioning lookup 20 subtable" dx=-128 dy=0 dh=0 dv=0
Position2: "Single Positioning lookup 19 subtable" dx=0 dy=0 dh=0 dv=0
Position2: "Single Positioning lookup 14 subtable" dx=0 dy=0 dh=0 dv=0
EndChar
StartChar: J
Encoding: 74 74 38
GlifName: J_
Width: 1024
VWidth: 0
Flags: W
HStem: -12 120<393.278 724.704> 1288 120<256 896>
VStem: 896 128<282.009 1288>
AnchorPoint: "top" 576 1408 basechar 0
LayerCount: 5
Back
SplineSet
960 1280 m 5
 960 501 l 6
 960 444.472725186 959.160787397 387.472510589 946.821436682 332.308453253 c 4
 934.482085967 277.144395917 910.635973825 224.253763362 874.985855566 180.385758325 c 4
 839.335737307 136.517753288 792.411135946 102.116819965 740.368489533 80.0511055628 c 4
 688.326768854 57.985783666 631.529295477 47.9999999905 575.003016523 47.9999999905 c 4
 490.502758427 48.0002655269 406.721064514 69.5875984668 330 105 c 4
 248.829573871 142.46610844 175.036645678 195.627630518 113 260 c 1028
  Spiro
    960 1280 {
    960 501 ]
    575 48 o
    330 105 o
    113 260 o
    0 0 z
  EndSpiro
EndSplineSet
Fore
SplineSet
896 1288 m 1
 256 1288 l 1
 256 1408 l 1
 1024 1408 l 1
 1024 501 l 2
 1024 401 1024 269 926 144 c 0
 853 50 723 -12 565 -12 c 0
 387 -12 244 65 151 146 c 1
 225 241 l 1
 303 174 421 108 565 108 c 0
 680 108 772 151 824 217 c 0
 896 308 896 406 896 501 c 2
 896 1288 l 1
EndSplineSet
Validated: 1
Layer: 2
SplineSet
576 800 m 4
 802.2 800 960 649.134375 960 432 c 4
 960 205.425 802.2 48 576 48 c 4
 349.8 48 192 205.425 192 432 c 4
 192 649.134375 349.8 800 576 800 c 4
  Spiro
    576 800 o
    775.918 752.936 o
    910.806 623.748 o
    960 432 o
    910.806 231.915 o
    775.918 97.1105 o
    576 48 o
    376.082 97.1105 o
    241.194 231.915 o
    192 432 o
    241.194 623.748 o
    376.082 752.936 o
    0 0 z
  EndSpiro
EndSplineSet
Layer: 3
SplineSet
896 1280 m 1
 1024 1280 l 1
 1024 501 l 0
 1024 443.979492188 1023.49609375 382.744140625 1009.45898438 319.994140625 c 0
 995.42578125 257.2578125 968.240234375 196.131835938 925.89453125 144.0234375 c 0
 883.6171875 92.001953125 828.334960938 51.498046875 766.741210938 25.3818359375 c 0
 705.342773438 -0.650390625 639.508789062 -12 575.002929688 -12 c 0
 478.826171875 -12 385.66796875 12.4267578125 301.73046875 51.1708984375 c 0
 212.826171875 92.2060546875 132.70703125 150.051757812 65.51171875 219.775390625 c 1
 160.48828125 300.223632812 l 1
 217.3671875 241.204101562 284.83203125 192.725585938 358.26953125 158.829101562 c 0
 427.7734375 126.748046875 502.1796875 108 575.002929688 108 c 0
 623.549804688 108 671.311523438 116.622070312 713.995117188 134.719726562 c 0
 756.487304688 152.736328125 795.0546875 181.034179688 824.078125 216.748046875 c 0
 853.03125 252.375 873.5390625 297.03125 884.18359375 344.622070312 c 0
 894.826171875 392.200195312 896 444.966796875 896 501 c 0
 896 1280 l 1
  Spiro
    896 1280 v
    1024 1280 v
    1024 501 [
    1023.35 442.734 o
    1019.46 382.078 o
    1009.46 319.994 o
    990.99 258.13 o
    963.229 198.806 o
    925.895 144.023 o
    879.58 95.9915 o
    825.927 56.1523 o
    766.741 25.3818 o
    704.141 4.13699 o
    639.673 -8.10128 o
    575.003 -12 o
    480.156 -4.24732 o
    388.422 17.6017 o
    301.73 51.1709 o
    215.99 97.5752 o
    136.786 154.255 o
    65.5117 219.775 v
    160.488 300.224 v
    220.662 244.919 o
    287.063 197.393 o
    358.27 158.829 o
    429.095 131.416 o
    501.965 114.037 o
    575.003 108 o
    623.082 110.9 o
    669.823 119.761 o
    713.995 134.72 o
    754.932 156.033 o
    792.116 183.643 o
    824.078 216.748 o
    850.14 255.118 o
    870.321 298.28 o
    884.184 344.622 o
    891.972 393.808 o
    895.303 446.18 o
    896 501 ]
    0 0 z
  EndSpiro
EndSplineSet
Layer: 4
EndChar
StartChar: K
Encoding: 75 75 39
GlifName: K_
Width: 1024
VWidth: 0
Flags: W
HStem: 0 21G<128 256 890.881 1062> 1388 20G<128 256 813.338 969>
VStem: 128 128<0 558 719 1408>
AnchorPoint: "bottom" 576 0 basechar 0
LayerCount: 5
Back
Fore
SplineSet
256 0 m 1
 128 0 l 1
 128 1408 l 1
 256 1408 l 1
 256 719 l 1
 830 1408 l 1
 969 1408 l 1
 481 813 l 1
 1062 0 l 1
 905 0 l 1
 396 721 l 1
 256 558 l 1
 256 0 l 1
EndSplineSet
Validated: 1
Layer: 2
SplineSet
502 768 m 5
 1052 -138 l 1029
320 520 m 5
 1152 1806 l 1029
384 1408 m 5
 384 0 l 5
 256 0 l 5
 256 1408 l 5
 384 1408 l 5
512 752 m 5
 1052 -138 l 1029
320 520 m 5
 1152 1806 l 1029
EndSplineSet
Layer: 3
Layer: 4
EndChar
StartChar: V
Encoding: 86 86 49
GlifName: V_
Width: 1024
VWidth: 0
InSpiro: 1
Flags: W
HStem: 0 21G<410.5 741.5> 1388 20G<105 272 880 1047>
VStem: 105 130<1227.65 1408> 917 130<1227.65 1408>
LayerCount: 5
Back
SplineSet
113 1738 m 1
 163 1448 l 2
 247.236184118 959.430132117 360.279088989 471.386311474 576 25 c 1
 791.720911011 471.386311474 904.763815882 959.430132117 989 1448 c 2
 1039 1738 l 1025
  Spiro
    113 1738 {
    163 1448 ]
    576 25 v
    989 1448 [
    1039 1738 o
    0 0 z
  EndSpiro
EndSplineSet
Fore
SplineSet
581 157 m 1
 747 552 843 978 917 1408 c 1
 1047 1408 l 1
 963 927 849 445 634 0 c 1
 518 0 l 1
 303 445 189 927 105 1408 c 1
 235 1408 l 1
 309 978 405 550 571 157 c 1
 581 157 l 1
EndSplineSet
Validated: 1
Layer: 2
SplineSet
49.8203125 1728.42578125 m 1
 176.1796875 1747.57324219 l 1
 226.1796875 1457.57421875 l 0
 301.982421875 1017.91796875 401.680664062 579.475585938 576 177.118164062 c 1
 751.01953125 581.08984375 849.983398438 1017.72167969 925.8203125 1457.57421875 c 0
 975.8203125 1747.57324219 l 1
 1102.1796875 1728.42578125 l 1
 1052.1796875 1438.42578125 l 0
 967.588867188 947.799804688 853.788085938 454.430664062 634.295898438 0.2392578125 c 1
 517.704101562 0.2392578125 l 1
 298.211914062 454.430664062 184.411132812 947.799804688 99.8203125 1438.42578125 c 0
 49.8203125 1728.42578125 l 1
  Spiro
    49.8203 1728.43 v
    176.18 1747.57 v
    226.18 1457.57 [
    311.729 1020.05 o
    424.806 589.79 o
    576 177.118 v
    727.498 590.464 o
    840.411 1020.32 o
    925.82 1457.57 ]
    975.82 1747.57 v
    1102.18 1728.43 v
    1052.18 1438.43 [
    955.132 948.926 o
    821.233 465.462 o
    634.296 0.239258 v
    517.704 0.239258 v
    330.767 465.462 o
    196.868 948.926 o
    99.8203 1438.43 ]
    0 0 z
  EndSpiro
EndSplineSet
Layer: 3
Layer: 4
Position2: "Single Positioning lookup 22 subtable" dx=128 dy=0 dh=0 dv=0
Position2: "Single Positioning lookup 20 subtable" dx=-128 dy=0 dh=0 dv=0
Position2: "Single Positioning lookup 19 subtable" dx=0 dy=0 dh=0 dv=0
Position2: "Single Positioning lookup 14 subtable" dx=0 dy=0 dh=0 dv=0
EndChar
StartChar: X
Encoding: 88 88 51
GlifName: X_
Width: 1024
VWidth: 0
Flags: W
HStem: 0 21G<89 247.987 904.013 1063> 1388 20G<121 278.377 873.623 1031>
LayerCount: 5
Back
Fore
SplineSet
571 824 m 1
 581 824 l 1
 884 1408 l 1
 1031 1408 l 1
 660 721 l 1
 660 711 l 1
 1063 0 l 1
 915 0 l 1
 581 608 l 1
 571 608 l 1
 237 0 l 1
 89 0 l 1
 492 711 l 1
 492 721 l 1
 121 1408 l 1
 268 1408 l 1
 571 824 l 1
EndSplineSet
Validated: 1
Layer: 2
Layer: 3
Layer: 4
Position2: "Single Positioning lookup 22 subtable" dx=128 dy=0 dh=0 dv=0
Position2: "Single Positioning lookup 20 subtable" dx=-128 dy=0 dh=0 dv=0
Position2: "Single Positioning lookup 19 subtable" dx=0 dy=0 dh=0 dv=0
Position2: "Single Positioning lookup 14 subtable" dx=0 dy=0 dh=0 dv=0
EndChar
StartChar: asciicircum
Encoding: 94 94 89
GlifName: asciicircum
Width: 1024
VWidth: 0
Flags: W
HStem: 1299 109<524.172 627.828>
VStem: 201 135<896 988.157> 816 135<896 988.157>
LayerCount: 5
Back
Fore
SplineSet
201 896 m 1
 250 1076 332 1249 496 1408 c 1
 656 1408 l 1
 820 1249 902 1076 951 896 c 1
 816 896 l 1
 769 1055 699 1190 601 1299 c 1
 551 1299 l 1
 453 1190 383 1055 336 896 c 1
 201 896 l 1
EndSplineSet
Validated: 1
Layer: 2
Layer: 3
Layer: 4
EndChar
StartChar: underscore
Encoding: 95 95 1107
GlifName: underscore
Width: 1024
VWidth: 0
Flags: W
HStem: -120 120<128 1024>
LayerCount: 5
Back
Fore
SplineSet
128 0 m 1
 1024 0 l 1
 1024 -120 l 1
 128 -120 l 1
 128 0 l 1
EndSplineSet
Validated: 1
Layer: 2
Layer: 3
Layer: 4
Substitution2: "Single Substitution lookup 77 subtable" underscore.2r
Substitution2: "Single Substitution lookup 76 subtable" underscore.2l
Substitution2: "Single Substitution lookup 75 subtable" underscore.more
Substitution2: "Single Substitution lookup 74 subtable" underscore.more
Substitution2: "Single Substitution lookup 73 subtable" underscore.more
EndChar
StartChar: a
Encoding: 97 97 2
GlifName: a
Width: 1024
VWidth: 0
Flags: W
HStem: -16 120<428.964 640.666> 0 21G<768 896> 512 110<432.381 768> 920 120<324.118 730.059>
VStem: 224 128<180.598 428.043> 768 128<0 123 238.75 512 622 881.269>
AnchorPoint: "top" 576 1024 basechar 0
AnchorPoint: "bottom" 832 0 basechar 0
LayerCount: 5
Back
Fore
SplineSet
768 512 m 1xbc
 572 512 l 2
 517 512 459 512 408 458 c 0
 372 420 352 362 352 303 c 0
 352 194 417 104 532 104 c 0
 762 104 768 341 768 471 c 2
 768 512 l 1xbc
608 1040 m 0
 704 1040 805 1021 866 913 c 0
 896 860 896 785 896 749 c 2
 896 0 l 1
 768 0 l 1x7c
 768 123 l 1
 758 123 l 1
 694 35 617 -16 508 -16 c 0
 350 -16 224 116 224 301 c 0
 224 383 249 470 312 533 c 0
 402 622 512 622 574 622 c 2
 768 622 l 1
 768 744 l 2
 768 788 768 831 750 862 c 0
 729 898 696 920 608 920 c 0
 520 920 408 910 320 899 c 1
 320 1021 l 1
 407 1031 516 1040 608 1040 c 0
EndSplineSet
Validated: 1
Layer: 2
SplineSet
640 980 m 4
 753.1 980 832 901.2875 832 788 c 4
 832 674.7125 753.1 596 640 596 c 4
 526.9 596 448 674.7125 448 788 c 4
 448 901.2875 526.9 980 640 980 c 4
  Spiro
    640 980 o
    739.959 955.445 o
    807.403 888.042 o
    832 788 o
    807.403 687.958 o
    739.959 620.555 o
    640 596 o
    540.041 620.555 o
    472.597 687.958 o
    448 788 o
    472.597 888.042 o
    540.041 955.445 o
    0 0 z
  EndSpiro
530 648 m 0
 707.896484375 648 832 524.19140625 832 346 c 0
 832 167.80859375 707.896484375 44 530 44 c 0
 352.103515625 44 228 167.80859375 228 346 c 0
 228 524.19140625 352.103515625 648 530 648 c 0
  Spiro
    530 648 o
    687.227 609.377 o
    793.311 503.358 o
    832 346 o
    793.311 188.642 o
    687.227 82.6234 o
    530 44 o
    372.773 82.6234 o
    266.689 188.642 o
    228 346 o
    266.689 503.358 o
    372.773 609.377 o
    0 0 z
  EndSpiro
530 572 m 0
 658.415833716 572 748 463.770565257 748 308 c 0
 748 152.229434743 658.415833716 44 530 44 c 0
 400.174621582 44 288 152.229434743 288 308 c 0
 288 463.770565257 400.174621582 572 530 572 c 0
  Spiro
    530 572 o
    643.495 538.237 o
    720.072 445.558 o
    748 308 o
    720.072 170.442 o
    643.495 77.7634 o
    530 44 o
    409.667 77.7634 o
    321.826 170.442 o
    288 308 o
    321.826 445.558 o
    409.667 538.237 o
    0 0 z
  EndSpiro
EndSplineSet
Layer: 3
SplineSet
798 572 m 1
 572 572 l 2
 533.314771203 572 494.076087576 570.678786497 457.172350778 559.074427945 c 0
 420.26861398 547.470069392 386.492077281 526.190721317 360 498 c 0
 311.947263836 446.866173106 287.981201153 375.609337513 287.981201153 305.404730188 c 0
 287.981201153 234.451975462 312.78628906 164.41960592 362 115 c 0
 405.93668744 70.8794950186 467.774736965 46.2512448185 530 44 c 0
 533.423814351 43.8761299842 536.849058237 43.8145693516 540.273846003 43.8145693516 c 0
 591.753735765 43.8145693516 643.130566268 57.7240515552 688 83 c 0
 739.52202676 112.023501833 781.978691441 157.530721941 805 212 c 0
 831.495481996 274.689302499 832.00079465 344.680006573 832.00079465 412.893718175 c 0
 832.00079465 415.598795317 832 418.301077976 832 421 c 2
 832 753 l 2
 832 787.067507676 831.438521313 821.640646179 821.71756104 854.291802523 c 0
 811.996600767 886.942958867 792.78935185 916.954199785 766 938 c 0
 744.543049897 954.856648403 718.867697608 965.876369778 692.295134361 972.076868596 c 0
 665.722571113 978.277367413 638.286387406 979.980882532 611 980 c 0
 610.496344617 980.000176321 l 0
 577.613249573 980.000176321 544.768439117 977.74836546 512 975 c 0
 469.224748792 971.412339858 426.540587814 966.735138154 384 961 c 0
 341.144530926 955.222410916 298.449053443 948.249219781 256 940 c 1024
  Spiro
    798 572 {
    572 572 ]
    360 498 o
    288 302 o
    362 115 o
    530 44 o
    688 83 o
    805 212 o
    832 421 [
    832 753 ]
    766 938 o
    611 980 o
    512 975 o
    384 961 o
    256 940 o
    0 0 z
  EndSpiro
EndSplineSet
Layer: 4
Position2: "Single Positioning lookup 18 subtable" dx=-128 dy=0 dh=0 dv=0
Position2: "Single Positioning lookup 17 subtable" dx=-128 dy=0 dh=0 dv=0
Position2: "Single Positioning lookup 16 subtable" dx=0 dy=0 dh=0 dv=0
Position2: "Single Positioning lookup 13 subtable" dx=-128 dy=0 dh=0 dv=0
Position2: "Single Positioning lookup 9 subtable" dx=128 dy=0 dh=0 dv=0
Position2: "Single Positioning lookup 8 subtable" dx=128 dy=0 dh=0 dv=0
Position2: "Single Positioning lookup 7 subtable" dx=0 dy=0 dh=0 dv=0
Position2: "Single Positioning lookup 3 subtable" dx=128 dy=0 dh=0 dv=0
EndChar
StartChar: g
Encoding: 103 103 7
GlifName: g
Width: 1024
VWidth: 0
Flags: W
HStem: -272 120<302.991 661.513> 112 120<453.158 651.56> 920 120<453.158 651.56> 1004 20G<768 896>
VStem: 224 128<356.17 795.83> 768 128<-30.9382 253 355.581 796.419 899 1024>
AnchorPoint: "top" 576 1024 basechar 0
LayerCount: 5
Back
Fore
SplineSet
352 576 m 0xec
 352 443 371 339 437 278 c 0
 468 249 510 232 560 232 c 0
 610 232 652 249 683 278 c 0
 749 339 768 443 768 576 c 0
 768 709 749 813 683 874 c 0
 652 903 610 920 560 920 c 0
 510 920 468 903 437 874 c 0
 371 813 352 709 352 576 c 0xec
768 253 m 1
 758 253 l 1
 703 168 627 112 540 112 c 0
 459 112 389 144 339 193 c 0
 255 276 224 403 224 576 c 0
 224 749 255 876 339 959 c 0
 389 1008 459 1040 540 1040 c 0xec
 627 1040 703 984 758 899 c 1
 768 899 l 1
 768 1024 l 1
 896 1024 l 1xdc
 896 160 l 2
 896 100 896 -11 835 -113 c 0
 780 -205 684 -272 536 -272 c 0
 446 -272 364 -265 300 -257 c 1
 300 -137 l 1
 363 -144 447 -152 536 -152 c 0
 632 -152 687 -113 724 -54 c 0
 768 17 768 113 768 160 c 2
 768 253 l 1
EndSplineSet
Validated: 1
Layer: 2
Layer: 3
SplineSet
560 256 m 0
 540.531058528 255.947221234 521.068001614 253.93112987 502 250 c 0
 429.609085841 235.075620889 363.438945309 190.787450634 323.3553728 128.686816502 c 0
 295.049798907 84.8335874058 280.159157176 32.615220877 280.159157176 -19.5380184051 c 0
 280.159157176 -41.2390721402 282.737332713 -62.9288497008 288 -84 c 1
 209 -374 l 1
 242.96542309 -380.84150246 276.961124633 -387.533850806 311 -394 c 0
 348.904671387 -401.200509937 386.85129422 -408.230450311 425 -414 c 0
 461.90225773 -419.581038865 499.006770216 -423.98450874 536.377578814 -424.000158115 c 0
 559.041833588 -424.000158115 581.745827027 -422.289510396 604 -418 c 0
 640.10095022 -411.041511745 674.92790157 -396.960217035 705.038701814 -375.864272538 c 0
 735.149502059 -354.768328042 760.351981447 -326.936162582 779.427369943 -295.506419991 c 0
 817.886880116 -232.13824769 832.002686517 -156.82331051 832.002686517 -82.2233925653 c 0
 832.002686517 -11.0094668425 819.032413309 61.5201974215 784.179541127 123.59687694 c 0
 766.608167036 154.893366725 743.26464813 183.100056667 714.856993763 205.036980648 c 0
 686.449339397 226.973904628 653.075441808 242.38837453 618 250 c 0
 598.968519222 254.12996947 579.474370882 256.052793484 560 256 c 0
  Spiro
    560 256 o
    502 250 o
    288 -84 v
    209 -374 v
    311 -394 o
    425 -414 o
    536 -424 o
    604 -418 o
    832 -84 o
    618 250 o
    0 0 z
  EndSpiro
EndSplineSet
Layer: 4
Position2: "Single Positioning lookup 18 subtable" dx=-128 dy=0 dh=0 dv=0
Position2: "Single Positioning lookup 17 subtable" dx=-128 dy=0 dh=0 dv=0
Position2: "Single Positioning lookup 16 subtable" dx=0 dy=0 dh=0 dv=0
Position2: "Single Positioning lookup 13 subtable" dx=-128 dy=0 dh=0 dv=0
Position2: "Single Positioning lookup 9 subtable" dx=128 dy=0 dh=0 dv=0
Position2: "Single Positioning lookup 8 subtable" dx=128 dy=0 dh=0 dv=0
Position2: "Single Positioning lookup 7 subtable" dx=0 dy=0 dh=0 dv=0
Position2: "Single Positioning lookup 3 subtable" dx=128 dy=0 dh=0 dv=0
Substitution2: "'ss11' Style Set 11 lookup 11 subtable" g.long
EndChar
StartChar: w
Encoding: 119 119 1330
GlifName: w
Width: 1024
VWidth: 0
Flags: W
HStem: 0 21G<208.5 417.417 734.583 943.5> 1004 20G<109 237 915 1043>
VStem: 109 128<654.241 1024> 915 128<654.241 1024>
AnchorPoint: "top" 576 1024 basechar 0
LayerCount: 5
Back
Fore
SplineSet
514 767 m 1
 638 767 l 1
 802 140 l 1
 812 140 l 1
 883 413 915 717 915 1024 c 1
 1043 1024 l 1
 1043 680 993 339 894 0 c 1
 740 0 l 1
 581 587 l 1
 571 587 l 1
 412 0 l 1
 258 0 l 1
 159 339 109 680 109 1024 c 1
 237 1024 l 1
 237 717 269 413 340 140 c 1
 350 140 l 1
 514 767 l 1
EndSplineSet
Validated: 1
Layer: 2
SplineSet
1074 1124 m 5
 832 14 l 5
 576 1009 l 5
 320 14 l 5
 78 1124 l 1029
EndSplineSet
Layer: 3
Layer: 4
Position2: "Single Positioning lookup 22 subtable" dx=128 dy=0 dh=0 dv=0
Position2: "Single Positioning lookup 20 subtable" dx=-128 dy=0 dh=0 dv=0
Position2: "Single Positioning lookup 19 subtable" dx=0 dy=0 dh=0 dv=0
Position2: "Single Positioning lookup 14 subtable" dx=0 dy=0 dh=0 dv=0
Substitution2: "'ss10' Style Set 10 lookup 10 subtable" w.straight
EndChar
StartChar: z
Encoding: 122 122 1348
GlifName: z
Width: 1024
VWidth: 0
Flags: W
HStem: 0 120<401 896> 904 120<276 731>
LayerCount: 5
Back
Fore
SplineSet
276 904 m 1
 276 1024 l 1
 876 1024 l 1
 876 934 l 1
 401 130 l 1
 401 120 l 1
 896 120 l 1
 896 0 l 1
 256 0 l 1
 256 92 l 1
 731 894 l 1
 731 904 l 1
 276 904 l 1
EndSplineSet
Validated: 1
Layer: 2
Layer: 3
Layer: 4
Position2: "Single Positioning lookup 18 subtable" dx=-128 dy=0 dh=0 dv=0
Position2: "Single Positioning lookup 17 subtable" dx=-128 dy=0 dh=0 dv=0
Position2: "Single Positioning lookup 16 subtable" dx=0 dy=0 dh=0 dv=0
Position2: "Single Positioning lookup 13 subtable" dx=-128 dy=0 dh=0 dv=0
Position2: "Single Positioning lookup 9 subtable" dx=128 dy=0 dh=0 dv=0
Position2: "Single Positioning lookup 8 subtable" dx=128 dy=0 dh=0 dv=0
Position2: "Single Positioning lookup 7 subtable" dx=0 dy=0 dh=0 dv=0
Position2: "Single Positioning lookup 3 subtable" dx=128 dy=0 dh=0 dv=0
EndChar
StartChar: tilde
Encoding: 126 126 1085
GlifName: tilde
Width: 1024
VWidth: 0
Flags: W
HStem: 380 120<698.512 857.706> 652 120<294.294 453.488>
VStem: 128 128<384 610.659> 896 128<541.341 768>
LayerCount: 5
Back
Fore
SplineSet
256 384 m 1
 128 384 l 1
 128 603 165 772 375 772 c 0
 602 772 636 500 777 500 c 0
 890 500 896 596 896 768 c 1
 1024 768 l 1
 1024 549 987 380 777 380 c 0
 550 380 516 652 375 652 c 0
 262 652 256 556 256 384 c 1
EndSplineSet
Validated: 1
Layer: 2
Layer: 3
Layer: 4
EndChar
StartChar: sterling
Encoding: 163 163 1061
GlifName: sterling
Width: 1024
VWidth: 0
Flags: W
HStem: 0 120<128 256 384 896> 648 120<128 256 384 768> 1304 120<496.183 861.672>
VStem: 256 128<120 648 768 1175.04>
LayerCount: 5
Back
Fore
SplineSet
256 120 m 1
 256 648 l 1
 128 648 l 1
 128 768 l 1
 256 768 l 1
 256 896 l 2
 256 1017 258 1122 296 1215 c 0
 343 1330 449 1424 618 1424 c 0
 695 1424 774 1418 866 1409 c 1
 866 1289 l 1
 773 1298 689 1304 618 1304 c 0
 517 1304 452 1256 416 1173 c 0
 384 1100 384 998 384 896 c 2
 384 768 l 1
 768 768 l 1
 768 648 l 1
 384 648 l 1
 384 120 l 1
 896 120 l 1
 896 0 l 1
 128 0 l 1
 128 120 l 1
 256 120 l 1
EndSplineSet
Validated: 1
Layer: 2
Layer: 3
Layer: 4
EndChar
StartChar: yen
Encoding: 165 165 1344
GlifName: yen
Width: 1024
VWidth: 0
Flags: W
HStem: 0 21G<512 640> 384 120<256 512 640 896> 648 120<256 396 756 896> 1388 20G<113 270.5 881.5 1039>
VStem: 113 125<1293.75 1408> 512 128<0 384 504 630> 914 125<1293.75 1408>
CounterMasks: 1 0e
LayerCount: 5
Back
Fore
SplineSet
113 1408 m 1
 238 1408 l 1
 303 1145 398 921 561 740 c 1
 591 740 l 1
 754 921 849 1145 914 1408 c 1
 1039 1408 l 1
 989 1185 907 970 756 768 c 1
 896 768 l 1
 896 648 l 1
 657 648 l 1
 640 630 l 1
 640 504 l 1
 896 504 l 1
 896 384 l 1
 640 384 l 1
 640 0 l 1
 512 0 l 1
 512 384 l 1
 256 384 l 1
 256 504 l 1
 512 504 l 1
 512 630 l 1
 495 648 l 1
 256 648 l 1
 256 768 l 1
 396 768 l 1
 245 970 163 1185 113 1408 c 1
EndSplineSet
Validated: 1
Layer: 2
Layer: 3
Layer: 4
EndChar
StartChar: brokenbar
Encoding: 166 166 313
GlifName: brokenbar
Width: 1024
VWidth: 0
Flags: W
HStem: 1024 21G<512 640>
VStem: 512 128<-128 384 1024 1536>
LayerCount: 5
Back
Fore
SplineSet
640 384 m 1
 640 -128 l 1
 512 -128 l 1
 512 384 l 1
 640 384 l 1
640 1536 m 1
 640 1024 l 1
 512 1024 l 1
 512 1536 l 1
 640 1536 l 1
EndSplineSet
Validated: 1
Layer: 2
Layer: 3
Layer: 4
EndChar
StartChar: section
Encoding: 167 167 1037
GlifName: section
Width: 1024
VWidth: 0
Flags: W
HStem: -272 120<295.652 699.967> 1302 120<452.033 852.624>
VStem: 215 128<456.622 690.99> 233 128<988.923 1211.98> 791 128<-63.0386 160.92> 809 128<460.193 692.156>
LayerCount: 5
Back
Fore
SplineSet
584 368 m 0xe4
 765 368 809 497 809 578 c 0
 809 721 704 780 565 780 c 0
 386 780 343 653 343 571 c 0
 343 423 461 368 584 368 c 0xe4
383 289 m 0
 282 342 215 444 215 571 c 0xe8
 215 677 271 781 382 843 c 1
 291 900 233 991 233 1101 c 0
 233 1263 351 1422 594 1422 c 0
 682 1422 783 1407 856 1394 c 1
 856 1271 l 1
 786 1285 677 1302 594 1302 c 0
 406 1302 361 1180 361 1101 c 0
 361 1022 398 971 445 936 c 0
 531 873 656 920 771 859 c 0
 864 810 937 710 937 578 c 0xd4
 937 472 882 367 770 306 c 1
 857 252 919 161 919 47 c 0
 919 -114 801 -272 558 -272 c 0
 458 -272 342 -251 256 -233 c 1
 256 -110 l 1
 338 -129 464 -152 558 -152 c 0
 746 -152 791 -31 791 47 c 0xc8
 791 132 748 194 691 223 c 0
 602 268 489 234 383 289 c 0
EndSplineSet
Validated: 1
Layer: 2
Layer: 3
Layer: 4
EndChar
StartChar: guillemotleft
Encoding: 171 171 887
GlifName: guillemotleft
Width: 1024
VWidth: 0
Flags: W
HStem: 1019 20G<434.035 479.588 818.035 863.588>
LayerCount: 5
Back
Fore
SplineSet
253 581 m 1
 253 571 l 1
 553 181 l 1
 449 113 l 1
 128 542 l 1
 128 610 l 1
 449 1039 l 1
 553 971 l 1
 253 581 l 1
637 581 m 1
 637 571 l 1
 937 181 l 1
 833 113 l 1
 512 542 l 1
 512 610 l 1
 833 1039 l 1
 937 971 l 1
 637 581 l 1
EndSplineSet
Validated: 1
Layer: 2
Layer: 3
Layer: 4
EndChar
StartChar: logicalnot
Encoding: 172 172 317
GlifName: logicalnot
Width: 1024
VWidth: 0
Flags: W
HStem: 644 120<128 896>
VStem: 896 128<384 644>
LayerCount: 5
Back
Fore
SplineSet
1024 764 m 1
 1024 384 l 1
 896 384 l 1
 896 644 l 1
 128 644 l 1
 128 764 l 1
 1024 764 l 1
EndSplineSet
Validated: 1
Layer: 2
Layer: 3
Layer: 4
EndChar
StartChar: registered
Encoding: 174 174 1012
GlifName: registered
Width: 1024
VWidth: 0
Flags: W
HStem: 113 82<417.721 734.057> 640 120<512 598> 904 120<512 647.446> 1213 82<417.943 734.279>
VStem: 112 88<448.22 959.78> 384 128<384 640 760 904> 656 128<763.52 899.631> 952 88<448.22 959.78>
LayerCount: 5
Back
Fore
SplineSet
656 832 m 0
 656 881 646 904 595 904 c 2
 512 904 l 1
 512 760 l 1
 595 760 l 2
 645 760 656 783 656 832 c 0
784 832 m 0
 784 760 758 704 712 671 c 1
 809 384 l 1
 674 384 l 1
 598 640 l 1
 512 640 l 1
 512 384 l 1
 384 384 l 1
 384 1024 l 1
 595 1024 l 2
 715 1024 784 951 784 832 c 0
576 1213 m 0
 399 1213 289 1114 240 980 c 0
 209 895 200 800 200 704 c 0
 200 608 209 513 240 428 c 0
 289 294 398 195 576 195 c 0
 753 195 863 294 912 428 c 0
 943 513 952 608 952 704 c 0
 952 800 943 895 912 980 c 0
 863 1114 754 1213 576 1213 c 0
576 1295 m 0
 793 1295 936 1170 996 1006 c 0
 1032 908 1040 804 1040 704 c 0
 1040 604 1032 500 996 402 c 0
 936 238 793 113 576 113 c 0
 359 113 216 238 156 402 c 0
 120 500 112 604 112 704 c 0
 112 804 120 908 156 1006 c 0
 216 1170 359 1295 576 1295 c 0
EndSplineSet
Validated: 1
Layer: 2
SplineSet
448 384 m 1
 448 964 l 1
 595 964 l 2
 612.433693874 964 630.131524331 963.484314678 646.750703355 958.217762615 c 0
 663.36988238 952.951210552 678.511828502 943.080905887 689.918136273 929.896451968 c 0
 701.324444042 916.711998048 708.99669391 900.569074113 713.602547708 883.754800626 c 0
 718.208401507 866.94052714 720.000000003 849.433693874 720 832 c 0
 720 814.566306126 718.208401501 797.05947286 713.602547699 780.245199374 c 0
 708.996693898 763.430925888 701.324444027 747.288001954 689.918136256 734.103548035 c 0
 678.511828488 720.919094118 663.369882369 711.048789453 646.750703347 705.782237389 c 0
 630.131524325 700.515685325 612.433693872 700.000000002 595 700 c 2
 449 700 l 1
 635 700 l 1
 763 320 l 1025
  Spiro
    448 384 {
    448 964 v
    595 964 ]
    720 832 o
    595 700 [
    449 700 v
    635 700 v
    763 320 v
    0 0 z
  EndSpiro
EndSplineSet
Layer: 3
SplineSet
512 760 m 5
 595 760 l 6
 606.791015625 760 615.684570312 760.45703125 621.291992188 761.4453125 c 4
 623.357421875 761.809570312 624.978515625 762.217773438 626.2578125 762.623046875 c 4
 631.107421875 764.16015625 636.38671875 767.4765625 640.211914062 771.8984375 c 4
 644.348632812 776.680664062 648.780273438 784.825195312 651.61328125 795.16796875 c 4
 654.549804688 805.888671875 656 818.3984375 656 832 c 4
 656 845.600585938 654.549804688 858.111328125 651.61328125 868.83203125 c 4
 648.780273438 879.174804688 644.348632812 887.319335938 640.211914062 892.1015625 c 4
 636.385742188 896.524414062 631.112304688 899.838867188 626.2578125 901.375976562 c 4
 621.53125 902.874023438 611.333007812 904 595 904 c 6
 512 904 l 5
 512 760 l 5
384 384 m 5
 384 1024 l 5
 595 1024 l 6
 613.534179688 1024 638.732421875 1024.09472656 667.244140625 1015.05859375 c 4
 695.627929688 1006.06445312 720.637695312 989.637695312 739.624023438 967.69140625 c 4
 758.299804688 946.10546875 769.213867188 921.963867188 775.591796875 898.677734375 c 4
 781.866210938 875.76953125 784 853.266601562 784 832 c 4
 784 810.734375 781.866210938 788.229492188 775.591796875 765.322265625 c 4
 769.213867188 742.036132812 758.299804688 717.895507812 739.624023438 696.30859375 c 4
 731.524414062 686.9453125 722.041992188 678.413085938 711.840820312 671.126953125 c 5
 808.557258819 384 l 5
 674.326546819 384 l 5
 588.094726562 640 l 5
 512 640 l 5
 512 384 l 5
 384 384 l 5
EndSplineSet
Layer: 4
EndChar
StartChar: macron
Encoding: 175 175 317
GlifName: macron
Width: 1024
VWidth: 0
Flags: W
HStem: 1284 120<256 896>
LayerCount: 5
Back
Fore
SplineSet
256 1404 m 5
 896 1404 l 5
 896 1284 l 5
 256 1284 l 5
 256 1404 l 5
EndSplineSet
Validated: 1
Layer: 2
Layer: 3
Layer: 4
EndChar
StartChar: degree
Encoding: 176 176 824
GlifName: degree
Width: 1024
VWidth: 0
Flags: W
HStem: 1068 100<491.86 660.14> 1424 100<491.86 660.14>
VStem: 348 108<1201.29 1390.71> 696 108<1201.29 1390.71>
LayerCount: 5
Back
Fore
SplineSet
576 1524 m 0
 711 1524 804 1423 804 1296 c 0
 804 1169 711 1068 576 1068 c 0
 441 1068 348 1169 348 1296 c 0
 348 1423 441 1524 576 1524 c 0
576 1424 m 0
 506 1424 456 1379 456 1296 c 0
 456 1213 506 1168 576 1168 c 0
 646 1168 696 1213 696 1296 c 0
 696 1379 646 1424 576 1424 c 0
EndSplineSet
Validated: 1
Layer: 2
Layer: 3
Layer: 4
EndChar
StartChar: uni00B2
Encoding: 178 178 1112
GlifName: uni00B_2
Width: 1024
VWidth: 0
Flags: W
HStem: 768 120<388 768> 1432 120<259.361 616.448>
VStem: 250 138<888 949.847> 652 128<1228.4 1396.49>
LayerCount: 5
Back
Fore
SplineSet
256 1525 m 1
 329 1540 409 1552 499 1552 c 0
 689 1552 780 1441 780 1317 c 0
 780 1167 661 1089 562 1039 c 0
 486 1001 413 967 388 898 c 1
 388 888 l 1
 768 888 l 1
 768 768 l 1
 250 768 l 1
 250 828 l 2
 250 991 372 1085 490 1141 c 0
 564 1176 652 1221 652 1317 c 0
 652 1355 638 1432 499 1432 c 0
 416 1432 326 1419 256 1405 c 1
 256 1525 l 1
EndSplineSet
Validated: 1
Layer: 2
Layer: 3
Layer: 4
EndChar
StartChar: periodcentered
Encoding: 183 183 982
GlifName: periodcentered
Width: 1024
VWidth: 0
Flags: W
HStem: 528 240<384 640>
VStem: 384 256<528 768>
LayerCount: 5
Back
Fore
SplineSet
384 768 m 1
 640 768 l 1
 640 528 l 1
 384 528 l 1
 384 768 l 1
EndSplineSet
Validated: 1
Layer: 2
Layer: 3
Layer: 4
EndChar
StartChar: guillemotright
Encoding: 187 187 888
GlifName: guillemotright
Width: 1024
VWidth: 0
Flags: W
HStem: 1019 20G<288.412 333.965 672.412 717.965>
LayerCount: 5
Back
Fore
SplineSet
899 581 m 1
 599 971 l 1
 703 1039 l 1
 1024 610 l 1
 1024 542 l 1
 703 113 l 1
 599 181 l 1
 899 571 l 1
 899 581 l 1
515 581 m 1
 215 971 l 1
 319 1039 l 1
 640 610 l 1
 640 542 l 1
 319 113 l 1
 215 181 l 1
 515 571 l 1
 515 581 l 1
EndSplineSet
Validated: 1
Layer: 2
SplineSet
520 147 m 5
 841 576 l 5
 520 1005 l 1029
EndSplineSet
Layer: 3
Layer: 4
EndChar
StartChar: threequarters
Encoding: 190 190 1082
GlifName: threequarters
Width: 1024
VWidth: 0
Flags: W
HStem: 128 120<643 896> 752 120<131.455 488.288> 1092 120<256 479.687> 1415 21G<138 171.5> 1432 120<141.221 482.489>
VStem: 524 128<906.693 1056.58 1255.22 1389.93> 896 128<-128 128 248 640>
LayerCount: 5
Back
SplineSet
369 1469 m 4
 301.379497815 1453.17670974 234.319644586 1435.05796832 167 1418 c 5
 0 1323 l 5
 384 1152 l 5
 482 1152 l 6
 516.126555676 1152 550.526782309 1152.08878773 583.953388879 1158.96510764 c 4
 617.37999545 1165.84142755 649.76778307 1180.02268442 675 1203 c 4
 707.913737451 1232.97236962 727.000107212 1277.3019775 727.000107212 1321.81727202 c 4
 727 1322 l 4
 726.944911076 1368.94300597 705.698300776 1415.51590306 670 1446 c 4
 650.425429993 1462.71544798 626.981591421 1474.64822754 602.293956936 1481.93456377 c 4
 577.640766858 1489.21073405 551.812608128 1492.00001633 526.107740579 1492.00001633 c 4
 473.038494443 1491.99197282 420.652839146 1481.08683521 369 1469 c 4
  Spiro
    526 1492 o
    369 1469 o
    167 1418 v
    0 1323 v
    384 1152 v
    482 1152 ]
    675 1203 o
    727 1322 o
    670 1446 o
    0 0 z
  EndSpiro
681 1102 m 4
 654.483893113 1124.8535734 620.993446953 1138.60498506 586.62826675 1145.27012805 c 4
 552.263086547 1151.93527104 517.005567293 1152 482 1152 c 6
 384 1152 l 5
 0 1120 l 5
 132 896 l 5
 194.547568062 878.887689266 257.096286024 861.752847906 320 846 c 4
 387.992200451 828.972852876 456.908252453 812.09993555 527 812 c 4
 527.523925425 811.999626306 l 4
 566.876515789 811.999626306 606.843269543 818.330920328 642 836 c 4
 669.228891791 849.684704242 693.156661909 870.197269261 709.833848307 895.703251544 c 4
 726.669596871 921.451737789 736.002891459 951.858064687 736.002891459 982.920197563 c 4
 736.002891459 1028.02673264 715.173625357 1072.54660178 681 1102 c 4
  Spiro
    681 1102 o
    482 1152 [
    384 1152 v
    0 1120 v
    132 896 v
    320 846 o
    527 812 o
    642 836 o
    736 982 o
    0 0 z
  EndSpiro
EndSplineSet
Fore
SplineSet
546 1150 m 1xee
 621 1111 652 1048 652 983 c 0
 652 836 529 752 370 752 c 0
 281 752 202 759 128 767 c 1
 128 887 l 1
 201 880 296 872 370 872 c 0
 463 872 524 907 524 983 c 0
 524 1041 479 1077 426 1087 c 0
 400 1092 369 1092 334 1092 c 2
 256 1092 l 1
 256 1212 l 1
 334 1212 l 2
 368 1212 397 1213 422 1218 c 0
 474 1229 515 1264 515 1322 c 0
 515 1395 461 1432 368 1432 c 0xee
 295 1432 205 1422 138 1415 c 1xf6
 138 1535 l 1
 208 1544 283 1552 368 1552 c 0
 536 1552 643 1460 643 1322 c 0
 643 1261 618 1201 546 1160 c 1
 546 1150 l 1xee
1024 -128 m 1
 896 -128 l 1
 896 128 l 1
 512 128 l 1
 512 200 l 1
 590 640 l 1
 711 640 l 1
 643 248 l 1
 896 248 l 1
 896 640 l 1
 1024 640 l 1
 1024 -128 l 1
EndSplineSet
Validated: 1
Layer: 2
SplineSet
527 1152 m 4
 650.1140625 1152 736 1082.30664062 736 982 c 4
 736 881.693359375 650.1140625 812 527 812 c 4
 403.8859375 812 318 881.693359375 318 982 c 4
 318 1082.30664062 403.8859375 1152 527 1152 c 4
  Spiro
    527 1152 o
    635.81 1130.26 o
    709.225 1070.58 o
    736 982 o
    709.225 893.421 o
    635.81 833.742 o
    527 812 o
    418.19 833.742 o
    344.775 893.421 o
    318 982 o
    344.775 1070.58 o
    418.19 1130.26 o
    0 0 z
  EndSpiro
527 1492 m 4
 644.8125 1492 727 1422.30664062 727 1322 c 4
 727 1221.69335938 644.8125 1152 527 1152 c 4
 409.1875 1152 327 1221.69335938 327 1322 c 4
 327 1422.30664062 409.1875 1492 527 1492 c 4
  Spiro
    527 1492 o
    631.124 1470.26 o
    701.378 1410.58 o
    727 1322 o
    701.378 1233.42 o
    631.124 1173.74 o
    527 1152 o
    422.876 1173.74 o
    352.622 1233.42 o
    327 1322 o
    352.622 1410.58 o
    422.876 1470.26 o
    0 0 z
  EndSpiro
EndSplineSet
Layer: 3
Layer: 4
EndChar
StartChar: Agrave
Encoding: 192 192 97
GlifName: A_grave
Width: 1024
VWidth: 0
Flags: W
HStem: 0 21G<103 243.5 908.5 1049> 388 120<314 838> 1388 20G<389 763>
VStem: 103 135<0 253.02> 914 135<0 253.803>
LayerCount: 5
Back
Refer: 27 96 N 1 0 0 1 136.371 522 2
Refer: 29 65 N 1 0 0 1 26 0 3
Fore
SplineSet
103 0 m 1
 156 496 267 971 511 1408 c 1
 641 1408 l 1
 885 971 996 496 1049 0 c 1
 914 0 l 1
 903 136 883 265 859 388 c 1
 293 388 l 1
 274 265 249 136 238 0 c 1
 103 0 l 1
838 508 m 1
 770 796 697 1054 581 1279 c 1
 571 1279 l 1
 455 1054 382 796 314 508 c 1
 838 508 l 1
664 1536 m 1
 526 1536 l 1
 360 1792 l 1
 498 1792 l 1
 664 1536 l 1
EndSplineSet
Validated: 1
Layer: 2
Layer: 3
Layer: 4
Substitution2: "'ss14' Style Set 14 lookup 14 subtable" Agrave.sq
EndChar
StartChar: Atilde
Encoding: 195 195 99
GlifName: A_tilde
Width: 1024
VWidth: 0
Flags: HW
HStem: 0 21G<103 243.5 908.5 1049> 388 120<314 838> 1388 20G<389 763> 1540 120<637.402 751.423> 1668 120<400.597 514.598>
VStem: 103 135<0 253.02> 253 128<1561 1655.42> 771 128<1672.67 1767> 914 135<0 253.803>
LayerCount: 5
Back
Refer: 94 61534 N 1 0 0 1 0 1036 2
Refer: 29 65 N 1 0 0 1 0 0 3
Fore
SplineSet
103 0 m 1
 156 496 267 971 511 1408 c 1
 641 1408 l 1
 885 971 996 496 1049 0 c 1
 914 0 l 1
 903 136 883 265 859 388 c 1
 293 388 l 1
 274 265 249 136 238 0 c 1
 103 0 l 1
838 508 m 1
 770 796 697 1054 581 1279 c 1
 571 1279 l 1
 455 1054 382 796 314 508 c 1
 838 508 l 1
448 1668 m 0
 397 1668 384 1609 381 1555 c 1
 253 1561 l 1
 257 1679 319 1788 448 1788 c 0
 594 1788 627 1660 704 1660 c 0
 755 1660 768 1719 771 1773 c 1
 899 1767 l 1
 896 1651 833 1540 704 1540 c 0
 558 1540 525 1668 448 1668 c 0
EndSplineSet
Validated: 1
Layer: 2
Layer: 3
Layer: 4
Substitution2: "'ss14' Style Set 14 lookup 14 subtable" Atilde.sq
EndChar
StartChar: Adieresis
Encoding: 196 196 103
GlifName: A_dieresis
Width: 1024
VWidth: 0
Flags: W
HStem: 0 21G<103 243.5 908.5 1049> 388 120<314 838> 1388 20G<389 763> 1552 224<269.423 434.577 717.423 882.577>
VStem: 103 135<0 253.02> 240 224<1581.42 1746.58> 688 224<1581.42 1746.58> 914 135<0 253.803>
LayerCount: 5
Back
Fore
SplineSet
103 0 m 1
 156 496 267 971 511 1408 c 1
 641 1408 l 1
 885 971 996 496 1049 0 c 1
 914 0 l 1
 903 136 883 265 859 388 c 1
 293 388 l 1
 274 265 249 136 238 0 c 1
 103 0 l 1
838 508 m 1
 770 796 697 1054 581 1279 c 1
 571 1279 l 1
 455 1054 382 796 314 508 c 1
 838 508 l 1
800 1776 m 4
 866 1776 912 1730 912 1664 c 4
 912 1598 866 1552 800 1552 c 4
 734 1552 688 1598 688 1664 c 4
 688 1730 734 1776 800 1776 c 4
352 1776 m 4
 418 1776 464 1730 464 1664 c 4
 464 1598 418 1552 352 1552 c 4
 286 1552 240 1598 240 1664 c 4
 240 1730 286 1776 352 1776 c 4
EndSplineSet
Validated: 1
Layer: 2
Layer: 3
Layer: 4
Substitution2: "'ss14' Style Set 14 lookup 14 subtable" Adieresis.sq
EndChar
StartChar: Eacute
Encoding: 201 201 108
GlifName: E_acute
Width: 1024
VWidth: 0
Flags: W
HStem: 0 120<384 1024> 648 120<384 896> 1288 120<384 1024>
VStem: 256 128<120 648 768 1288>
LayerCount: 5
Back
Fore
SplineSet
256 1408 m 1
 1024 1408 l 1
 1024 1288 l 1
 384 1288 l 1
 384 768 l 1
 896 768 l 1
 896 648 l 1
 384 648 l 1
 384 120 l 1
 1024 120 l 1
 1024 0 l 1
 256 0 l 1
 256 1408 l 1
488 1536 m 1
 654 1792 l 1
 792 1792 l 1
 626 1536 l 1
 488 1536 l 1
EndSplineSet
Validated: 1
Layer: 2
Layer: 3
Layer: 4
Substitution2: "'ss14' Style Set 14 lookup 14 subtable" Eacute.sq
EndChar
StartChar: Edieresis
Encoding: 203 203 110
GlifName: E_dieresis
Width: 1024
VWidth: 0
Flags: W
HStem: 0 120<384 1024> 648 120<384 896> 1288 120<384 1024> 1552 224<269.423 434.577 717.423 882.577>
VStem: 240 224<1581.42 1746.58> 256 128<120 648 768 1288> 688 224<1581.42 1746.58>
LayerCount: 5
Back
Fore
SplineSet
256 1408 m 1xf6
 1024 1408 l 1
 1024 1288 l 1
 384 1288 l 1
 384 768 l 1
 896 768 l 1
 896 648 l 1
 384 648 l 1
 384 120 l 1
 1024 120 l 1
 1024 0 l 1
 256 0 l 1
 256 1408 l 1xf6
800 1776 m 4
 866 1776 912 1730 912 1664 c 4
 912 1598 866 1552 800 1552 c 4
 734 1552 688 1598 688 1664 c 4
 688 1730 734 1776 800 1776 c 4
352 1776 m 4
 418 1776 464 1730 464 1664 c 4
 464 1598 418 1552 352 1552 c 4
 286 1552 240 1598 240 1664 c 4xfa
 240 1730 286 1776 352 1776 c 4
EndSplineSet
Validated: 1
Layer: 2
Layer: 3
Layer: 4
Substitution2: "'ss14' Style Set 14 lookup 14 subtable" Edieresis.sq
EndChar
StartChar: Igrave
Encoding: 204 204 111
GlifName: I_grave
Width: 1024
VWidth: 0
Flags: W
HStem: 0 120<256 512 640 896> 1288 120<256 512 640 896>
VStem: 512 128<120 1288>
LayerCount: 5
Back
Fore
SplineSet
896 1408 m 1
 896 1288 l 1
 640 1288 l 1
 640 120 l 1
 896 120 l 1
 896 0 l 1
 256 0 l 1
 256 120 l 1
 512 120 l 1
 512 1288 l 1
 256 1288 l 1
 256 1408 l 1
 896 1408 l 1
664 1536 m 1
 526 1536 l 1
 360 1792 l 1
 498 1792 l 1
 664 1536 l 1
EndSplineSet
Validated: 1
Layer: 2
Layer: 3
Layer: 4
Substitution2: "'ss14' Style Set 14 lookup 14 subtable" Igrave.sq
EndChar
StartChar: Iacute
Encoding: 205 205 112
GlifName: I_acute
Width: 1024
VWidth: 0
Flags: W
HStem: 0 120<256 512 640 896> 1288 120<256 512 640 896>
VStem: 512 128<120 1288>
LayerCount: 5
Back
Fore
SplineSet
896 1408 m 1
 896 1288 l 1
 640 1288 l 1
 640 120 l 1
 896 120 l 1
 896 0 l 1
 256 0 l 1
 256 120 l 1
 512 120 l 1
 512 1288 l 1
 256 1288 l 1
 256 1408 l 1
 896 1408 l 1
488 1536 m 1
 654 1792 l 1
 792 1792 l 1
 626 1536 l 1
 488 1536 l 1
EndSplineSet
Validated: 1
Layer: 2
Layer: 3
Layer: 4
Substitution2: "'ss14' Style Set 14 lookup 14 subtable" Iacute.sq
EndChar
StartChar: Idieresis
Encoding: 207 207 114
GlifName: I_dieresis
Width: 1024
VWidth: 0
Flags: W
HStem: 0 120<256 512 640 896> 1288 120<256 512 640 896> 1552 224<269.423 434.577 717.423 882.577>
VStem: 240 224<1581.42 1746.58> 512 128<120 1288> 688 224<1581.42 1746.58>
CounterMasks: 1 1c
LayerCount: 5
Back
Fore
SplineSet
896 1408 m 1
 896 1288 l 1
 640 1288 l 1
 640 120 l 1
 896 120 l 1
 896 0 l 1
 256 0 l 1
 256 120 l 1
 512 120 l 1
 512 1288 l 1
 256 1288 l 1
 256 1408 l 1
 896 1408 l 1
800 1776 m 4
 866 1776 912 1730 912 1664 c 4
 912 1598 866 1552 800 1552 c 4
 734 1552 688 1598 688 1664 c 4
 688 1730 734 1776 800 1776 c 4
352 1776 m 4
 418 1776 464 1730 464 1664 c 4
 464 1598 418 1552 352 1552 c 4
 286 1552 240 1598 240 1664 c 4
 240 1730 286 1776 352 1776 c 4
EndSplineSet
Validated: 1
Layer: 2
Layer: 3
Layer: 4
Substitution2: "'ss14' Style Set 14 lookup 14 subtable" Idieresis.sq
EndChar
StartChar: Ntilde
Encoding: 209 209 116
GlifName: N_tilde
Width: 1024
VWidth: 0
Flags: W
HStem: 0 21G<128 256 885.119 1024> 1388 20G<128 265.898 896 1024> 1540 120<637.402 751.423> 1668 120<400.597 514.598>
VStem: 128 128<0 1158> 253 128<1561 1655.42> 771 128<1672.67 1767> 896 128<250 1408>
LayerCount: 5
Back
Fore
SplineSet
256 0 m 1xf9
 128 0 l 1
 128 1408 l 1
 255 1408 l 1
 886 250 l 1
 896 250 l 1
 896 1408 l 1
 1024 1408 l 1
 1024 0 l 1
 896 0 l 1
 266 1158 l 1
 256 1158 l 1
 256 0 l 1xf9
448 1668 m 0
 397 1668 384 1609 381 1555 c 1
 253 1561 l 1
 257 1679 319 1788 448 1788 c 0
 594 1788 627 1660 704 1660 c 0
 755 1660 768 1719 771 1773 c 1
 899 1767 l 1xf6
 896 1651 833 1540 704 1540 c 0
 558 1540 525 1668 448 1668 c 0
EndSplineSet
Validated: 1
Layer: 2
Layer: 3
Layer: 4
Substitution2: "'ss14' Style Set 14 lookup 14 subtable" Ntilde.sq
EndChar
StartChar: Ograve
Encoding: 210 210 117
GlifName: O_grave
Width: 1024
VWidth: 0
Flags: W
HStem: -16 120<438.425 713.575> 1304 120<438.425 713.575>
VStem: 112 128<354.842 1053.16> 912 128<354.842 1053.16>
LayerCount: 5
Back
Fore
SplineSet
240 704 m 0
 240 588 243 478 265 382 c 0
 301 235 396 104 576 104 c 0
 756 104 851 235 887 382 c 0
 909 478 912 588 912 704 c 0
 912 820 909 930 887 1026 c 0
 851 1173 756 1304 576 1304 c 0
 396 1304 301 1173 265 1026 c 0
 243 930 240 820 240 704 c 0
112 704 m 0
 112 831 114 950 140 1053 c 0
 189 1253 331 1424 576 1424 c 0
 821 1424 963 1253 1012 1053 c 0
 1038 950 1040 831 1040 704 c 0
 1040 577 1038 458 1012 355 c 0
 963 155 821 -16 576 -16 c 0
 331 -16 189 155 140 355 c 0
 114 458 112 577 112 704 c 0
664 1536 m 1
 526 1536 l 1
 360 1792 l 1
 498 1792 l 1
 664 1536 l 1
EndSplineSet
Validated: 1
Layer: 2
Layer: 3
Layer: 4
Substitution2: "'ss14' Style Set 14 lookup 14 subtable" Ograve.sq
EndChar
StartChar: Odieresis
Encoding: 214 214 121
GlifName: O_dieresis
Width: 1024
VWidth: 0
Flags: W
HStem: -16 120<438.425 713.575> 1304 120<438.425 713.575> 1552 224<269.423 434.577 717.423 882.577>
VStem: 112 128<354.842 1053.16> 240 224<1581.42 1746.58> 688 224<1581.42 1746.58> 912 128<354.842 1053.16>
LayerCount: 5
Back
Fore
SplineSet
240 704 m 0xf2
 240 588 243 478 265 382 c 0
 301 235 396 104 576 104 c 0
 756 104 851 235 887 382 c 0
 909 478 912 588 912 704 c 0
 912 820 909 930 887 1026 c 0
 851 1173 756 1304 576 1304 c 0
 396 1304 301 1173 265 1026 c 0
 243 930 240 820 240 704 c 0xf2
112 704 m 0
 112 831 114 950 140 1053 c 0
 189 1253 331 1424 576 1424 c 0
 821 1424 963 1253 1012 1053 c 0
 1038 950 1040 831 1040 704 c 0
 1040 577 1038 458 1012 355 c 0
 963 155 821 -16 576 -16 c 0
 331 -16 189 155 140 355 c 0
 114 458 112 577 112 704 c 0
800 1776 m 4
 866 1776 912 1730 912 1664 c 4
 912 1598 866 1552 800 1552 c 4
 734 1552 688 1598 688 1664 c 4xe4
 688 1730 734 1776 800 1776 c 4
352 1776 m 4
 418 1776 464 1730 464 1664 c 4
 464 1598 418 1552 352 1552 c 4
 286 1552 240 1598 240 1664 c 4xe8
 240 1730 286 1776 352 1776 c 4
EndSplineSet
Validated: 1
Layer: 2
Layer: 3
Layer: 4
Substitution2: "'ss14' Style Set 14 lookup 14 subtable" Odieresis.sq
EndChar
StartChar: Uacute
Encoding: 218 218 125
GlifName: U_acute
Width: 1024
VWidth: 0
Flags: W
HStem: -16 120<426.462 725.475> 1388 20G<128 256 896 1024>
VStem: 128 128<277.329 1408> 896 128<277.329 1408>
LayerCount: 5
Back
Fore
SplineSet
128 1408 m 1
 256 1408 l 1
 256 512 l 2
 256 437 256 378 268 330 c 0
 301 196 416 104 576 104 c 0
 736 104 851 196 884 330 c 0
 896 378 896 437 896 512 c 2
 896 1408 l 1
 1024 1408 l 1
 1024 512 l 2
 1024 426 1024 371 1008 303 c 0
 964 118 797 -16 576 -16 c 0
 355 -16 187 118 144 303 c 0
 128 371 128 426 128 512 c 2
 128 1408 l 1
488 1536 m 1
 654 1792 l 1
 792 1792 l 1
 626 1536 l 1
 488 1536 l 1
EndSplineSet
Validated: 1
Layer: 2
Layer: 3
Layer: 4
Substitution2: "'ss14' Style Set 14 lookup 14 subtable" Uacute.sq
EndChar
StartChar: Udieresis
Encoding: 220 220 127
GlifName: U_dieresis
Width: 1024
VWidth: 0
Flags: W
HStem: -16 120<426.462 725.475> 1388 20G<128 256 896 1024> 1552 224<269.423 434.577 717.423 882.577>
VStem: 128 128<277.329 1408> 240 224<1581.42 1746.58> 688 224<1581.42 1746.58> 896 128<277.329 1408>
LayerCount: 5
Back
Fore
SplineSet
128 1408 m 1xf2
 256 1408 l 1
 256 512 l 2
 256 437 256 378 268 330 c 0
 301 196 416 104 576 104 c 0
 736 104 851 196 884 330 c 0
 896 378 896 437 896 512 c 2
 896 1408 l 1
 1024 1408 l 1
 1024 512 l 2
 1024 426 1024 371 1008 303 c 0
 964 118 797 -16 576 -16 c 0
 355 -16 187 118 144 303 c 0
 128 371 128 426 128 512 c 2
 128 1408 l 1xf2
800 1776 m 4
 866 1776 912 1730 912 1664 c 4
 912 1598 866 1552 800 1552 c 4
 734 1552 688 1598 688 1664 c 4xe4
 688 1730 734 1776 800 1776 c 4
352 1776 m 4
 418 1776 464 1730 464 1664 c 4
 464 1598 418 1552 352 1552 c 4
 286 1552 240 1598 240 1664 c 4xe8
 240 1730 286 1776 352 1776 c 4
EndSplineSet
Validated: 1
Layer: 2
Layer: 3
Layer: 4
Substitution2: "'ss14' Style Set 14 lookup 14 subtable" Udieresis.sq
EndChar
StartChar: Yacute
Encoding: 221 221 128
GlifName: Y_acute
Width: 1024
VWidth: 0
Flags: W
HStem: 0 21G<512 640> 1388 20G<100 280.5 871.5 1052>
VStem: 512 128<0 661.578>
LayerCount: 5
Back
Fore
SplineSet
586 741 m 1
 724 944 827 1172 916 1408 c 1
 1052 1408 l 1
 946 1132 822 857 640 616 c 1
 640 0 l 1
 512 0 l 1
 512 616 l 1
 330 857 206 1132 100 1408 c 1
 236 1408 l 1
 325 1172 429 943 566 741 c 1
 586 741 l 1
488 1536 m 1
 654 1792 l 1
 792 1792 l 1
 626 1536 l 1
 488 1536 l 1
EndSplineSet
Validated: 1
Layer: 2
Layer: 3
Layer: 4
Substitution2: "'ss14' Style Set 14 lookup 14 subtable" Yacute.sq
EndChar
StartChar: atilde
Encoding: 227 227 134
GlifName: atilde
Width: 1024
VWidth: 0
Flags: W
HStem: -16 120<428.964 640.666> 0 21G<768 896> 512 110<432.381 768> 920 120<324.118 730.059> 1156 120<637.402 751.423> 1284 120<400.597 514.598>
VStem: 224 128<180.598 428.043> 253 128<1177 1271.42> 768 128<0 123 238.75 512 622 881.269 1288.67 1383>
LayerCount: 5
Back
Fore
SplineSet
768 512 m 1xbe80
 572 512 l 2
 517 512 459 512 408 458 c 0
 372 420 352 362 352 303 c 0
 352 194 417 104 532 104 c 0
 762 104 768 341 768 471 c 2
 768 512 l 1xbe80
608 1040 m 0
 704 1040 805 1021 866 913 c 0
 896 860 896 785 896 749 c 2
 896 0 l 1
 768 0 l 1x7e80
 768 123 l 1
 758 123 l 1
 694 35 617 -16 508 -16 c 0
 350 -16 224 116 224 301 c 0
 224 383 249 470 312 533 c 0
 402 622 512 622 574 622 c 2
 768 622 l 1
 768 744 l 2
 768 788 768 831 750 862 c 0
 729 898 696 920 608 920 c 0
 520 920 408 910 320 899 c 1
 320 1021 l 1
 407 1031 516 1040 608 1040 c 0
448 1284 m 0
 397 1284 384 1225 381 1171 c 1
 253 1177 l 1x3d80
 257 1295 319 1404 448 1404 c 0
 594 1404 627 1276 704 1276 c 0
 755 1276 768 1335 771 1389 c 1
 899 1383 l 1
 896 1267 833 1156 704 1156 c 0
 558 1156 525 1284 448 1284 c 0
EndSplineSet
Validated: 1
Layer: 2
Layer: 3
Layer: 4
EndChar
StartChar: adieresis
Encoding: 228 228 135
GlifName: adieresis
Width: 1024
VWidth: 0
Flags: W
HStem: -16 120<428.964 640.666> 0 21G<768 896> 512 110<432.381 768> 920 120<324.118 730.059> 1168 224<269.423 434.577 717.423 882.577>
VStem: 224 128<180.598 428.043> 240 224<1197.42 1362.58> 688 224<1197.42 1362.58> 768 128<0 123 238.75 512 622 881.269>
LayerCount: 5
Back
Fore
SplineSet
768 512 m 1xbc80
 572 512 l 2
 517 512 459 512 408 458 c 0
 372 420 352 362 352 303 c 0
 352 194 417 104 532 104 c 0
 762 104 768 341 768 471 c 2
 768 512 l 1xbc80
608 1040 m 0
 704 1040 805 1021 866 913 c 0
 896 860 896 785 896 749 c 2
 896 0 l 1
 768 0 l 1x7c80
 768 123 l 1
 758 123 l 1
 694 35 617 -16 508 -16 c 0
 350 -16 224 116 224 301 c 0
 224 383 249 470 312 533 c 0
 402 622 512 622 574 622 c 2
 768 622 l 1
 768 744 l 2
 768 788 768 831 750 862 c 0
 729 898 696 920 608 920 c 0
 520 920 408 910 320 899 c 1
 320 1021 l 1
 407 1031 516 1040 608 1040 c 0
800 1392 m 4
 866 1392 912 1346 912 1280 c 4
 912 1214 866 1168 800 1168 c 4
 734 1168 688 1214 688 1280 c 4x39
 688 1346 734 1392 800 1392 c 4
352 1392 m 4x3c
 418 1392 464 1346 464 1280 c 4x3a
 464 1214 418 1168 352 1168 c 4x3c
 286 1168 240 1214 240 1280 c 4x3a
 240 1346 286 1392 352 1392 c 4x3c
EndSplineSet
Validated: 1
Layer: 2
Layer: 3
Layer: 4
EndChar
StartChar: edieresis
Encoding: 235 235 142
GlifName: edieresis
Width: 1024
VWidth: 0
Flags: W
HStem: -16 120<469.07 891.106> 512 120<354 798> 920 120<452.408 699.592> 1168 224<269.423 434.577 717.423 882.577>
VStem: 224 128<232.957 512 632 808.17> 240 224<1197.42 1362.58> 688 224<1197.42 1362.58> 798 130<632 812.653>
LayerCount: 5
Back
Fore
SplineSet
576 920 m 0xf1
 479 920 410 874 381 799 c 0
 360 751 357 693 354 632 c 1
 798 632 l 1
 795 693 792 751 771 799 c 0
 742 874 673 920 576 920 c 0xf1
576 1040 m 0
 738 1040 849 951 891 839 c 0
 927 747 928 637 928 512 c 1
 352 512 l 1
 352 410 352 308 384 235 c 0
 421 151 490 104 596 104 c 0
 689 104 791 113 896 125 c 1
 896 5 l 1
 792 -7 696 -16 596 -16 c 0
 422 -16 311 77 264 193 c 0
 226 286 224 391 224 512 c 0xf9
 224 637 225 747 261 839 c 0
 303 951 414 1040 576 1040 c 0
800 1392 m 4
 866 1392 912 1346 912 1280 c 4
 912 1214 866 1168 800 1168 c 4
 734 1168 688 1214 688 1280 c 4xf2
 688 1346 734 1392 800 1392 c 4
352 1392 m 4xf8
 418 1392 464 1346 464 1280 c 4xf4
 464 1214 418 1168 352 1168 c 4xf8
 286 1168 240 1214 240 1280 c 4xf4
 240 1346 286 1392 352 1392 c 4xf8
EndSplineSet
Validated: 1
Layer: 2
Layer: 3
Layer: 4
EndChar
StartChar: igrave
Encoding: 236 236 900
GlifName: igrave
Width: 1024
VWidth: 0
Flags: W
HStem: 0 21G<512 640> 904 120<256 512> 1388 20G<360 510.969>
VStem: 512 128<0 904>
LayerCount: 5
Back
Fore
SplineSet
512 0 m 1
 512 904 l 1
 256 904 l 1
 256 1024 l 1
 640 1024 l 1
 640 0 l 1
 512 0 l 1
664 1152 m 1
 526 1152 l 1
 360 1408 l 1
 498 1408 l 1
 664 1152 l 1
EndSplineSet
Validated: 1
Layer: 2
Layer: 3
Layer: 4
EndChar
StartChar: iacute
Encoding: 237 237 898
GlifName: iacute
Width: 1024
VWidth: 0
Flags: W
HStem: 0 21G<512 640> 904 120<256 512> 1388 20G<641.031 792>
VStem: 512 128<0 904>
LayerCount: 5
Back
Fore
SplineSet
512 0 m 1
 512 904 l 1
 256 904 l 1
 256 1024 l 1
 640 1024 l 1
 640 0 l 1
 512 0 l 1
488 1152 m 1
 654 1408 l 1
 792 1408 l 1
 626 1152 l 1
 488 1152 l 1
EndSplineSet
Validated: 1
Layer: 2
Layer: 3
Layer: 4
EndChar
StartChar: icircumflex
Encoding: 238 238 145
GlifName: icircumflex
Width: 1024
VWidth: 0
Flags: W
HStem: 0 21G<512 640> 904 120<256 512> 1388 20G<473.797 678.203>
VStem: 512 128<0 904>
LayerCount: 5
Back
Fore
SplineSet
512 0 m 1
 512 904 l 1
 256 904 l 1
 256 1024 l 1
 640 1024 l 1
 640 0 l 1
 512 0 l 1
497 1408 m 1
 655 1408 l 1
 952 1152 l 1
 794 1152 l 1
 576 1316 l 1
 358 1152 l 1
 200 1152 l 1
 497 1408 l 1
EndSplineSet
Validated: 1
Layer: 2
Layer: 3
Layer: 4
EndChar
StartChar: ntilde
Encoding: 241 241 952
GlifName: ntilde
Width: 1024
VWidth: 0
Flags: W
HStem: 0 21G<256 384 768 896> 920 120<488.173 688.755> 1004 20G<256 384> 1156 120<637.402 751.423> 1284 120<400.597 514.598>
VStem: 256 128<0 843.099 912 1024 1177 1272.2> 768 128<0 841.255 1288.67 1383>
LayerCount: 5
Back
Fore
SplineSet
596 1040 m 0xde
 696 1040 777 995 827 933 c 0
 896 847 896 751 896 657 c 2
 896 0 l 1
 768 0 l 1
 768 657 l 2
 768 744 768 806 723 858 c 0
 691 895 640 920 576 920 c 0xde
 512 920 461 895 429 858 c 0
 384 806 384 744 384 657 c 2
 384 0 l 1
 256 0 l 1
 256 1024 l 1
 384 1024 l 1xbe
 384 912 l 1
 394 912 l 1
 443 989 520 1040 596 1040 c 0xde
448 1284 m 0
 397 1284 384 1225 381 1171 c 1
 253 1177 l 1
 257 1295 319 1404 448 1404 c 0
 594 1404 627 1276 704 1276 c 0
 755 1276 768 1335 771 1389 c 1
 899 1383 l 1
 896 1267 833 1156 704 1156 c 0
 558 1156 525 1284 448 1284 c 0
EndSplineSet
Validated: 1
Layer: 2
Layer: 3
Layer: 4
EndChar
StartChar: otilde
Encoding: 245 245 974
GlifName: otilde
Width: 1024
VWidth: 0
Flags: W
HStem: -16 120<459.685 692.315> 920 120<459.685 692.315> 1156 120<637.402 751.423> 1284 120<400.597 514.598>
VStem: 224 128<233.791 790.209> 253 128<1177 1271.42> 771 128<1288.67 1383> 800 128<233.791 790.209>
LayerCount: 5
Back
Fore
SplineSet
576 1040 m 0xf9
 703 1040 802 978 863 880 c 0
 919 788 928 662 928 512 c 0
 928 362 919 236 863 144 c 0
 802 46 703 -16 576 -16 c 0
 449 -16 350 46 289 144 c 0
 233 236 224 362 224 512 c 0
 224 662 233 788 289 880 c 0
 350 978 449 1040 576 1040 c 0xf9
576 920 m 0
 492 920 435 881 400 822 c 0
 354 744 352 629 352 512 c 0
 352 395 354 280 400 202 c 0
 435 143 492 104 576 104 c 0
 660 104 717 143 752 202 c 0
 798 280 800 395 800 512 c 0
 800 629 798 744 752 822 c 0
 717 881 660 920 576 920 c 0
448 1284 m 0
 397 1284 384 1225 381 1171 c 1
 253 1177 l 1
 257 1295 319 1404 448 1404 c 0
 594 1404 627 1276 704 1276 c 0
 755 1276 768 1335 771 1389 c 1
 899 1383 l 1xf6
 896 1267 833 1156 704 1156 c 0
 558 1156 525 1284 448 1284 c 0
EndSplineSet
Validated: 1
Layer: 2
Layer: 3
Layer: 4
EndChar
StartChar: odieresis
Encoding: 246 246 957
GlifName: odieresis
Width: 1024
VWidth: 0
Flags: W
HStem: -16 120<459.685 692.315> 920 120<459.685 692.315> 1168 224<269.423 434.577 717.423 882.577>
VStem: 224 128<233.791 790.209> 240 224<1197.42 1362.58> 688 224<1197.42 1362.58> 800 128<233.791 790.209>
LayerCount: 5
Back
Fore
SplineSet
576 1040 m 0xf2
 703 1040 802 978 863 880 c 0
 919 788 928 662 928 512 c 0
 928 362 919 236 863 144 c 0
 802 46 703 -16 576 -16 c 0
 449 -16 350 46 289 144 c 0
 233 236 224 362 224 512 c 0
 224 662 233 788 289 880 c 0
 350 978 449 1040 576 1040 c 0xf2
576 920 m 0
 492 920 435 881 400 822 c 0
 354 744 352 629 352 512 c 0
 352 395 354 280 400 202 c 0
 435 143 492 104 576 104 c 0
 660 104 717 143 752 202 c 0
 798 280 800 395 800 512 c 0
 800 629 798 744 752 822 c 0
 717 881 660 920 576 920 c 0
800 1392 m 4
 866 1392 912 1346 912 1280 c 4xe4
 912 1214 866 1168 800 1168 c 4xe2
 734 1168 688 1214 688 1280 c 4xe4
 688 1346 734 1392 800 1392 c 4
352 1392 m 4xf0
 418 1392 464 1346 464 1280 c 4xe8
 464 1214 418 1168 352 1168 c 4xf0
 286 1168 240 1214 240 1280 c 4xe8
 240 1346 286 1392 352 1392 c 4xf0
EndSplineSet
Validated: 1
Layer: 2
Layer: 3
Layer: 4
EndChar
StartChar: divide
Encoding: 247 247 827
GlifName: divide
Width: 1024
VWidth: 0
Flags: W
HStem: 112 224<493.423 658.577> 516 120<128 1024> 816 224<493.423 658.577>
VStem: 464 224<141.423 306.577 845.423 1010.58>
CounterMasks: 1 e0
LayerCount: 5
Back
Fore
SplineSet
1024 636 m 1
 1024 516 l 1
 128 516 l 1
 128 636 l 1
 1024 636 l 1
576 336 m 0
 642 336 688 290 688 224 c 0
 688 158 642 112 576 112 c 0
 510 112 464 158 464 224 c 0
 464 290 510 336 576 336 c 0
576 1040 m 0
 642 1040 688 994 688 928 c 0
 688 862 642 816 576 816 c 0
 510 816 464 862 464 928 c 0
 464 994 510 1040 576 1040 c 0
EndSplineSet
Validated: 1
Layer: 2
Layer: 3
Layer: 4
EndChar
StartChar: uacute
Encoding: 250 250 1096
GlifName: uacute
Width: 1024
VWidth: 0
Flags: W
HStem: -16 120<463.245 663.827> 0 21G<768 896> 1004 20G<256 384 768 896> 1388 20G<641.031 792>
VStem: 256 128<182.745 1024> 768 128<0 112 180.901 1024>
LayerCount: 5
Back
Fore
SplineSet
556 -16 m 0xbc
 456 -16 375 29 325 91 c 0
 256 177 256 273 256 367 c 2
 256 1024 l 1
 384 1024 l 1
 384 367 l 2
 384 280 384 218 429 166 c 0
 461 129 512 104 576 104 c 0xbc
 640 104 691 129 723 166 c 0
 768 218 768 280 768 367 c 2
 768 1024 l 1
 896 1024 l 1
 896 0 l 1
 768 0 l 1x7c
 768 112 l 1
 758 112 l 1
 709 35 632 -16 556 -16 c 0xbc
488 1152 m 1
 654 1408 l 1
 792 1408 l 1
 626 1152 l 1
 488 1152 l 1
EndSplineSet
Validated: 1
Layer: 2
Layer: 3
Layer: 4
EndChar
StartChar: udieresis
Encoding: 252 252 1098
GlifName: udieresis
Width: 1024
VWidth: 0
Flags: W
HStem: -16 120<463.245 663.827> 0 21G<768 896> 1004 20G<256 384 768 896> 1168 224<269.423 434.577 717.423 882.577>
VStem: 240 224<1197.42 1362.58> 256 128<182.745 1024> 688 224<1197.42 1362.58> 768 128<0 112 180.901 1024>
LayerCount: 5
Back
Fore
SplineSet
556 -16 m 0xb5
 456 -16 375 29 325 91 c 0
 256 177 256 273 256 367 c 2
 256 1024 l 1
 384 1024 l 1
 384 367 l 2
 384 280 384 218 429 166 c 0
 461 129 512 104 576 104 c 0xb5
 640 104 691 129 723 166 c 0
 768 218 768 280 768 367 c 2
 768 1024 l 1
 896 1024 l 1
 896 0 l 1
 768 0 l 1x75
 768 112 l 1
 758 112 l 1
 709 35 632 -16 556 -16 c 0xb5
800 1392 m 4
 866 1392 912 1346 912 1280 c 4
 912 1214 866 1168 800 1168 c 4
 734 1168 688 1214 688 1280 c 4x32
 688 1346 734 1392 800 1392 c 4
352 1392 m 4
 418 1392 464 1346 464 1280 c 4
 464 1214 418 1168 352 1168 c 4
 286 1168 240 1214 240 1280 c 4x38
 240 1346 286 1392 352 1392 c 4
EndSplineSet
Validated: 1
Layer: 2
Layer: 3
Layer: 4
EndChar
StartChar: thorn
Encoding: 254 254 1080
GlifName: thorn
Width: 1024
VWidth: 0
Flags: W
HStem: -16 120<500.004 690.093> 920 120<500.004 690.093> 1388 20G<256 384>
VStem: 256 128<-384 125 237.626 786.374 899 1408> 800 128<237.748 786.252>
LayerCount: 5
Back
Fore
SplineSet
592 104 m 0
 688 104 748 177 774 256 c 0
 799 332 800 420 800 512 c 0
 800 604 799 692 774 768 c 0
 748 847 688 920 592 920 c 0
 496 920 436 847 410 768 c 0
 385 692 384 604 384 512 c 0
 384 420 385 332 410 256 c 0
 436 177 496 104 592 104 c 0
612 -16 m 0
 529 -16 453 33 394 125 c 1
 384 125 l 1
 384 -384 l 1
 256 -384 l 1
 256 1408 l 1
 384 1408 l 1
 384 899 l 1
 394 899 l 1
 453 991 529 1040 612 1040 c 0
 743 1040 853 953 900 803 c 0
 928 713 928 624 928 512 c 0
 928 400 928 311 900 221 c 0
 853 71 743 -16 612 -16 c 0
EndSplineSet
Validated: 1
Layer: 2
Layer: 3
Layer: 4
EndChar
StartChar: ydieresis
Encoding: 255 255 1343
GlifName: ydieresis
Width: 1024
VWidth: 0
Flags: W
HStem: -272 120<256 438.125> 1004 20G<204 364.5 786 949> 1168 224<269.423 434.577 717.423 882.577>
VStem: 204 131<895.642 1024> 240 224<1197.42 1362.58> 688 224<1197.42 1362.58>
LayerCount: 5
Back
Fore
SplineSet
605 240 m 1xf4
 689 498 754 757 818 1024 c 1
 949 1024 l 1
 869 698 807 431 676 55 c 0
 640 -48 607 -143 546 -193 c 0
 491 -239 410 -272 256 -272 c 1
 256 -152 l 1
 338 -152 417 -138 452 -111 c 0
 500 -75 520 -12 569 128 c 1
 517 128 l 1
 360 413 273 720 204 1024 c 1
 335 1024 l 1
 394 754 470 486 595 240 c 1
 605 240 l 1xf4
800 1392 m 4
 866 1392 912 1346 912 1280 c 4
 912 1214 866 1168 800 1168 c 4
 734 1168 688 1214 688 1280 c 4
 688 1346 734 1392 800 1392 c 4
352 1392 m 4
 418 1392 464 1346 464 1280 c 4
 464 1214 418 1168 352 1168 c 4
 286 1168 240 1214 240 1280 c 4xec
 240 1346 286 1392 352 1392 c 4
EndSplineSet
Validated: 1
Layer: 2
Layer: 3
Layer: 4
EndChar
StartChar: Abreve
Encoding: 258 258 168
GlifName: A_breve
Width: 1024
VWidth: 0
Flags: W
HStem: 0 21G<103 243.5 908.5 1049> 388 120<314 838> 1388 20G<389 763> 1520 120<435.067 716.933>
VStem: 103 135<0 253.02> 236 128<1704.51 1792> 788 128<1704.51 1792> 914 135<0 253.803>
LayerCount: 5
Back
Fore
SplineSet
103 0 m 1xf9
 156 496 267 971 511 1408 c 1
 641 1408 l 1
 885 971 996 496 1049 0 c 1
 914 0 l 1
 903 136 883 265 859 388 c 1
 293 388 l 1
 274 265 249 136 238 0 c 1
 103 0 l 1xf9
838 508 m 1
 770 796 697 1054 581 1279 c 1
 571 1279 l 1
 455 1054 382 796 314 508 c 1
 838 508 l 1
788 1792 m 1xf6
 916 1792 l 1
 916 1624 764 1520 576 1520 c 0
 388 1520 236 1624 236 1792 c 1
 364 1792 l 1
 364 1706 433 1640 576 1640 c 0
 719 1640 788 1706 788 1792 c 1xf6
EndSplineSet
Validated: 1
Layer: 2
Layer: 3
Layer: 4
Substitution2: "'ss14' Style Set 14 lookup 14 subtable" Abreve.sq
EndChar
StartChar: Aogonek
Encoding: 260 260 164
GlifName: A_ogonek
Width: 1024
VWidth: 0
Flags: W
HStem: -350 120<911.904 1043> 0 21G<103 243.5> 388 120<314 838> 1388 20G<389 763>
VStem: 103 135<0 253.02> 780 121<-217.883 -88.5621>
LayerCount: 5
Back
Fore
SplineSet
979 -230 m 0
 1002 -230 1023 -229 1043 -225 c 1
 1043 -345 l 1
 1017 -349 989 -350 959 -350 c 0
 879 -350 780 -287 780 -185 c 0
 780 -97 850 -39 914 0 c 1
 903 136 883 265 859 388 c 1
 293 388 l 1
 274 265 249 136 238 0 c 1
 103 0 l 1
 156 496 267 971 511 1408 c 1
 641 1408 l 1
 885 971 996 496 1049 0 c 1
 947 -48 901 -90 901 -158 c 0
 901 -211 944 -230 979 -230 c 0
838 508 m 1
 770 796 697 1054 581 1279 c 1
 571 1279 l 1
 455 1054 382 796 314 508 c 1
 838 508 l 1
EndSplineSet
Validated: 1
Layer: 2
Layer: 3
Layer: 4
EndChar
StartChar: Ccircumflex
Encoding: 264 264 172
GlifName: C_circumflex
Width: 1024
VWidth: 0
Flags: W
HStem: -16 120<476.267 1018.69> 1304 120<469.826 988.93>
VStem: 112 128<375.367 1032.63>
LayerCount: 5
Back
Fore
SplineSet
1024 133 m 1
 1024 13 l 1
 913 -3 790 -16 663 -16 c 0
 367 -16 201 142 143 364 c 0
 114 478 112 594 112 704 c 0
 112 814 114 930 143 1044 c 0
 202 1266 359 1424 653 1424 c 0
 772 1424 888 1412 994 1395 c 1
 994 1275 l 1
 884 1292 762 1304 653 1304 c 0
 424 1304 313 1188 268 1016 c 0
 243 919 240 813 240 704 c 0
 240 595 243 489 268 392 c 0
 314 220 428 104 663 104 c 0
 779 104 909 117 1024 133 c 1
561 1792 m 1
 719 1792 l 1
 1016 1536 l 1
 858 1536 l 1
 640 1700 l 1
 422 1536 l 1
 264 1536 l 1
 561 1792 l 1
EndSplineSet
Validated: 1
Layer: 2
Layer: 3
Layer: 4
Substitution2: "'ss14' Style Set 14 lookup 14 subtable" Ccircumflex.sq
EndChar
StartChar: ccircumflex
Encoding: 265 265 173
GlifName: ccircumflex
Width: 1024
VWidth: 0
Flags: W
HStem: -16 120<471.858 891.341> 920 120<471.858 871.765> 1388 20G<473.797 678.203>
VStem: 224 128<240.24 783.76>
LayerCount: 5
Back
Fore
SplineSet
224 512 m 0
 224 633 226 738 267 831 c 0
 317 946 418 1040 606 1040 c 0
 709 1040 786 1032 876 1023 c 1
 876 903 l 1
 785 912 702 920 606 920 c 0
 486 920 427 872 387 789 c 0
 352 716 352 614 352 512 c 0
 352 410 352 308 387 235 c 0
 427 152 486 104 606 104 c 0
 701 104 796 115 896 130 c 1
 896 10 l 1
 797 -5 708 -16 606 -16 c 0
 418 -16 317 78 267 193 c 0
 226 286 224 391 224 512 c 0
497 1408 m 1
 655 1408 l 1
 952 1152 l 1
 794 1152 l 1
 576 1316 l 1
 358 1152 l 1
 200 1152 l 1
 497 1408 l 1
EndSplineSet
Validated: 1
Layer: 2
Layer: 3
Layer: 4
EndChar
StartChar: Cdotaccent
Encoding: 266 266 174
GlifName: C_dotaccent
Width: 1024
VWidth: 0
Flags: W
HStem: -16 120<476.267 1018.69> 1304 120<469.826 988.93> 1584 224<557.423 722.577>
VStem: 112 128<375.367 1032.63> 528 224<1613.42 1778.58>
LayerCount: 5
Back
Fore
SplineSet
1024 133 m 1
 1024 13 l 1
 913 -3 790 -16 663 -16 c 0
 367 -16 201 142 143 364 c 0
 114 478 112 594 112 704 c 0
 112 814 114 930 143 1044 c 0
 202 1266 359 1424 653 1424 c 0
 772 1424 888 1412 994 1395 c 1
 994 1275 l 1
 884 1292 762 1304 653 1304 c 0
 424 1304 313 1188 268 1016 c 0
 243 919 240 813 240 704 c 0
 240 595 243 489 268 392 c 0
 314 220 428 104 663 104 c 0
 779 104 909 117 1024 133 c 1
640 1808 m 0
 706 1808 752 1762 752 1696 c 0
 752 1630 706 1584 640 1584 c 0
 574 1584 528 1630 528 1696 c 0
 528 1762 574 1808 640 1808 c 0
EndSplineSet
Validated: 1
Layer: 2
Layer: 3
Layer: 4
Substitution2: "'ss14' Style Set 14 lookup 14 subtable" Cdotaccent.sq
EndChar
StartChar: Dcaron
Encoding: 270 270 178
GlifName: D_caron
Width: 1024
VWidth: 0
Flags: W
HStem: 0 120<256 664.842> 1288 120<256 664.842>
VStem: 128 128<120 1288> 912 128<396.93 1011.07>
LayerCount: 5
Back
Fore
SplineSet
474 1408 m 2
 717 1408 859 1306 943 1171 c 0
 1025 1040 1040 877 1040 704 c 0
 1040 531 1025 368 943 237 c 0
 859 102 717 0 474 0 c 2
 128 0 l 1
 128 1408 l 1
 474 1408 l 2
912 704 m 0
 912 888 893 1030 825 1126 c 0
 766 1210 670 1288 474 1288 c 2
 256 1288 l 1
 256 120 l 1
 474 120 l 2
 670 120 766 198 825 282 c 0
 893 378 912 520 912 704 c 0
497 1536 m 1
 200 1792 l 1
 358 1792 l 1
 576 1628 l 1
 794 1792 l 1
 952 1792 l 1
 655 1536 l 1
 497 1536 l 1
EndSplineSet
Validated: 1
Layer: 2
Layer: 3
Layer: 4
Substitution2: "'ss14' Style Set 14 lookup 14 subtable" Dcaron.sq
EndChar
StartChar: dcroat
Encoding: 273 273 181
GlifName: dcroat
Width: 1024
VWidth: 0
Flags: W
HStem: -16 120<453.158 651.56> 0 21G<768 896> 792 120<453.158 651.56> 1156 120<384 768 896 1024> 1388 20G<768 896>
VStem: 224 128<228.17 667.83> 768 128<0 125 227.581 668.419 771 1156 1276 1408>
LayerCount: 5
Back
Fore
SplineSet
768 0 m 1x7e
 768 125 l 1
 758 125 l 1
 703 40 627 -16 540 -16 c 0xbe
 459 -16 389 16 339 65 c 0
 255 148 224 275 224 448 c 0
 224 621 255 748 339 831 c 0
 389 880 459 912 540 912 c 0
 627 912 703 856 758 771 c 1
 768 771 l 1
 768 1156 l 1
 384 1156 l 1
 384 1276 l 1
 768 1276 l 1
 768 1408 l 1
 896 1408 l 1
 896 1276 l 1
 1024 1276 l 1
 1024 1156 l 1
 896 1156 l 1
 896 0 l 1
 768 0 l 1x7e
352 448 m 0
 352 315 371 211 437 150 c 0
 468 121 510 104 560 104 c 0
 610 104 652 121 683 150 c 0
 749 211 768 315 768 448 c 0
 768 581 749 685 683 746 c 0
 652 775 610 792 560 792 c 0
 510 792 468 775 437 746 c 0
 371 685 352 581 352 448 c 0
EndSplineSet
Validated: 1
Layer: 2
Layer: 3
Layer: 4
EndChar
StartChar: Ebreve
Encoding: 276 276 184
GlifName: E_breve
Width: 1024
VWidth: 0
Flags: W
HStem: 0 120<384 1024> 648 120<384 896> 1288 120<384 1024> 1520 120<435.067 716.933>
VStem: 236 128<1704.51 1792> 256 128<120 648 768 1288> 788 128<1704.51 1792>
LayerCount: 5
Back
Fore
SplineSet
256 1408 m 1xf6
 1024 1408 l 1
 1024 1288 l 1
 384 1288 l 1
 384 768 l 1
 896 768 l 1
 896 648 l 1
 384 648 l 1
 384 120 l 1
 1024 120 l 1
 1024 0 l 1
 256 0 l 1
 256 1408 l 1xf6
788 1792 m 1
 916 1792 l 1
 916 1624 764 1520 576 1520 c 0
 388 1520 236 1624 236 1792 c 1
 364 1792 l 1xfa
 364 1706 433 1640 576 1640 c 0
 719 1640 788 1706 788 1792 c 1
EndSplineSet
Validated: 1
Layer: 2
Layer: 3
Layer: 4
Substitution2: "'ss14' Style Set 14 lookup 14 subtable" Ebreve.sq
EndChar
StartChar: ebreve
Encoding: 277 277 185
GlifName: ebreve
Width: 1024
VWidth: 0
Flags: W
HStem: -16 120<469.07 891.106> 512 120<354 798> 920 120<452.408 699.592> 1136 120<435.067 716.933> 1388 20G<236 364 788 916>
VStem: 224 128<232.957 512 632 808.17> 236 128<1320.51 1408> 788 128<1320.51 1408> 798 130<632 812.653>
LayerCount: 5
Back
Fore
SplineSet
576 920 m 0xf880
 479 920 410 874 381 799 c 0
 360 751 357 693 354 632 c 1
 798 632 l 1
 795 693 792 751 771 799 c 0
 742 874 673 920 576 920 c 0xf880
576 1040 m 0
 738 1040 849 951 891 839 c 0
 927 747 928 637 928 512 c 1
 352 512 l 1
 352 410 352 308 384 235 c 0
 421 151 490 104 596 104 c 0
 689 104 791 113 896 125 c 1
 896 5 l 1
 792 -7 696 -16 596 -16 c 0
 422 -16 311 77 264 193 c 0
 226 286 224 391 224 512 c 0xfc80
 224 637 225 747 261 839 c 0
 303 951 414 1040 576 1040 c 0
788 1408 m 1xfb
 916 1408 l 1
 916 1240 764 1136 576 1136 c 0
 388 1136 236 1240 236 1408 c 1
 364 1408 l 1
 364 1322 433 1256 576 1256 c 0
 719 1256 788 1322 788 1408 c 1xfb
EndSplineSet
Validated: 1
Layer: 2
Layer: 3
Layer: 4
EndChar
StartChar: Edotaccent
Encoding: 278 278 186
GlifName: E_dotaccent
Width: 1024
VWidth: 0
Flags: W
HStem: 0 120<384 1024> 516 120<384 896> 1032 120<384 1024> 1328 224<493.423 658.577>
VStem: 256 128<120 516 636 1032> 464 224<1357.42 1522.58>
LayerCount: 5
Back
Fore
SplineSet
576 1552 m 0
 642 1552 688 1506 688 1440 c 0
 688 1374 642 1328 576 1328 c 0
 510 1328 464 1374 464 1440 c 0
 464 1506 510 1552 576 1552 c 0
256 1152 m 1
 1024 1152 l 1
 1024 1032 l 1
 384 1032 l 1
 384 636 l 1
 896 636 l 1
 896 516 l 1
 384 516 l 1
 384 120 l 1
 1024 120 l 1
 1024 0 l 1
 256 0 l 1
 256 1152 l 1
EndSplineSet
Validated: 1
Layer: 2
Layer: 3
Layer: 4
Substitution2: "'ss14' Style Set 14 lookup 14 subtable" Edotaccent.sq
EndChar
StartChar: edotaccent
Encoding: 279 279 187
GlifName: edotaccent
Width: 1024
VWidth: 0
Flags: W
HStem: -16 120<469.07 891.106> 512 120<354 798> 920 120<452.408 699.592> 1200 224<493.423 658.577>
VStem: 224 128<232.957 512 632 808.17> 464 224<1229.42 1394.58> 798 130<632 812.653>
LayerCount: 5
Back
Fore
SplineSet
576 920 m 0
 479 920 410 874 381 799 c 0
 360 751 357 693 354 632 c 1
 798 632 l 1
 795 693 792 751 771 799 c 0
 742 874 673 920 576 920 c 0
576 1040 m 0
 738 1040 849 951 891 839 c 0
 927 747 928 637 928 512 c 1
 352 512 l 1
 352 410 352 308 384 235 c 0
 421 151 490 104 596 104 c 0
 689 104 791 113 896 125 c 1
 896 5 l 1
 792 -7 696 -16 596 -16 c 0
 422 -16 311 77 264 193 c 0
 226 286 224 391 224 512 c 0
 224 637 225 747 261 839 c 0
 303 951 414 1040 576 1040 c 0
576 1424 m 0
 642 1424 688 1378 688 1312 c 0
 688 1246 642 1200 576 1200 c 0
 510 1200 464 1246 464 1312 c 0
 464 1378 510 1424 576 1424 c 0
EndSplineSet
Validated: 1
Layer: 2
Layer: 3
Layer: 4
EndChar
StartChar: eogonek
Encoding: 281 281 163
GlifName: eogonek
Width: 1024
VWidth: 0
Flags: W
HStem: -345 120<766.545 895.014> -16 120<469.07 819.345> 512 120<354 798> 920 120<452.408 699.592>
VStem: 224 128<232.957 512 632 808.17> 628 126<-211.969 -85.267> 798 130<632 812.653>
LayerCount: 5
Back
Fore
SplineSet
837 -225 m 0
 858 -225 878 -222 896 -213 c 1
 896 -334 l 1
 872 -343 845 -345 817 -345 c 0
 733 -345 628 -282 628 -180 c 0
 628 -102 688 -47 750 -8 c 1
 699 -13 648 -16 596 -16 c 0
 422 -16 311 77 264 193 c 0
 226 286 224 391 224 512 c 0
 224 637 225 747 261 839 c 0
 303 951 414 1040 576 1040 c 0
 738 1040 849 951 891 839 c 0
 927 747 928 637 928 512 c 1
 352 512 l 1
 352 410 352 308 384 235 c 0
 421 151 490 104 596 104 c 0
 689 104 791 113 896 125 c 1
 896 5 l 1
 798 -43 754 -85 754 -153 c 0
 754 -206 800 -225 837 -225 c 0
576 920 m 0
 479 920 410 874 381 799 c 0
 360 751 357 693 354 632 c 1
 798 632 l 1
 795 693 792 751 771 799 c 0
 742 874 673 920 576 920 c 0
EndSplineSet
Validated: 1
Layer: 2
SplineSet
352 512 m 5
 352 410 352 308 384 235 c 4
 420 152 485 104 586 104 c 4
 682 104 788 121 896 148 c 5
 896 25 l 5
 789 -1 689 -16 586 -16 c 4
 417 -16 311 78 264 193 c 4
 226 286 224 391 224 512 c 4
 224 633 226 734 264 829 c 4
 310 945 416 1040 576 1040 c 4
 736 1040 842 945 888 829 c 4
 926 734 928 633 928 512 c 5
 352 512 l 5
797 632 m 5
 794 690 786 744 768 789 c 4
 736 868 672 920 576 920 c 4
 480 920 416 868 384 789 c 4
 366 744 358 690 355 632 c 5
 797 632 l 5
EndSplineSet
Layer: 3
Layer: 4
EndChar
StartChar: Ecaron
Encoding: 282 282 188
GlifName: E_caron
Width: 1024
VWidth: 0
Flags: W
HStem: 0 120<384 1024> 648 120<384 896> 1288 120<384 1024>
VStem: 256 128<120 648 768 1288>
LayerCount: 5
Back
Fore
SplineSet
256 1408 m 1
 1024 1408 l 1
 1024 1288 l 1
 384 1288 l 1
 384 768 l 1
 896 768 l 1
 896 648 l 1
 384 648 l 1
 384 120 l 1
 1024 120 l 1
 1024 0 l 1
 256 0 l 1
 256 1408 l 1
497 1536 m 1
 200 1792 l 1
 358 1792 l 1
 576 1628 l 1
 794 1792 l 1
 952 1792 l 1
 655 1536 l 1
 497 1536 l 1
EndSplineSet
Validated: 1
Layer: 2
Layer: 3
Layer: 4
Substitution2: "'ss14' Style Set 14 lookup 14 subtable" Ecaron.sq
EndChar
StartChar: Gbreve
Encoding: 286 286 192
GlifName: G_breve
Width: 1024
VWidth: 0
Flags: W
HStem: -16 120<473.762 892.627> 648 120<640 896> 1304 120<485.768 969.539> 1520 120<499.067 780.933>
VStem: 112 128<375.367 1032.68> 300 128<1704.51 1792> 852 128<1704.51 1792> 896 128<122.662 648>
LayerCount: 5
Back
Fore
SplineSet
673 1424 m 0xfd
 778 1424 881 1415 974 1402 c 1
 974 1282 l 1
 877 1295 769 1304 673 1304 c 0
 443 1304 313 1189 268 1016 c 0
 243 919 240 813 240 704 c 0
 240 595 243 489 268 392 c 0
 312 220 430 104 643 104 c 0
 724 104 811 113 896 128 c 1
 896 648 l 1
 640 648 l 1
 640 768 l 1
 1024 768 l 1
 1024 34 l 1
 907 6 777 -16 643 -16 c 0
 366 -16 199 142 143 364 c 0
 114 478 112 594 112 704 c 0
 112 814 114 930 143 1044 c 0
 200 1267 379 1424 673 1424 c 0xfd
852 1792 m 1xfe
 980 1792 l 1
 980 1624 828 1520 640 1520 c 0
 452 1520 300 1624 300 1792 c 1
 428 1792 l 1
 428 1706 497 1640 640 1640 c 0
 783 1640 852 1706 852 1792 c 1xfe
EndSplineSet
Validated: 1
Layer: 2
Layer: 3
Layer: 4
Substitution2: "'ss14' Style Set 14 lookup 14 subtable" Gbreve.sq
EndChar
StartChar: gbreve
Encoding: 287 287 874
GlifName: gbreve
Width: 1024
VWidth: 0
Flags: W
HStem: -272 120<302.991 661.513> 112 120<453.158 651.56> 920 120<453.158 651.56> 1004 20G<768 896> 1136 120<435.067 716.933> 1388 20G<236 364 788 916>
VStem: 224 128<356.17 795.83> 236 128<1320.51 1408> 768 128<-30.9382 253 355.581 796.419 899 1024> 788 128<1320.51 1408>
LayerCount: 5
Back
Fore
SplineSet
352 576 m 0xee80
 352 443 371 339 437 278 c 0
 468 249 510 232 560 232 c 0
 610 232 652 249 683 278 c 0
 749 339 768 443 768 576 c 0
 768 709 749 813 683 874 c 0
 652 903 610 920 560 920 c 0
 510 920 468 903 437 874 c 0
 371 813 352 709 352 576 c 0xee80
768 253 m 1
 758 253 l 1
 703 168 627 112 540 112 c 0
 459 112 389 144 339 193 c 0
 255 276 224 403 224 576 c 0
 224 749 255 876 339 959 c 0
 389 1008 459 1040 540 1040 c 0xee80
 627 1040 703 984 758 899 c 1
 768 899 l 1
 768 1024 l 1
 896 1024 l 1xde80
 896 160 l 2
 896 100 896 -11 835 -113 c 0
 780 -205 684 -272 536 -272 c 0
 446 -272 364 -265 300 -257 c 1
 300 -137 l 1
 363 -144 447 -152 536 -152 c 0
 632 -152 687 -113 724 -54 c 0
 768 17 768 113 768 160 c 2
 768 253 l 1
788 1408 m 1xcd40
 916 1408 l 1
 916 1240 764 1136 576 1136 c 0
 388 1136 236 1240 236 1408 c 1
 364 1408 l 1
 364 1322 433 1256 576 1256 c 0
 719 1256 788 1322 788 1408 c 1xcd40
EndSplineSet
Validated: 1
Layer: 2
Layer: 3
Layer: 4
EndChar
StartChar: Gdotaccent
Encoding: 288 288 194
GlifName: G_dotaccent
Width: 1024
VWidth: 0
Flags: W
HStem: -16 120<473.762 892.627> 648 120<640 896> 1304 120<485.768 969.539> 1584 224<557.423 722.577>
VStem: 112 128<375.367 1032.68> 528 224<1613.42 1778.58> 896 128<122.662 648>
LayerCount: 5
Back
Fore
SplineSet
673 1424 m 0
 778 1424 881 1415 974 1402 c 1
 974 1282 l 1
 877 1295 769 1304 673 1304 c 0
 443 1304 313 1189 268 1016 c 0
 243 919 240 813 240 704 c 0
 240 595 243 489 268 392 c 0
 312 220 430 104 643 104 c 0
 724 104 811 113 896 128 c 1
 896 648 l 1
 640 648 l 1
 640 768 l 1
 1024 768 l 1
 1024 34 l 1
 907 6 777 -16 643 -16 c 0
 366 -16 199 142 143 364 c 0
 114 478 112 594 112 704 c 0
 112 814 114 930 143 1044 c 0
 200 1267 379 1424 673 1424 c 0
640 1808 m 0
 706 1808 752 1762 752 1696 c 0
 752 1630 706 1584 640 1584 c 0
 574 1584 528 1630 528 1696 c 0
 528 1762 574 1808 640 1808 c 0
EndSplineSet
Validated: 1
Layer: 2
Layer: 3
Layer: 4
Substitution2: "'ss14' Style Set 14 lookup 14 subtable" Gdotaccent.sq
EndChar
StartChar: gdotaccent
Encoding: 289 289 876
GlifName: gdotaccent
Width: 1024
VWidth: 0
Flags: W
HStem: -272 120<302.991 661.513> 112 120<453.158 651.56> 920 120<453.158 651.56> 1004 20G<768 896> 1200 224<493.423 658.577>
VStem: 224 128<356.17 795.83> 464 224<1229.42 1394.58> 768 128<-30.9382 253 355.581 796.419 899 1024>
LayerCount: 5
Back
Fore
SplineSet
352 576 m 0xef
 352 443 371 339 437 278 c 0
 468 249 510 232 560 232 c 0
 610 232 652 249 683 278 c 0
 749 339 768 443 768 576 c 0
 768 709 749 813 683 874 c 0
 652 903 610 920 560 920 c 0
 510 920 468 903 437 874 c 0
 371 813 352 709 352 576 c 0xef
768 253 m 1
 758 253 l 1
 703 168 627 112 540 112 c 0
 459 112 389 144 339 193 c 0
 255 276 224 403 224 576 c 0
 224 749 255 876 339 959 c 0
 389 1008 459 1040 540 1040 c 0xef
 627 1040 703 984 758 899 c 1
 768 899 l 1
 768 1024 l 1
 896 1024 l 1xdf
 896 160 l 2
 896 100 896 -11 835 -113 c 0
 780 -205 684 -272 536 -272 c 0
 446 -272 364 -265 300 -257 c 1
 300 -137 l 1
 363 -144 447 -152 536 -152 c 0
 632 -152 687 -113 724 -54 c 0
 768 17 768 113 768 160 c 2
 768 253 l 1
576 1424 m 0
 642 1424 688 1378 688 1312 c 0
 688 1246 642 1200 576 1200 c 0
 510 1200 464 1246 464 1312 c 0
 464 1378 510 1424 576 1424 c 0
EndSplineSet
Validated: 1
Layer: 2
Layer: 3
Layer: 4
EndChar
StartChar: uni0122
Encoding: 290 290 1115
GlifName: uni0122
Width: 1024
VWidth: 0
Flags: W
HStem: -403 120<515 611.793> -16 120<473.762 892.627> 648 120<640 896> 1304 120<485.768 969.539>
VStem: 112 128<375.367 1032.68> 643 128<-253.637 -131> 896 128<122.662 648>
LayerCount: 5
Back
Fore
SplineSet
673 1424 m 0
 778 1424 881 1415 974 1402 c 1
 974 1282 l 1
 877 1295 769 1304 673 1304 c 0
 443 1304 313 1189 268 1016 c 0
 243 919 240 813 240 704 c 0
 240 595 243 489 268 392 c 0
 312 220 430 104 643 104 c 0
 724 104 811 113 896 128 c 1
 896 648 l 1
 640 648 l 1
 640 768 l 1
 1024 768 l 1
 1024 34 l 1
 907 6 777 -16 643 -16 c 0
 366 -16 199 142 143 364 c 0
 114 478 112 594 112 704 c 0
 112 814 114 930 143 1044 c 0
 200 1267 379 1424 673 1424 c 0
719 -318 m 0
 678 -370 605 -403 515 -403 c 1
 515 -283 l 1
 562 -283 596 -271 615 -248 c 0
 643 -214 643 -176 643 -131 c 1
 686 -131 728 -131 771 -131 c 1
 771 -187 771 -252 719 -318 c 0
EndSplineSet
Validated: 1
Layer: 2
Layer: 3
Layer: 4
EndChar
StartChar: uni0123
Encoding: 291 291 1116
GlifName: uni0123
Width: 1024
VWidth: 0
Flags: W
HStem: -272 120<302.991 661.513> 112 120<453.158 651.56> 920 120<453.158 651.56> 1004 20G<768 896> 1432 120<550.665 640>
VStem: 224 128<356.17 795.83> 384 128<1152 1391.68> 768 128<-30.9382 253 355.581 796.419 899 1024>
LayerCount: 5
Back
Fore
SplineSet
352 576 m 0xef
 352 443 371 339 437 278 c 0
 468 249 510 232 560 232 c 0
 610 232 652 249 683 278 c 0
 749 339 768 443 768 576 c 0
 768 709 749 813 683 874 c 0
 652 903 610 920 560 920 c 0
 510 920 468 903 437 874 c 0
 371 813 352 709 352 576 c 0xef
768 253 m 1
 758 253 l 1
 703 168 627 112 540 112 c 0
 459 112 389 144 339 193 c 0
 255 276 224 403 224 576 c 0
 224 749 255 876 339 959 c 0
 389 1008 459 1040 540 1040 c 0xef
 627 1040 703 984 758 899 c 1
 768 899 l 1
 768 1024 l 1
 896 1024 l 1xdf
 896 160 l 2
 896 100 896 -11 835 -113 c 0
 780 -205 684 -272 536 -272 c 0
 446 -272 364 -265 300 -257 c 1
 300 -137 l 1
 363 -144 447 -152 536 -152 c 0
 632 -152 687 -113 724 -54 c 0
 768 17 768 113 768 160 c 2
 768 253 l 1
384 1257 m 6
 384 1317 384 1387 436 1457 c 4
 478 1514 550 1552 640 1552 c 5
 640 1432 l 5
 593 1432 561 1415 540 1387 c 4
 512 1350 512 1307 512 1257 c 6
 512 1152 l 5
 384 1152 l 5
 384 1257 l 6
EndSplineSet
Validated: 1
Layer: 2
Layer: 3
Layer: 4
EndChar
StartChar: Hcircumflex
Encoding: 292 292 219
GlifName: H_circumflex
Width: 1024
VWidth: 0
Flags: W
HStem: 0 21G<128 256 896 1024> 640 120<256 896> 1388 20G<128 256 896 1024>
VStem: 128 128<0 640 760 1408> 896 128<0 640 760 1408>
LayerCount: 5
Back
Fore
SplineSet
128 1408 m 1
 256 1408 l 1
 256 760 l 1
 896 760 l 1
 896 1408 l 1
 1024 1408 l 1
 1024 0 l 1
 896 0 l 1
 896 640 l 1
 256 640 l 1
 256 0 l 1
 128 0 l 1
 128 1408 l 1
497 1792 m 1
 655 1792 l 1
 952 1536 l 1
 794 1536 l 1
 576 1700 l 1
 358 1536 l 1
 200 1536 l 1
 497 1792 l 1
EndSplineSet
Validated: 1
Layer: 2
Layer: 3
Layer: 4
Substitution2: "'ss14' Style Set 14 lookup 14 subtable" Hcircumflex.sq
EndChar
StartChar: Itilde
Encoding: 296 296 223
GlifName: I_tilde
Width: 1024
VWidth: 0
Flags: W
HStem: 0 120<256 512 640 896> 1288 120<256 512 640 896> 1540 120<637.402 751.423> 1668 120<400.597 514.598>
VStem: 253 128<1561 1655.42> 512 128<120 1288> 771 128<1672.67 1767>
CounterMasks: 1 0e
LayerCount: 5
Back
Fore
SplineSet
896 1408 m 1
 896 1288 l 1
 640 1288 l 1
 640 120 l 1
 896 120 l 1
 896 0 l 1
 256 0 l 1
 256 120 l 1
 512 120 l 1
 512 1288 l 1
 256 1288 l 1
 256 1408 l 1
 896 1408 l 1
448 1668 m 0
 397 1668 384 1609 381 1555 c 1
 253 1561 l 1
 257 1679 319 1788 448 1788 c 0
 594 1788 627 1660 704 1660 c 0
 755 1660 768 1719 771 1773 c 1
 899 1767 l 1
 896 1651 833 1540 704 1540 c 0
 558 1540 525 1668 448 1668 c 0
EndSplineSet
Validated: 1
Layer: 2
Layer: 3
Layer: 4
Substitution2: "'ss14' Style Set 14 lookup 14 subtable" Itilde.sq
EndChar
StartChar: itilde
Encoding: 297 297 224
GlifName: itilde
Width: 1024
VWidth: 0
Flags: W
HStem: 0 21G<512 640> 904 120<256 512> 1156 120<637.402 751.423> 1284 120<400.597 514.598>
VStem: 253 128<1177 1271.42> 512 128<0 904> 771 128<1288.67 1383>
CounterMasks: 1 0e
LayerCount: 5
Back
Fore
SplineSet
512 0 m 1
 512 904 l 1
 256 904 l 1
 256 1024 l 1
 640 1024 l 1
 640 0 l 1
 512 0 l 1
448 1284 m 0
 397 1284 384 1225 381 1171 c 1
 253 1177 l 1
 257 1295 319 1404 448 1404 c 0
 594 1404 627 1276 704 1276 c 0
 755 1276 768 1335 771 1389 c 1
 899 1383 l 1
 896 1267 833 1156 704 1156 c 0
 558 1156 525 1284 448 1284 c 0
EndSplineSet
Validated: 1
Layer: 2
Layer: 3
Layer: 4
EndChar
StartChar: Imacron
Encoding: 298 298 226
GlifName: I_macron
Width: 1024
VWidth: 0
Flags: W
HStem: 0 120<256 512 640 896> 1288 120<256 512 640 896> 1540 120<256 896>
VStem: 512 128<120 1288>
LayerCount: 5
Back
Fore
SplineSet
896 1408 m 1
 896 1288 l 1
 640 1288 l 1
 640 120 l 1
 896 120 l 1
 896 0 l 1
 256 0 l 1
 256 120 l 1
 512 120 l 1
 512 1288 l 1
 256 1288 l 1
 256 1408 l 1
 896 1408 l 1
256 1660 m 1
 896 1660 l 1
 896 1540 l 1
 256 1540 l 1
 256 1660 l 1
EndSplineSet
Layer: 2
Layer: 3
Layer: 4
EndChar
StartChar: imacron
Encoding: 299 299 902
GlifName: imacron
Width: 1024
VWidth: 0
Flags: W
HStem: 0 21G<512 640> 904 120<256 512> 1156 120<256 896>
VStem: 512 128<0 904>
LayerCount: 5
Back
Fore
SplineSet
512 0 m 1
 512 904 l 1
 256 904 l 1
 256 1024 l 1
 640 1024 l 1
 640 0 l 1
 512 0 l 1
256 1276 m 1
 896 1276 l 1
 896 1156 l 1
 256 1156 l 1
 256 1276 l 1
EndSplineSet
Validated: 1
Layer: 2
Layer: 3
Layer: 4
EndChar
StartChar: Ibreve
Encoding: 300 300 227
GlifName: I_breve
Width: 1024
VWidth: 0
Flags: W
HStem: 0 120<256 512 640 896> 1288 120<256 512 640 896> 1520 120<435.067 716.933>
VStem: 236 128<1704.51 1792> 512 128<120 1288> 788 128<1704.51 1792>
CounterMasks: 1 1c
LayerCount: 5
Back
Fore
SplineSet
896 1408 m 1
 896 1288 l 1
 640 1288 l 1
 640 120 l 1
 896 120 l 1
 896 0 l 1
 256 0 l 1
 256 120 l 1
 512 120 l 1
 512 1288 l 1
 256 1288 l 1
 256 1408 l 1
 896 1408 l 1
788 1792 m 1
 916 1792 l 1
 916 1624 764 1520 576 1520 c 0
 388 1520 236 1624 236 1792 c 1
 364 1792 l 1
 364 1706 433 1640 576 1640 c 0
 719 1640 788 1706 788 1792 c 1
EndSplineSet
Validated: 1
Layer: 2
Layer: 3
Layer: 4
Substitution2: "'ss14' Style Set 14 lookup 14 subtable" Ibreve.sq
EndChar
StartChar: ibreve
Encoding: 301 301 899
GlifName: ibreve
Width: 1024
VWidth: 0
Flags: W
HStem: 0 21G<512 640> 904 120<256 512> 1136 120<435.067 716.933> 1388 20G<236 364 788 916>
VStem: 236 128<1320.51 1408> 512 128<0 904> 788 128<1320.51 1408>
CounterMasks: 1 0e
LayerCount: 5
Back
Fore
SplineSet
512 0 m 1
 512 904 l 1
 256 904 l 1
 256 1024 l 1
 640 1024 l 1
 640 0 l 1
 512 0 l 1
788 1408 m 1
 916 1408 l 1
 916 1240 764 1136 576 1136 c 0
 388 1136 236 1240 236 1408 c 1
 364 1408 l 1
 364 1322 433 1256 576 1256 c 0
 719 1256 788 1322 788 1408 c 1
EndSplineSet
Validated: 1
Layer: 2
Layer: 3
Layer: 4
EndChar
StartChar: Idotaccent
Encoding: 304 304 231
GlifName: I_dotaccent
Width: 1024
VWidth: 0
Flags: W
HStem: 0 120<256 512 640 896> 1288 120<256 512 640 896> 1584 224<493.423 658.577>
VStem: 464 224<1613.42 1778.58> 512 128<120 1288>
LayerCount: 5
Back
Fore
SplineSet
896 1408 m 1xe8
 896 1288 l 1
 640 1288 l 1
 640 120 l 1
 896 120 l 1
 896 0 l 1
 256 0 l 1
 256 120 l 1
 512 120 l 1
 512 1288 l 1
 256 1288 l 1
 256 1408 l 1
 896 1408 l 1xe8
576 1808 m 0
 642 1808 688 1762 688 1696 c 0
 688 1630 642 1584 576 1584 c 0
 510 1584 464 1630 464 1696 c 0xf0
 464 1762 510 1808 576 1808 c 0
EndSplineSet
Validated: 1
Layer: 2
Layer: 3
Layer: 4
Substitution2: "'ss14' Style Set 14 lookup 14 subtable" Idotaccent.sq
EndChar
StartChar: IJ
Encoding: 306 306 233
GlifName: I_J_
Width: 1024
VWidth: 0
Flags: W
HStem: -271 120<387.67 783.682> 0 120<128 256 384 512> 1160 120<128 256 384 512>
VStem: 128 384<0 120 1160 1280> 896 128<-21.8387 1280>
LayerCount: 5
Back
Fore
SplineSet
896 257 m 2
 896 1280 l 1
 1024 1280 l 1
 1024 257 l 2
 1024 140 1023 31 984 -62 c 0
 936 -176 834 -271 672 -271 c 0
 556 -271 463 -257 384 -247 c 1
 384 -126 l 1
 461 -137 561 -151 665 -151 c 0
 764 -151 828 -102 864 -20 c 0
 896 53 896 155 896 257 c 2
512 1280 m 1
 512 1160 l 1
 384 1160 l 1
 384 120 l 1
 512 120 l 1
 512 0 l 1
 128 0 l 1
 128 120 l 1
 256 120 l 1
 256 1160 l 1
 128 1160 l 1
 128 1280 l 1
 512 1280 l 1
EndSplineSet
Validated: 1
Layer: 2
Layer: 3
Layer: 4
EndChar
StartChar: ij
Encoding: 307 307 901
GlifName: ij
Width: 1024
VWidth: 0
Flags: W
HStem: -272 120<386.703 692.522> 0 21G<256 384> 904 120<128 256 640 768> 1200 224<205.423 370.577 717.423 882.577>
VStem: 176 224<1229.42 1394.58> 256 128<0 904> 688 224<1229.42 1394.58> 768 128<-75.5196 904>
LayerCount: 5
Back
Fore
SplineSet
384 -137 m 1xf5
 439 -145 508 -152 576 -152 c 0
 643 -152 693 -128 725 -90 c 0
 768 -38 768 26 768 114 c 2
 768 904 l 1
 640 904 l 1
 640 1024 l 1
 896 1024 l 1
 896 104 l 2
 896 13 896 -82 828 -164 c 0
 776 -227 692 -272 586 -272 c 0
 511 -272 444 -266 384 -257 c 1
 384 -137 l 1xf5
800 1424 m 0
 866 1424 912 1378 912 1312 c 0
 912 1246 866 1200 800 1200 c 0
 734 1200 688 1246 688 1312 c 0xf2
 688 1378 734 1424 800 1424 c 0
288 1424 m 0
 354 1424 400 1378 400 1312 c 0
 400 1246 354 1200 288 1200 c 0
 222 1200 176 1246 176 1312 c 0xf8
 176 1378 222 1424 288 1424 c 0
256 0 m 1xf4
 256 904 l 1
 128 904 l 1
 128 1024 l 1
 384 1024 l 1
 384 0 l 1
 256 0 l 1xf4
EndSplineSet
Validated: 1
Layer: 2
Layer: 3
Layer: 4
EndChar
StartChar: Jcircumflex
Encoding: 308 308 235
GlifName: J_circumflex
Width: 1024
VWidth: 0
Flags: W
HStem: -12 120<393.278 724.704> 1288 120<256 896>
VStem: 896 128<282.009 1288>
LayerCount: 5
Back
Fore
SplineSet
896 1288 m 1
 256 1288 l 1
 256 1408 l 1
 1024 1408 l 1
 1024 501 l 2
 1024 401 1024 269 926 144 c 0
 853 50 723 -12 565 -12 c 0
 387 -12 244 65 151 146 c 1
 225 241 l 1
 303 174 421 108 565 108 c 0
 680 108 772 151 824 217 c 0
 896 308 896 406 896 501 c 2
 896 1288 l 1
497 1792 m 1
 655 1792 l 1
 952 1536 l 1
 794 1536 l 1
 576 1700 l 1
 358 1536 l 1
 200 1536 l 1
 497 1792 l 1
EndSplineSet
Validated: 1
Layer: 2
Layer: 3
Layer: 4
Substitution2: "'ss14' Style Set 14 lookup 14 subtable" Jcircumflex.sq
EndChar
StartChar: jcircumflex
Encoding: 309 309 912
GlifName: jcircumflex
Width: 1024
VWidth: 0
Flags: W
HStem: -272 120<174.991 533.513> 904 120<384 640> 1388 20G<601.797 806.203>
VStem: 640 128<-30.9382 904>
LayerCount: 5
Back
Fore
SplineSet
640 160 m 2
 640 904 l 1
 384 904 l 1
 384 1024 l 1
 768 1024 l 1
 768 160 l 2
 768 100 768 -11 707 -113 c 0
 652 -205 556 -272 408 -272 c 0
 318 -272 236 -265 172 -257 c 1
 172 -137 l 1
 235 -144 319 -152 408 -152 c 0
 504 -152 559 -113 596 -54 c 0
 640 17 640 113 640 160 c 2
625 1408 m 1
 783 1408 l 1
 1080 1152 l 1
 922 1152 l 1
 704 1316 l 1
 486 1152 l 1
 328 1152 l 1
 625 1408 l 1
EndSplineSet
Validated: 1
Layer: 2
Layer: 3
Layer: 4
EndChar
StartChar: uni0136
Encoding: 310 310 1117
GlifName: uni0136
Width: 1024
VWidth: 0
Flags: W
HStem: -400 120<384 480.793> 0 21G<128 256 890.881 1062> 1388 20G<128 256 813.338 969>
VStem: 128 128<0 558 719 1408> 512 128<-250.637 -128>
LayerCount: 5
Back
Fore
SplineSet
256 0 m 1
 128 0 l 1
 128 1408 l 1
 256 1408 l 1
 256 719 l 1
 830 1408 l 1
 969 1408 l 1
 481 813 l 1
 1062 0 l 1
 905 0 l 1
 396 721 l 1
 256 558 l 1
 256 0 l 1
588 -315 m 0
 547 -367 474 -400 384 -400 c 1
 384 -280 l 1
 431 -280 465 -268 484 -245 c 0
 512 -211 512 -173 512 -128 c 1
 555 -128 597 -128 640 -128 c 1
 640 -184 640 -249 588 -315 c 0
EndSplineSet
Validated: 1
Layer: 2
Layer: 3
Layer: 4
EndChar
StartChar: uni0137
Encoding: 311 311 1118
GlifName: uni0137
Width: 1024
VWidth: 0
Flags: W
HStem: -400 120<384 480.793> 0 21G<256 384 833.964 1002> 1004 20G<774.569 955> 1388 20G<256 384>
VStem: 256 128<0 435 602 1408> 512 128<-250.637 -128>
LayerCount: 5
Back
Fore
SplineSet
384 0 m 1
 256 0 l 1
 256 1408 l 1
 384 1408 l 1
 384 602 l 1
 794 1024 l 1
 955 1024 l 1
 592 645 l 1
 1002 0 l 1
 846 0 l 1
 509 560 l 1
 384 435 l 1
 384 0 l 1
588 -315 m 0
 547 -367 474 -400 384 -400 c 1
 384 -280 l 1
 431 -280 465 -268 484 -245 c 0
 512 -211 512 -173 512 -128 c 1
 555 -128 597 -128 640 -128 c 1
 640 -184 640 -249 588 -315 c 0
EndSplineSet
Validated: 1
Layer: 2
Layer: 3
Layer: 4
EndChar
StartChar: Lacute
Encoding: 313 313 277
GlifName: L_acute
Width: 1024
VWidth: 0
Flags: W
HStem: 0 120<384 1024> 1388 20G<256 384>
VStem: 256 128<120 1408>
LayerCount: 5
Back
Fore
SplineSet
256 0 m 1
 256 1408 l 1
 384 1408 l 1
 384 120 l 1
 1024 120 l 1
 1024 0 l 1
 256 0 l 1
232 1536 m 1
 398 1792 l 1
 536 1792 l 1
 370 1536 l 1
 232 1536 l 1
EndSplineSet
Validated: 1
Layer: 2
Layer: 3
Layer: 4
Substitution2: "'ss14' Style Set 14 lookup 14 subtable" Lacute.sq
EndChar
StartChar: lacute
Encoding: 314 314 918
GlifName: lacute
Width: 1024
VWidth: 0
Flags: W
HStem: -16 120<677.032 896> 1388 20G<512 640>
VStem: 512 128<141.858 1408>
LayerCount: 5
Back
Fore
SplineSet
896 -11 m 1
 858 -13 813 -16 758 -16 c 0
 686 -16 627 9 585 52 c 0
 512 128 512 218 512 279 c 2
 512 1408 l 1
 640 1408 l 1
 640 279 l 2
 640 232 640 186 668 148 c 0
 688 121 719 104 768 104 c 0
 810 104 860 106 896 109 c 1
 896 -11 l 1
488 1536 m 1
 654 1792 l 1
 792 1792 l 1
 626 1536 l 1
 488 1536 l 1
EndSplineSet
Validated: 1
Layer: 2
Layer: 3
Layer: 4
EndChar
StartChar: uni013B
Encoding: 315 315 1119
GlifName: uni013B_
Width: 1024
VWidth: 0
Flags: W
HStem: -400 120<512 608.793> 0 120<384 1024> 1388 20G<256 384>
VStem: 256 128<120 1408> 640 128<-250.637 -128>
LayerCount: 5
Back
Fore
SplineSet
256 0 m 1
 256 1408 l 1
 384 1408 l 1
 384 120 l 1
 1024 120 l 1
 1024 0 l 1
 256 0 l 1
716 -315 m 0
 675 -367 602 -400 512 -400 c 1
 512 -280 l 1
 559 -280 593 -268 612 -245 c 0
 640 -211 640 -173 640 -128 c 1
 683 -128 725 -128 768 -128 c 1
 768 -184 768 -249 716 -315 c 0
EndSplineSet
Validated: 1
Layer: 2
Layer: 3
Layer: 4
EndChar
StartChar: uni013C
Encoding: 316 316 1120
GlifName: uni013C_
Width: 1024
VWidth: 0
Flags: W
HStem: -400 120<512 608.793> -16 120<677.032 896> 1388 20G<512 640>
VStem: 512 128<141.858 1408> 640 128<-250.637 -128>
LayerCount: 5
Back
Fore
SplineSet
896 -11 m 1xe8
 858 -13 813 -16 758 -16 c 0
 686 -16 627 9 585 52 c 0
 512 128 512 218 512 279 c 2
 512 1408 l 1
 640 1408 l 1
 640 279 l 2xf0
 640 232 640 186 668 148 c 0
 688 121 719 104 768 104 c 0
 810 104 860 106 896 109 c 1
 896 -11 l 1xe8
716 -315 m 0
 675 -367 602 -400 512 -400 c 1
 512 -280 l 1xf0
 559 -280 593 -268 612 -245 c 0
 640 -211 640 -173 640 -128 c 1
 683 -128 725 -128 768 -128 c 1xe8
 768 -184 768 -249 716 -315 c 0
EndSplineSet
Validated: 1
Layer: 2
Layer: 3
Layer: 4
EndChar
StartChar: Lcaron
Encoding: 317 317 275
GlifName: L_caron
Width: 1024
VWidth: 0
Flags: W
HStem: 0 120<384 1024> 1024 21G<768 896> 1388 20G<256 384 768 896>
VStem: 256 128<120 1408> 768 128<1024 1408>
LayerCount: 5
Back
Fore
SplineSet
256 0 m 1
 256 1408 l 1
 384 1408 l 1
 384 120 l 1
 1024 120 l 1
 1024 0 l 1
 256 0 l 1
768 1408 m 1
 896 1408 l 1
 896 1024 l 1
 768 1024 l 1
 768 1408 l 1
EndSplineSet
Validated: 1
Layer: 2
Layer: 3
Layer: 4
EndChar
StartChar: lcaron
Encoding: 318 318 276
GlifName: lcaron
Width: 1024
VWidth: 0
Flags: W
HStem: -16 120<549.032 768> 1024 21G<768 896> 1388 20G<384 512 768 896>
VStem: 384 128<141.858 1408> 768 128<1024 1408>
LayerCount: 5
Back
Fore
SplineSet
768 -11 m 1
 730 -13 685 -16 630 -16 c 0
 558 -16 499 9 457 52 c 0
 384 128 384 218 384 279 c 2
 384 1408 l 1
 512 1408 l 1
 512 279 l 2
 512 232 512 186 540 148 c 0
 560 121 591 104 640 104 c 0
 682 104 732 106 768 109 c 1
 768 -11 l 1
768 1408 m 1
 896 1408 l 1
 896 1024 l 1
 768 1024 l 1
 768 1408 l 1
EndSplineSet
Validated: 1
Layer: 2
Layer: 3
Layer: 4
EndChar
StartChar: ldot
Encoding: 320 320 920
GlifName: ldot
Width: 1024
VWidth: 0
Flags: W
HStem: -16 120<549.032 768> 720 224<749.423 914.577> 1388 20G<384 512>
VStem: 384 128<141.858 1408> 720 224<749.423 914.577>
LayerCount: 5
Back
Fore
SplineSet
768 -11 m 1
 730 -13 685 -16 630 -16 c 0
 558 -16 499 9 457 52 c 0
 384 128 384 218 384 279 c 2
 384 1408 l 1
 512 1408 l 1
 512 279 l 2
 512 232 512 186 540 148 c 0
 560 121 591 104 640 104 c 0
 682 104 732 106 768 109 c 1
 768 -11 l 1
832 944 m 0
 898 944 944 898 944 832 c 0
 944 766 898 720 832 720 c 0
 766 720 720 766 720 832 c 0
 720 898 766 944 832 944 c 0
EndSplineSet
Validated: 1
Layer: 2
Layer: 3
Layer: 4
EndChar
StartChar: lslash
Encoding: 322 322 934
GlifName: lslash
Width: 1024
VWidth: 0
Flags: W
HStem: -16 120<677.032 894.027> 1388 20G<512 640>
VStem: 512 128<141.858 523 765 1408>
LayerCount: 5
Back
SplineSet
896 -11 m 5
 858 -13 813 -16 758 -16 c 4
 686 -16 627 9 585 52 c 4
 512 128 512 218 512 279 c 6
 512 522.8 l 5
 256 340 l 5
 256 491 l 5
 512 673.8 l 5
 512 1408 l 5
 640 1408 l 5
 640 765.2 l 5
 896 948 l 5
 896 797 l 5
 640 614.2 l 5
 640 279 l 6
 640 232 640 186 668 148 c 4
 688 121 719 104 768 104 c 4
 810 104 860 106 896 109 c 5
 896 -11 l 5
EndSplineSet
Fore
SplineSet
512 674 m 1
 512 1408 l 1
 640 1408 l 1
 640 765 l 1
 860 922 l 1
 935 825 l 1
 640 614 l 1
 640 279 l 2
 640 232 640 186 668 148 c 0
 688 121 719 104 768 104 c 0
 805 104 855 113 896 121 c 1
 896 -2 l 1
 853 -9 808 -16 758 -16 c 0
 686 -16 627 9 585 52 c 0
 512 128 512 218 512 279 c 2
 512 523 l 1
 292 366 l 1
 222 467 l 1
 512 674 l 1
EndSplineSet
Validated: 1
Layer: 2
Layer: 3
Layer: 4
EndChar
StartChar: uni0145
Encoding: 325 325 1121
GlifName: uni0145
Width: 1024
VWidth: 0
Flags: W
HStem: -400 120<384 480.793> 0 21G<128 256 885.119 1024> 1388 20G<128 265.898 896 1024>
VStem: 128 128<0 1158> 512 128<-250.637 -128> 896 128<250 1408>
CounterMasks: 1 1c
LayerCount: 5
Back
Fore
SplineSet
256 0 m 1
 128 0 l 1
 128 1408 l 1
 255 1408 l 1
 886 250 l 1
 896 250 l 1
 896 1408 l 1
 1024 1408 l 1
 1024 0 l 1
 896 0 l 1
 266 1158 l 1
 256 1158 l 1
 256 0 l 1
588 -315 m 0
 547 -367 474 -400 384 -400 c 1
 384 -280 l 1
 431 -280 465 -268 484 -245 c 0
 512 -211 512 -173 512 -128 c 1
 555 -128 597 -128 640 -128 c 1
 640 -184 640 -249 588 -315 c 0
EndSplineSet
Validated: 1
Layer: 2
Layer: 3
Layer: 4
EndChar
StartChar: uni0146
Encoding: 326 326 1122
GlifName: uni0146
Width: 1024
VWidth: 0
Flags: W
HStem: -400 120<384 480.793> 0 21G<256 384 768 896> 920 120<488.173 688.755> 1004 20G<256 384>
VStem: 256 128<0 843.099 912 1024> 512 128<-250.637 -128> 768 128<0 841.255>
CounterMasks: 1 0e
LayerCount: 5
Back
Fore
SplineSet
596 1040 m 0xee
 696 1040 777 995 827 933 c 0
 896 847 896 751 896 657 c 2
 896 0 l 1
 768 0 l 1
 768 657 l 2
 768 744 768 806 723 858 c 0
 691 895 640 920 576 920 c 0xee
 512 920 461 895 429 858 c 0
 384 806 384 744 384 657 c 2
 384 0 l 1
 256 0 l 1
 256 1024 l 1
 384 1024 l 1xde
 384 912 l 1
 394 912 l 1
 443 989 520 1040 596 1040 c 0xee
588 -315 m 0
 547 -367 474 -400 384 -400 c 1
 384 -280 l 1
 431 -280 465 -268 484 -245 c 0
 512 -211 512 -173 512 -128 c 1
 555 -128 597 -128 640 -128 c 1
 640 -184 640 -249 588 -315 c 0
EndSplineSet
Validated: 1
Layer: 2
Layer: 3
Layer: 4
EndChar
StartChar: Ncaron
Encoding: 327 327 241
GlifName: N_caron
Width: 1024
VWidth: 0
Flags: W
HStem: 0 21G<128 256 885.119 1024> 1388 20G<128 265.898 896 1024>
VStem: 128 128<0 1158> 896 128<250 1408>
LayerCount: 5
Back
Fore
SplineSet
256 0 m 1
 128 0 l 1
 128 1408 l 1
 255 1408 l 1
 886 250 l 1
 896 250 l 1
 896 1408 l 1
 1024 1408 l 1
 1024 0 l 1
 896 0 l 1
 266 1158 l 1
 256 1158 l 1
 256 0 l 1
497 1536 m 1
 200 1792 l 1
 358 1792 l 1
 576 1628 l 1
 794 1792 l 1
 952 1792 l 1
 655 1536 l 1
 497 1536 l 1
EndSplineSet
Validated: 1
Layer: 2
Layer: 3
Layer: 4
Substitution2: "'ss14' Style Set 14 lookup 14 subtable" Ncaron.sq
EndChar
StartChar: obreve
Encoding: 335 335 956
GlifName: obreve
Width: 1024
VWidth: 0
Flags: W
HStem: -16 120<459.685 692.315> 920 120<459.685 692.315> 1136 120<435.067 716.933> 1388 20G<236 364 788 916>
VStem: 224 128<233.791 790.209> 236 128<1320.51 1408> 788 128<1320.51 1408> 800 128<233.791 790.209>
LayerCount: 5
Back
Fore
SplineSet
576 1040 m 0xf9
 703 1040 802 978 863 880 c 0
 919 788 928 662 928 512 c 0
 928 362 919 236 863 144 c 0
 802 46 703 -16 576 -16 c 0
 449 -16 350 46 289 144 c 0
 233 236 224 362 224 512 c 0
 224 662 233 788 289 880 c 0
 350 978 449 1040 576 1040 c 0xf9
576 920 m 0
 492 920 435 881 400 822 c 0
 354 744 352 629 352 512 c 0
 352 395 354 280 400 202 c 0
 435 143 492 104 576 104 c 0
 660 104 717 143 752 202 c 0
 798 280 800 395 800 512 c 0
 800 629 798 744 752 822 c 0
 717 881 660 920 576 920 c 0
788 1408 m 1xf6
 916 1408 l 1
 916 1240 764 1136 576 1136 c 0
 388 1136 236 1240 236 1408 c 1
 364 1408 l 1
 364 1322 433 1256 576 1256 c 0
 719 1256 788 1322 788 1408 c 1xf6
EndSplineSet
Validated: 1
Layer: 2
Layer: 3
Layer: 4
EndChar
StartChar: ohungarumlaut
Encoding: 337 337 959
GlifName: ohungarumlaut
Width: 1024
VWidth: 0
Flags: W
HStem: -16 120<459.685 692.315> 920 120<459.685 692.315> 1388 20G<449.031 600 833.031 984>
VStem: 224 128<233.791 790.209> 800 128<233.791 790.209>
LayerCount: 5
Back
Fore
SplineSet
576 1040 m 0
 703 1040 802 978 863 880 c 0
 919 788 928 662 928 512 c 0
 928 362 919 236 863 144 c 0
 802 46 703 -16 576 -16 c 0
 449 -16 350 46 289 144 c 0
 233 236 224 362 224 512 c 0
 224 662 233 788 289 880 c 0
 350 978 449 1040 576 1040 c 0
576 920 m 0
 492 920 435 881 400 822 c 0
 354 744 352 629 352 512 c 0
 352 395 354 280 400 202 c 0
 435 143 492 104 576 104 c 0
 660 104 717 143 752 202 c 0
 798 280 800 395 800 512 c 0
 800 629 798 744 752 822 c 0
 717 881 660 920 576 920 c 0
680 1152 m 1
 846 1408 l 1
 984 1408 l 1
 818 1152 l 1
 680 1152 l 1
296 1152 m 1
 462 1408 l 1
 600 1408 l 1
 434 1152 l 1
 296 1152 l 1
EndSplineSet
Validated: 1
Layer: 2
Layer: 3
Layer: 4
EndChar
StartChar: racute
Encoding: 341 341 1008
GlifName: racute
Width: 1024
VWidth: 0
Flags: W
HStem: 0 21G<256 384> 920 120<559.204 893.328> 1004 20G<256 384> 1388 20G<641.031 792>
VStem: 256 128<0 724.349 865 1024>
LayerCount: 5
Back
Fore
SplineSet
716 920 m 0xd8
 624 920 552 894 501 847 c 0
 384 740 384 589 384 475 c 2
 384 0 l 1
 256 0 l 1
 256 1024 l 1
 384 1024 l 1xb8
 384 865 l 1
 394 865 l 1
 469 967 561 1040 716 1040 c 0
 782 1040 839 1034 896 1027 c 1
 896 907 l 1
 839 914 781 920 716 920 c 0xd8
488 1152 m 1
 654 1408 l 1
 792 1408 l 1
 626 1152 l 1
 488 1152 l 1
EndSplineSet
Validated: 1
Layer: 2
Layer: 3
Layer: 4
EndChar
StartChar: uni0156
Encoding: 342 342 1123
GlifName: uni0156
Width: 1024
VWidth: 0
Flags: W
HStem: -400 120<512 608.793> 0 21G<256 384 920.073 1065> 520 120<384 689.19> 1288 120<384 742.904>
VStem: 256 128<0 520 640 1288> 640 128<-250.637 -128> 912 128<811.269 1116.73>
LayerCount: 5
Back
Fore
SplineSet
912 964 m 0
 912 1072 868 1161 805 1215 c 0
 721 1288 615 1288 533 1288 c 2
 384 1288 l 1
 384 640 l 1
 533 640 l 2
 615 640 721 641 805 713 c 0
 868 767 912 856 912 964 c 0
533 1408 m 2
 624 1408 772 1408 891 1303 c 0
 977 1227 1040 1111 1040 964 c 0
 1040 817 977 701 891 625 c 0
 866 603 840 586 813 572 c 1
 1065 0 l 1
 929 0 l 1
 692 531 l 1
 632 520 576 520 533 520 c 2
 384 520 l 1
 384 0 l 1
 256 0 l 1
 256 1408 l 1
 533 1408 l 2
716 -315 m 0
 675 -367 602 -400 512 -400 c 1
 512 -280 l 1
 559 -280 593 -268 612 -245 c 0
 640 -211 640 -173 640 -128 c 1
 683 -128 725 -128 768 -128 c 1
 768 -184 768 -249 716 -315 c 0
EndSplineSet
Validated: 1
Layer: 2
Layer: 3
Layer: 4
EndChar
StartChar: uni0157
Encoding: 343 343 1124
GlifName: uni0157
Width: 1024
VWidth: 0
Flags: W
HStem: -400 120<256 352.793> 0 21G<256 384> 920 120<559.204 893.328> 1004 20G<256 384>
VStem: 256 128<0 724.349 865 1024> 384 128<-250.637 -128>
LayerCount: 5
Back
Fore
SplineSet
716 920 m 0xe8
 624 920 552 894 501 847 c 0
 384 740 384 589 384 475 c 2
 384 0 l 1
 256 0 l 1
 256 1024 l 1
 384 1024 l 1xd8
 384 865 l 1
 394 865 l 1
 469 967 561 1040 716 1040 c 0
 782 1040 839 1034 896 1027 c 1
 896 907 l 1
 839 914 781 920 716 920 c 0xe8
460 -315 m 0
 419 -367 346 -400 256 -400 c 1
 256 -280 l 1xc8
 303 -280 337 -268 356 -245 c 0
 384 -211 384 -173 384 -128 c 1
 427 -128 469 -128 512 -128 c 1xc4
 512 -184 512 -249 460 -315 c 0
EndSplineSet
Validated: 1
Layer: 2
Layer: 3
Layer: 4
EndChar
StartChar: rcaron
Encoding: 345 345 259
GlifName: rcaron
Width: 1024
VWidth: 0
Flags: W
HStem: 0 21G<256 384> 920 120<559.204 893.328> 1004 20G<256 384> 1388 20G<200 384.585 767.415 952>
VStem: 256 128<0 724.349 865 1024>
LayerCount: 5
Back
Fore
SplineSet
716 920 m 0xd8
 624 920 552 894 501 847 c 0
 384 740 384 589 384 475 c 2
 384 0 l 1
 256 0 l 1
 256 1024 l 1
 384 1024 l 1xb8
 384 865 l 1
 394 865 l 1
 469 967 561 1040 716 1040 c 0
 782 1040 839 1034 896 1027 c 1
 896 907 l 1
 839 914 781 920 716 920 c 0xd8
497 1152 m 1
 200 1408 l 1
 358 1408 l 1
 576 1244 l 1
 794 1408 l 1
 952 1408 l 1
 655 1152 l 1
 497 1152 l 1
EndSplineSet
Validated: 1
Layer: 2
Layer: 3
Layer: 4
EndChar
StartChar: sacute
Encoding: 347 347 1031
GlifName: sacute
Width: 1024
VWidth: 0
Flags: W
HStem: -16 120<260.105 706.472> 920 120<428.599 881.877> 1388 20G<641.031 792>
VStem: 234 128<691.14 859.623> 800 128<195.819 419.058>
LayerCount: 5
Back
Fore
SplineSet
567 -16 m 0
 464 -16 345 -4 256 6 c 1
 256 126 l 1
 341 116 470 104 567 104 c 0
 755 104 800 228 800 308 c 0
 800 390 757 449 700 478 c 0
 614 522 507 499 402 540 c 0
 318 573 234 655 234 776 c 0
 234 913 343 1040 572 1040 c 0
 689 1040 799 1028 886 1019 c 1
 886 899 l 1
 798 908 675 920 572 920 c 0
 410 920 362 842 362 776 c 0
 362 713 404 670 450 652 c 0
 543 616 654 640 762 584 c 0
 855 536 928 438 928 308 c 0
 928 145 810 -16 567 -16 c 0
488 1152 m 1
 654 1408 l 1
 792 1408 l 1
 626 1152 l 1
 488 1152 l 1
EndSplineSet
Validated: 1
Layer: 2
Layer: 3
Layer: 4
EndChar
StartChar: Scaron
Encoding: 352 352 266
GlifName: S_caron
Width: 1024
VWidth: 0
Flags: W
HStem: -16 120<260.808 779.079> 1304 120<483.228 984.716>
VStem: 226 128<912.314 1176.61> 926 128<246.8 518.189>
LayerCount: 5
Back
Fore
SplineSet
620 -16 m 0
 486 -16 366 -2 250 16 c 1
 250 139 l 1
 364 121 492 104 620 104 c 0
 809 104 926 213 926 385 c 0
 926 483 878 567 800 613 c 0
 705 668 583 651 465 694 c 0
 324 745 226 867 226 1045 c 0
 226 1261 385 1424 620 1424 c 0
 756 1424 877 1411 990 1399 c 1
 990 1278 l 1
 878 1290 745 1304 620 1304 c 0
 455 1304 354 1191 354 1045 c 0
 354 936 406 858 482 819 c 0
 581 768 729 789 850 725 c 0
 972 661 1054 536 1054 385 c 0
 1054 147 879 -16 620 -16 c 0
497 1536 m 1
 200 1792 l 1
 358 1792 l 1
 576 1628 l 1
 794 1792 l 1
 952 1792 l 1
 655 1536 l 1
 497 1536 l 1
EndSplineSet
Validated: 1
Layer: 2
Layer: 3
Layer: 4
Substitution2: "'ss14' Style Set 14 lookup 14 subtable" Scaron.sq
EndChar
StartChar: scaron
Encoding: 353 353 267
GlifName: scaron
Width: 1024
VWidth: 0
Flags: W
HStem: -16 120<260.105 706.472> 920 120<428.599 881.877> 1388 20G<200 384.585 767.415 952>
VStem: 234 128<691.14 859.623> 800 128<195.819 419.058>
LayerCount: 5
Back
Fore
SplineSet
567 -16 m 0
 464 -16 345 -4 256 6 c 1
 256 126 l 1
 341 116 470 104 567 104 c 0
 755 104 800 228 800 308 c 0
 800 390 757 449 700 478 c 0
 614 522 507 499 402 540 c 0
 318 573 234 655 234 776 c 0
 234 913 343 1040 572 1040 c 0
 689 1040 799 1028 886 1019 c 1
 886 899 l 1
 798 908 675 920 572 920 c 0
 410 920 362 842 362 776 c 0
 362 713 404 670 450 652 c 0
 543 616 654 640 762 584 c 0
 855 536 928 438 928 308 c 0
 928 145 810 -16 567 -16 c 0
497 1152 m 1
 200 1408 l 1
 358 1408 l 1
 576 1244 l 1
 794 1408 l 1
 952 1408 l 1
 655 1152 l 1
 497 1152 l 1
EndSplineSet
Validated: 1
Layer: 2
Layer: 3
Layer: 4
EndChar
StartChar: uni0162
Encoding: 354 354 1125
GlifName: uni0162
Width: 1024
VWidth: 0
Flags: W
HStem: -272 120<256 473.418> 1288 120<128 512 640 1024>
VStem: 512 128<-111.68 1288>
LayerCount: 5
Back
Fore
SplineSet
640 23 m 2
 640 -37 640 -107 588 -177 c 0
 546 -234 474 -272 384 -272 c 0
 349 -272 303 -269 256 -265 c 1
 256 -145 l 1
 304 -149 350 -152 384 -152 c 0
 431 -152 463 -135 484 -107 c 0
 512 -70 512 -27 512 23 c 2
 512 1288 l 1
 128 1288 l 1
 128 1408 l 1
 1024 1408 l 1
 1024 1288 l 1
 640 1288 l 1
 640 23 l 2
EndSplineSet
Validated: 1
Layer: 2
Layer: 3
Layer: 4
EndChar
StartChar: uni0163
Encoding: 355 355 1126
GlifName: uni0163
Width: 1024
VWidth: 0
Flags: W
HStem: -273 120<386.225 601.418> 898 126<128 384 512 896>
VStem: 384 128<180.946 898 1024 1280> 640 128<-106.638 -11.713>
LayerCount: 5
Back
Fore
SplineSet
640 -11 m 1
 560 2 494 41 452 92 c 0
 384 174 384 271 384 360 c 2
 384 898 l 1
 128 898 l 1
 128 1024 l 1
 384 1024 l 1
 384 1280 l 1
 512 1280 l 1
 512 1024 l 1
 896 1024 l 1
 896 898 l 1
 512 898 l 1
 512 370 l 2
 512 284 512 218 555 166 c 0
 588 127 643 104 714 104 c 0
 778 104 844 112 896 119 c 1
 896 -1 l 1
 857 -7 814 -11 768 -14 c 1
 766 -65 758 -122 716 -178 c 0
 674 -235 602 -273 512 -273 c 0
 477 -273 431 -266 384 -256 c 1
 384 -133 l 1
 432 -144 478 -153 512 -153 c 0
 559 -153 591 -136 612 -108 c 0
 634 -79 639 -47 640 -11 c 1
EndSplineSet
Validated: 1
Layer: 2
Layer: 3
Layer: 4
EndChar
StartChar: Tcaron
Encoding: 356 356 285
GlifName: T_caron
Width: 1024
VWidth: 0
Flags: W
HStem: 0 21G<512 640> 1288 120<128 512 640 1024>
VStem: 512 128<0 1288>
LayerCount: 5
Back
Fore
SplineSet
1024 1408 m 1
 1024 1288 l 1
 640 1288 l 1
 640 0 l 1
 512 0 l 1
 512 1288 l 1
 128 1288 l 1
 128 1408 l 1
 1024 1408 l 1
497 1536 m 1
 200 1792 l 1
 358 1792 l 1
 576 1628 l 1
 794 1792 l 1
 952 1792 l 1
 655 1536 l 1
 497 1536 l 1
EndSplineSet
Validated: 1
Layer: 2
Layer: 3
Layer: 4
Substitution2: "'ss14' Style Set 14 lookup 14 subtable" Tcaron.sq
EndChar
StartChar: tcaron
Encoding: 357 357 1073
GlifName: tcaron
Width: 1024
VWidth: 0
Flags: W
HStem: -16 120<588.916 893.438> 770 126<128 384 512 896>
VStem: 384 128<180.946 770 896 1280> 768 128<1152 1536>
LayerCount: 5
Back
Fore
SplineSet
896 -1 m 1
 839 -9 775 -16 704 -16 c 0
 594 -16 505 28 452 92 c 0
 384 174 384 271 384 360 c 2
 384 770 l 1
 128 770 l 1
 128 896 l 1
 384 896 l 1
 384 1280 l 1
 512 1280 l 1
 512 896 l 1
 896 896 l 1
 896 770 l 1
 512 770 l 1
 512 370 l 2
 512 284 512 218 555 166 c 0
 588 127 643 104 714 104 c 0
 778 104 844 112 896 119 c 1
 896 -1 l 1
768 1536 m 1
 896 1536 l 1
 896 1152 l 1
 768 1152 l 1
 768 1536 l 1
EndSplineSet
Validated: 1
Layer: 2
Layer: 3
Layer: 4
EndChar
StartChar: Utilde
Encoding: 360 360 196
GlifName: U_tilde
Width: 1024
VWidth: 0
Flags: W
HStem: -16 120<426.462 725.475> 1388 20G<128 256 896 1024> 1540 120<637.402 751.423> 1668 120<400.597 514.598>
VStem: 128 128<277.329 1408> 253 128<1561 1655.42> 771 128<1672.67 1767> 896 128<277.329 1408>
LayerCount: 5
Back
Fore
SplineSet
128 1408 m 1xf9
 256 1408 l 1
 256 512 l 2
 256 437 256 378 268 330 c 0
 301 196 416 104 576 104 c 0
 736 104 851 196 884 330 c 0
 896 378 896 437 896 512 c 2
 896 1408 l 1
 1024 1408 l 1
 1024 512 l 2
 1024 426 1024 371 1008 303 c 0
 964 118 797 -16 576 -16 c 0
 355 -16 187 118 144 303 c 0
 128 371 128 426 128 512 c 2
 128 1408 l 1xf9
448 1668 m 0
 397 1668 384 1609 381 1555 c 1
 253 1561 l 1
 257 1679 319 1788 448 1788 c 0
 594 1788 627 1660 704 1660 c 0
 755 1660 768 1719 771 1773 c 1
 899 1767 l 1xf6
 896 1651 833 1540 704 1540 c 0
 558 1540 525 1668 448 1668 c 0
EndSplineSet
Validated: 1
Layer: 2
Layer: 3
Layer: 4
Substitution2: "'ss14' Style Set 14 lookup 14 subtable" Utilde.sq
EndChar
StartChar: utilde
Encoding: 361 361 1322
GlifName: utilde
Width: 1024
VWidth: 0
Flags: W
HStem: -16 120<463.245 663.827> 0 21G<768 896> 1004 20G<256 384 768 896> 1156 120<637.402 751.423> 1284 120<400.597 514.598>
VStem: 256 128<182.745 1024 1177 1272.2> 768 128<0 112 180.901 1024 1288.67 1383>
LayerCount: 5
Back
Fore
SplineSet
556 -16 m 0xbe
 456 -16 375 29 325 91 c 0
 256 177 256 273 256 367 c 2
 256 1024 l 1
 384 1024 l 1
 384 367 l 2
 384 280 384 218 429 166 c 0
 461 129 512 104 576 104 c 0xbe
 640 104 691 129 723 166 c 0
 768 218 768 280 768 367 c 2
 768 1024 l 1
 896 1024 l 1
 896 0 l 1
 768 0 l 1x7e
 768 112 l 1
 758 112 l 1
 709 35 632 -16 556 -16 c 0xbe
448 1284 m 0
 397 1284 384 1225 381 1171 c 1
 253 1177 l 1
 257 1295 319 1404 448 1404 c 0
 594 1404 627 1276 704 1276 c 0
 755 1276 768 1335 771 1389 c 1
 899 1383 l 1
 896 1267 833 1156 704 1156 c 0
 558 1156 525 1284 448 1284 c 0
EndSplineSet
Validated: 1
Layer: 2
Layer: 3
Layer: 4
EndChar
StartChar: Umacron
Encoding: 362 362 198
GlifName: U_macron
Width: 1024
VWidth: 0
Flags: W
HStem: -16 120<426.462 725.475> 1388 20G<128 256 896 1024> 1540 120<256 896>
VStem: 128 128<277.329 1408> 896 128<277.329 1408>
LayerCount: 5
Back
Fore
SplineSet
128 1408 m 1
 256 1408 l 1
 256 512 l 2
 256 437 256 378 268 330 c 0
 301 196 416 104 576 104 c 0
 736 104 851 196 884 330 c 0
 896 378 896 437 896 512 c 2
 896 1408 l 1
 1024 1408 l 1
 1024 512 l 2
 1024 426 1024 371 1008 303 c 0
 964 118 797 -16 576 -16 c 0
 355 -16 187 118 144 303 c 0
 128 371 128 426 128 512 c 2
 128 1408 l 1
256 1660 m 1
 896 1660 l 1
 896 1540 l 1
 256 1540 l 1
 256 1660 l 1
EndSplineSet
Validated: 1
Layer: 2
Layer: 3
Layer: 4
Substitution2: "'ss14' Style Set 14 lookup 14 subtable" Umacron.sq
EndChar
StartChar: Ubreve
Encoding: 364 364 200
GlifName: U_breve
Width: 1024
VWidth: 0
Flags: W
HStem: -16 120<426.462 725.475> 1388 20G<128 256 896 1024> 1520 120<435.067 716.933>
VStem: 128 128<277.329 1408> 236 128<1704.51 1792> 788 128<1704.51 1792> 896 128<277.329 1408>
LayerCount: 5
Back
Fore
SplineSet
128 1408 m 1xf2
 256 1408 l 1
 256 512 l 2
 256 437 256 378 268 330 c 0
 301 196 416 104 576 104 c 0
 736 104 851 196 884 330 c 0
 896 378 896 437 896 512 c 2
 896 1408 l 1
 1024 1408 l 1
 1024 512 l 2
 1024 426 1024 371 1008 303 c 0
 964 118 797 -16 576 -16 c 0
 355 -16 187 118 144 303 c 0
 128 371 128 426 128 512 c 2
 128 1408 l 1xf2
788 1792 m 1xec
 916 1792 l 1
 916 1624 764 1520 576 1520 c 0
 388 1520 236 1624 236 1792 c 1
 364 1792 l 1
 364 1706 433 1640 576 1640 c 0
 719 1640 788 1706 788 1792 c 1xec
EndSplineSet
Validated: 1
Layer: 2
Layer: 3
Layer: 4
Substitution2: "'ss14' Style Set 14 lookup 14 subtable" Ubreve.sq
EndChar
StartChar: ubreve
Encoding: 365 365 201
GlifName: ubreve
Width: 1024
VWidth: 0
Flags: W
HStem: -16 120<463.245 663.827> 0 21G<768 896> 1004 20G<256 384 768 896> 1136 120<435.067 716.933> 1388 20G<236 364 788 916>
VStem: 236 128<1320.51 1408> 256 128<182.745 1024> 768 128<0 112 180.901 1024> 788 128<1320.51 1408>
LayerCount: 5
Back
Fore
SplineSet
556 -16 m 0xbb
 456 -16 375 29 325 91 c 0
 256 177 256 273 256 367 c 2
 256 1024 l 1
 384 1024 l 1
 384 367 l 2
 384 280 384 218 429 166 c 0
 461 129 512 104 576 104 c 0xbb
 640 104 691 129 723 166 c 0
 768 218 768 280 768 367 c 2
 768 1024 l 1
 896 1024 l 1
 896 0 l 1
 768 0 l 1x7b
 768 112 l 1
 758 112 l 1
 709 35 632 -16 556 -16 c 0xbb
788 1408 m 1x3c80
 916 1408 l 1
 916 1240 764 1136 576 1136 c 0
 388 1136 236 1240 236 1408 c 1
 364 1408 l 1
 364 1322 433 1256 576 1256 c 0
 719 1256 788 1322 788 1408 c 1x3c80
EndSplineSet
Validated: 1
Layer: 2
Layer: 3
Layer: 4
EndChar
StartChar: Uring
Encoding: 366 366 202
GlifName: U_ring
Width: 1024
VWidth: 0
Flags: W
HStem: -16 120<426.462 725.475> 1308 100<491.86 660.14> 1664 100<491.86 660.14>
VStem: 128 128<277.329 1408> 348 108<1441.29 1630.71> 696 108<1441.29 1630.71> 896 128<277.329 1408>
LayerCount: 5
Back
Fore
SplineSet
128 1408 m 1
 256 1408 l 1
 256 512 l 2
 256 437 256 378 268 330 c 0
 301 196 416 104 576 104 c 0
 736 104 851 196 884 330 c 0
 896 378 896 437 896 512 c 2
 896 1408 l 1
 1024 1408 l 1
 1024 512 l 2
 1024 426 1024 371 1008 303 c 0
 964 118 797 -16 576 -16 c 0
 355 -16 187 118 144 303 c 0
 128 371 128 426 128 512 c 2
 128 1408 l 1
576 1764 m 0
 711 1764 804 1663 804 1536 c 0
 804 1409 711 1308 576 1308 c 0
 441 1308 348 1409 348 1536 c 0
 348 1663 441 1764 576 1764 c 0
576 1664 m 0
 506 1664 456 1619 456 1536 c 0
 456 1453 506 1408 576 1408 c 0
 646 1408 696 1453 696 1536 c 0
 696 1619 646 1664 576 1664 c 0
EndSplineSet
Validated: 1
Layer: 2
Layer: 3
Layer: 4
Substitution2: "'ss14' Style Set 14 lookup 14 subtable" Uring.sq
EndChar
StartChar: uring
Encoding: 367 367 1319
GlifName: uring
Width: 1024
VWidth: 0
Flags: W
HStem: -16 120<463.245 663.827> 0 21G<768 896> 1004 20G<256 384 768 896> 1052 100<491.86 660.14> 1408 100<491.86 660.14>
VStem: 256 128<182.745 1024> 348 108<1185.29 1374.71> 696 108<1185.29 1374.71> 768 128<0 112 180.901 1024>
LayerCount: 5
Back
Fore
SplineSet
556 -16 m 0xbc80
 456 -16 375 29 325 91 c 0
 256 177 256 273 256 367 c 2
 256 1024 l 1
 384 1024 l 1
 384 367 l 2
 384 280 384 218 429 166 c 0
 461 129 512 104 576 104 c 0xbc80
 640 104 691 129 723 166 c 0
 768 218 768 280 768 367 c 2
 768 1024 l 1
 896 1024 l 1
 896 0 l 1
 768 0 l 1x7c80
 768 112 l 1
 758 112 l 1
 709 35 632 -16 556 -16 c 0xbc80
576 1508 m 0
 711 1508 804 1407 804 1280 c 0
 804 1153 711 1052 576 1052 c 0
 441 1052 348 1153 348 1280 c 0x3b
 348 1407 441 1508 576 1508 c 0
576 1408 m 0
 506 1408 456 1363 456 1280 c 0
 456 1197 506 1152 576 1152 c 0
 646 1152 696 1197 696 1280 c 0
 696 1363 646 1408 576 1408 c 0
EndSplineSet
Validated: 1
Layer: 2
Layer: 3
Layer: 4
EndChar
StartChar: uogonek
Encoding: 371 371 1312
GlifName: uogonek
Width: 1024
VWidth: 0
Flags: W
HStem: -350 120<764.904 896> -16 120<463.245 663.827> 1004 20G<256 384 768 896>
VStem: 256 128<182.745 1024> 633 121<-217.883 -88.5621> 768 128<-15.5371 112 180.901 1024>
LayerCount: 5
Back
Fore
SplineSet
832 -230 m 0
 855 -230 876 -229 896 -225 c 1
 896 -345 l 1
 870 -349 842 -350 812 -350 c 0
 732 -350 633 -287 633 -185 c 0
 633 -97 704 -39 768 0 c 1
 768 112 l 1
 758 112 l 1
 709 35 632 -16 556 -16 c 0
 456 -16 375 29 325 91 c 0
 256 177 256 273 256 367 c 2
 256 1024 l 1
 384 1024 l 1
 384 367 l 2
 384 280 384 218 429 166 c 0
 461 129 512 104 576 104 c 0
 640 104 691 129 723 166 c 0
 768 218 768 280 768 367 c 2
 768 1024 l 1
 896 1024 l 1
 896 0 l 1
 798 -48 754 -90 754 -158 c 0
 754 -211 797 -230 832 -230 c 0
EndSplineSet
Validated: 1
Layer: 2
Layer: 3
Layer: 4
EndChar
StartChar: Wcircumflex
Encoding: 372 372 208
GlifName: W_circumflex
Width: 1024
VWidth: 0
Flags: W
HStem: 0 21G<212 387.136 764.864 940> 1388 20G<119 247 905 1033>
VStem: 119 128<1038.93 1408> 905 128<1038.93 1408>
LayerCount: 5
Back
Fore
SplineSet
514 896 m 1
 638 896 l 1
 812 210 l 1
 822 210 l 1
 887 579 905 991 905 1408 c 1
 1033 1408 l 1
 1033 935 986 466 894 0 c 1
 770 0 l 1
 581 736 l 1
 571 736 l 1
 382 0 l 1
 258 0 l 1
 166 466 119 935 119 1408 c 1
 247 1408 l 1
 247 991 266 579 330 210 c 1
 340 210 l 1
 514 896 l 1
497 1792 m 1
 655 1792 l 1
 952 1536 l 1
 794 1536 l 1
 576 1700 l 1
 358 1536 l 1
 200 1536 l 1
 497 1792 l 1
EndSplineSet
Validated: 1
Layer: 2
Layer: 3
Layer: 4
Substitution2: "'ss14' Style Set 14 lookup 14 subtable" Wcircumflex.sq
EndChar
StartChar: wcircumflex
Encoding: 373 373 1332
GlifName: wcircumflex
Width: 1024
VWidth: 0
Flags: W
HStem: 0 21G<208.5 417.417 734.583 943.5> 1004 20G<109 237 915 1043> 1388 20G<473.797 678.203>
VStem: 109 128<654.241 1024> 915 128<654.241 1024>
LayerCount: 5
Back
Fore
SplineSet
514 767 m 1
 638 767 l 1
 802 140 l 1
 812 140 l 1
 883 413 915 717 915 1024 c 1
 1043 1024 l 1
 1043 680 993 339 894 0 c 1
 740 0 l 1
 581 587 l 1
 571 587 l 1
 412 0 l 1
 258 0 l 1
 159 339 109 680 109 1024 c 1
 237 1024 l 1
 237 717 269 413 340 140 c 1
 350 140 l 1
 514 767 l 1
497 1408 m 1
 655 1408 l 1
 952 1152 l 1
 794 1152 l 1
 576 1316 l 1
 358 1152 l 1
 200 1152 l 1
 497 1408 l 1
EndSplineSet
Validated: 1
Layer: 2
Layer: 3
Layer: 4
EndChar
StartChar: Ycircumflex
Encoding: 374 374 210
GlifName: Y_circumflex
Width: 1024
VWidth: 0
Flags: W
HStem: 0 21G<512 640> 1388 20G<100 280.5 871.5 1052>
VStem: 512 128<0 661.578>
LayerCount: 5
Back
Fore
SplineSet
586 741 m 1
 724 944 827 1172 916 1408 c 1
 1052 1408 l 1
 946 1132 822 857 640 616 c 1
 640 0 l 1
 512 0 l 1
 512 616 l 1
 330 857 206 1132 100 1408 c 1
 236 1408 l 1
 325 1172 429 943 566 741 c 1
 586 741 l 1
497 1792 m 1
 655 1792 l 1
 952 1536 l 1
 794 1536 l 1
 576 1700 l 1
 358 1536 l 1
 200 1536 l 1
 497 1792 l 1
EndSplineSet
Validated: 1
Layer: 2
Layer: 3
Layer: 4
Substitution2: "'ss14' Style Set 14 lookup 14 subtable" Ycircumflex.sq
EndChar
StartChar: Ydieresis
Encoding: 376 376 212
GlifName: Y_dieresis
Width: 1024
VWidth: 0
Flags: W
HStem: 0 21G<512 640> 1388 20G<100 280.5 871.5 1052> 1552 224<269.423 434.577 717.423 882.577>
VStem: 240 224<1581.42 1746.58> 512 128<0 661.578> 688 224<1581.42 1746.58>
CounterMasks: 1 1c
LayerCount: 5
Back
Fore
SplineSet
586 741 m 1
 724 944 827 1172 916 1408 c 1
 1052 1408 l 1
 946 1132 822 857 640 616 c 1
 640 0 l 1
 512 0 l 1
 512 616 l 1
 330 857 206 1132 100 1408 c 1
 236 1408 l 1
 325 1172 429 943 566 741 c 1
 586 741 l 1
800 1776 m 4
 866 1776 912 1730 912 1664 c 4
 912 1598 866 1552 800 1552 c 4
 734 1552 688 1598 688 1664 c 4
 688 1730 734 1776 800 1776 c 4
352 1776 m 4
 418 1776 464 1730 464 1664 c 4
 464 1598 418 1552 352 1552 c 4
 286 1552 240 1598 240 1664 c 4
 240 1730 286 1776 352 1776 c 4
EndSplineSet
Validated: 1
Layer: 2
Layer: 3
Layer: 4
Substitution2: "'ss14' Style Set 14 lookup 14 subtable" Ydieresis.sq
EndChar
StartChar: Zacute
Encoding: 377 377 213
GlifName: Z_acute
Width: 1024
VWidth: 0
Flags: W
HStem: 0 120<293 1024> 1288 120<148 839>
LayerCount: 5
Back
Fore
SplineSet
148 1288 m 1
 148 1408 l 1
 1004 1408 l 1
 1004 1318 l 1
 293 130 l 1
 293 120 l 1
 1024 120 l 1
 1024 0 l 1
 128 0 l 1
 128 92 l 1
 839 1278 l 1
 839 1288 l 1
 148 1288 l 1
507 1539 m 1
 673 1795 l 1
 811 1795 l 1
 645 1539 l 1
 507 1539 l 1
EndSplineSet
Validated: 1
Layer: 2
Layer: 3
Layer: 4
Substitution2: "'ss14' Style Set 14 lookup 14 subtable" Zacute.sq
EndChar
StartChar: Zdotaccent
Encoding: 379 379 215
GlifName: Z_dotaccent
Width: 1024
VWidth: 0
Flags: W
HStem: 0 120<293 1024> 1288 120<148 839> 1539 224<493.423 658.577>
VStem: 464 224<1568.42 1733.58>
LayerCount: 5
Back
Fore
SplineSet
148 1288 m 1
 148 1408 l 1
 1004 1408 l 1
 1004 1318 l 1
 293 130 l 1
 293 120 l 1
 1024 120 l 1
 1024 0 l 1
 128 0 l 1
 128 92 l 1
 839 1278 l 1
 839 1288 l 1
 148 1288 l 1
576 1763 m 0
 642 1763 688 1717 688 1651 c 0
 688 1585 642 1539 576 1539 c 0
 510 1539 464 1585 464 1651 c 0
 464 1717 510 1763 576 1763 c 0
EndSplineSet
Validated: 1
Layer: 2
Layer: 3
Layer: 4
Substitution2: "'ss14' Style Set 14 lookup 14 subtable" Zdotaccent.sq
EndChar
StartChar: zdotaccent
Encoding: 380 380 1351
GlifName: zdotaccent
Width: 1024
VWidth: 0
Flags: W
HStem: 0 120<401 896> 904 120<276 731> 1155 224<493.423 658.577>
VStem: 464 224<1184.42 1349.58>
LayerCount: 5
Back
Fore
SplineSet
276 904 m 1
 276 1024 l 1
 876 1024 l 1
 876 934 l 1
 401 130 l 1
 401 120 l 1
 896 120 l 1
 896 0 l 1
 256 0 l 1
 256 92 l 1
 731 894 l 1
 731 904 l 1
 276 904 l 1
576 1379 m 0
 642 1379 688 1333 688 1267 c 0
 688 1201 642 1155 576 1155 c 0
 510 1155 464 1201 464 1267 c 0
 464 1333 510 1379 576 1379 c 0
EndSplineSet
Validated: 1
Layer: 2
Layer: 3
Layer: 4
EndChar
StartChar: Zcaron
Encoding: 381 381 217
GlifName: Z_caron
Width: 1024
VWidth: 0
Flags: W
HStem: 0 120<293 1024> 1288 120<148 839>
LayerCount: 5
Back
Fore
SplineSet
148 1288 m 1
 148 1408 l 1
 1004 1408 l 1
 1004 1318 l 1
 293 130 l 1
 293 120 l 1
 1024 120 l 1
 1024 0 l 1
 128 0 l 1
 128 92 l 1
 839 1278 l 1
 839 1288 l 1
 148 1288 l 1
497 1539 m 1
 200 1795 l 1
 358 1795 l 1
 576 1631 l 1
 794 1795 l 1
 952 1795 l 1
 655 1539 l 1
 497 1539 l 1
EndSplineSet
Validated: 1
Layer: 2
Layer: 3
Layer: 4
Substitution2: "'ss14' Style Set 14 lookup 14 subtable" Zcaron.sq
EndChar
StartChar: zcaron
Encoding: 382 382 1350
GlifName: zcaron
Width: 1024
VWidth: 0
Flags: W
HStem: 0 120<401 896> 904 120<276 731> 1391 20G<200 384.585 767.415 952>
LayerCount: 5
Back
Fore
SplineSet
276 904 m 1
 276 1024 l 1
 876 1024 l 1
 876 934 l 1
 401 130 l 1
 401 120 l 1
 896 120 l 1
 896 0 l 1
 256 0 l 1
 256 92 l 1
 731 894 l 1
 731 904 l 1
 276 904 l 1
497 1155 m 1
 200 1411 l 1
 358 1411 l 1
 576 1247 l 1
 794 1411 l 1
 952 1411 l 1
 655 1155 l 1
 497 1155 l 1
EndSplineSet
Validated: 1
Layer: 2
Layer: 3
Layer: 4
EndChar
StartChar: longs
Encoding: 383 383 933
GlifName: longs
Width: 1024
VWidth: 0
Flags: W
HStem: 0 21G<384 512> 776 120<128 384> 1304 120<552.06 893.069>
VStem: 384 128<0 776 896 1265.43>
LayerCount: 5
Back
Fore
SplineSet
512 0 m 1
 384 0 l 1
 384 776 l 1
 128 776 l 1
 128 896 l 1
 384 896 l 1
 384 1129 l 2
 384 1181 384 1259 436 1329 c 0
 480 1388 561 1424 660 1424 c 0
 740 1424 834 1415 896 1408 c 1
 896 1288 l 1
 834 1295 737 1304 660 1304 c 0
 604 1304 563 1289 540 1259 c 0
 512 1222 512 1173 512 1129 c 2
 512 0 l 1
EndSplineSet
Validated: 1
Layer: 2
Layer: 3
Layer: 4
EndChar
StartChar: uni01EA
Encoding: 490 490 1127
GlifName: uni01E_A_
Width: 1024
VWidth: 0
Flags: W
HStem: -354 120<508.904 640> 1304 120<438.425 713.575>
VStem: 112 128<354.842 1053.16> 377 121<-221.883 -91.3677> 912 128<354.842 1053.16>
LayerCount: 5
Back
Fore
SplineSet
576 -234 m 0
 599 -234 620 -233 640 -229 c 1
 640 -349 l 1
 614 -353 586 -354 556 -354 c 0
 476 -354 377 -291 377 -189 c 0
 377 -106 441 -49 502 -10 c 1
 302 21 184 176 140 355 c 0
 114 458 112 577 112 704 c 0
 112 831 114 950 140 1053 c 0
 189 1253 331 1424 576 1424 c 0
 821 1424 963 1253 1012 1053 c 0
 1038 950 1040 831 1040 704 c 0
 1040 577 1038 458 1012 355 c 0
 967 171 844 12 634 -13 c 1
 540 -49 498 -98 498 -162 c 0
 498 -215 541 -234 576 -234 c 0
240 704 m 0
 240 588 243 478 265 382 c 0
 301 235 396 104 576 104 c 0
 756 104 851 235 887 382 c 0
 909 478 912 588 912 704 c 0
 912 820 909 930 887 1026 c 0
 851 1173 756 1304 576 1304 c 0
 396 1304 301 1173 265 1026 c 0
 243 930 240 820 240 704 c 0
EndSplineSet
Validated: 1
Layer: 2
Layer: 3
Layer: 4
EndChar
StartChar: uni0202
Encoding: 514 514 1131
GlifName: uni0202
Width: 1024
VWidth: 0
Flags: W
HStem: 0 21G<103 243.5 908.5 1049> 388 120<314 838> 1388 20G<389 763> 1688 120<435.067 716.933>
VStem: 103 135<0 253.02> 236 128<1536 1623.49> 788 128<1536 1623.49> 914 135<0 253.803>
LayerCount: 5
Back
Fore
SplineSet
103 0 m 1xf9
 156 496 267 971 511 1408 c 1
 641 1408 l 1
 885 971 996 496 1049 0 c 1
 914 0 l 1
 903 136 883 265 859 388 c 1
 293 388 l 1
 274 265 249 136 238 0 c 1
 103 0 l 1xf9
838 508 m 1
 770 796 697 1054 581 1279 c 1
 571 1279 l 1
 455 1054 382 796 314 508 c 1
 838 508 l 1
788 1536 m 1xf6
 788 1622 719 1688 576 1688 c 0
 433 1688 364 1622 364 1536 c 1
 236 1536 l 1
 236 1704 388 1808 576 1808 c 0
 764 1808 916 1704 916 1536 c 1
 788 1536 l 1xf6
EndSplineSet
Validated: 1
Layer: 2
Layer: 3
Layer: 4
Substitution2: "'ss14' Style Set 14 lookup 14 subtable" uni0202.sq
EndChar
StartChar: uni0204
Encoding: 516 516 1134
GlifName: uni0204
Width: 1024
VWidth: 0
Flags: W
HStem: 0 120<384 1024> 648 120<384 896> 1288 120<384 1024>
VStem: 256 128<120 648 768 1288>
LayerCount: 5
Back
Fore
SplineSet
256 1408 m 1
 1024 1408 l 1
 1024 1288 l 1
 384 1288 l 1
 384 768 l 1
 896 768 l 1
 896 648 l 1
 384 648 l 1
 384 120 l 1
 1024 120 l 1
 1024 0 l 1
 256 0 l 1
 256 1408 l 1
472 1536 m 1
 334 1536 l 1
 168 1792 l 1
 306 1792 l 1
 472 1536 l 1
856 1536 m 1
 718 1536 l 1
 552 1792 l 1
 690 1792 l 1
 856 1536 l 1
EndSplineSet
Validated: 1
Layer: 2
Layer: 3
Layer: 4
Substitution2: "'ss14' Style Set 14 lookup 14 subtable" uni0204.sq
EndChar
StartChar: uni0208
Encoding: 520 520 1140
GlifName: uni0208
Width: 1024
VWidth: 0
Flags: W
HStem: 0 120<256 512 640 896> 1288 120<256 512 640 896>
VStem: 512 128<120 1288>
LayerCount: 5
Back
Fore
SplineSet
896 1408 m 1
 896 1288 l 1
 640 1288 l 1
 640 120 l 1
 896 120 l 1
 896 0 l 1
 256 0 l 1
 256 120 l 1
 512 120 l 1
 512 1288 l 1
 256 1288 l 1
 256 1408 l 1
 896 1408 l 1
472 1536 m 1
 334 1536 l 1
 168 1792 l 1
 306 1792 l 1
 472 1536 l 1
856 1536 m 1
 718 1536 l 1
 552 1792 l 1
 690 1792 l 1
 856 1536 l 1
EndSplineSet
Validated: 1
Layer: 2
Layer: 3
Layer: 4
Substitution2: "'ss14' Style Set 14 lookup 14 subtable" uni0208.sq
EndChar
StartChar: uni0209
Encoding: 521 521 1142
GlifName: uni0209
Width: 1024
VWidth: 0
Flags: W
HStem: 0 21G<512 640> 904 120<256 512> 1388 20G<168 318.969 552 702.969>
VStem: 512 128<0 904>
LayerCount: 5
Back
Fore
SplineSet
512 0 m 1
 512 904 l 1
 256 904 l 1
 256 1024 l 1
 640 1024 l 1
 640 0 l 1
 512 0 l 1
472 1152 m 1
 334 1152 l 1
 168 1408 l 1
 306 1408 l 1
 472 1152 l 1
856 1152 m 1
 718 1152 l 1
 552 1408 l 1
 690 1408 l 1
 856 1152 l 1
EndSplineSet
Validated: 1
Layer: 2
Layer: 3
Layer: 4
EndChar
StartChar: uni020A
Encoding: 522 522 1143
GlifName: uni020A_
Width: 1024
VWidth: 0
Flags: W
HStem: 0 120<256 512 640 896> 1288 120<256 512 640 896> 1688 120<435.067 716.933>
VStem: 236 128<1536 1623.49> 512 128<120 1288> 788 128<1536 1623.49>
CounterMasks: 1 1c
LayerCount: 5
Back
Fore
SplineSet
896 1408 m 1
 896 1288 l 1
 640 1288 l 1
 640 120 l 1
 896 120 l 1
 896 0 l 1
 256 0 l 1
 256 120 l 1
 512 120 l 1
 512 1288 l 1
 256 1288 l 1
 256 1408 l 1
 896 1408 l 1
788 1536 m 1
 788 1622 719 1688 576 1688 c 0
 433 1688 364 1622 364 1536 c 1
 236 1536 l 1
 236 1704 388 1808 576 1808 c 0
 764 1808 916 1704 916 1536 c 1
 788 1536 l 1
EndSplineSet
Validated: 1
Layer: 2
Layer: 3
Layer: 4
Substitution2: "'ss14' Style Set 14 lookup 14 subtable" uni020A.sq
EndChar
StartChar: uni020B
Encoding: 523 523 1145
GlifName: uni020B_
Width: 1024
VWidth: 0
Flags: W
HStem: 0 21G<512 640> 904 120<256 512> 1304 120<435.067 716.933>
VStem: 236 128<1152 1239.49> 512 128<0 904> 788 128<1152 1239.49>
CounterMasks: 1 1c
LayerCount: 5
Back
Fore
SplineSet
512 0 m 1
 512 904 l 1
 256 904 l 1
 256 1024 l 1
 640 1024 l 1
 640 0 l 1
 512 0 l 1
788 1152 m 1
 788 1238 719 1304 576 1304 c 0
 433 1304 364 1238 364 1152 c 1
 236 1152 l 1
 236 1320 388 1424 576 1424 c 0
 764 1424 916 1320 916 1152 c 1
 788 1152 l 1
EndSplineSet
Validated: 1
Layer: 2
Layer: 3
Layer: 4
EndChar
StartChar: uni020C
Encoding: 524 524 1146
GlifName: uni020C_
Width: 1024
VWidth: 0
Flags: W
HStem: -16 120<438.425 713.575> 1304 120<438.425 713.575>
VStem: 112 128<354.842 1053.16> 912 128<354.842 1053.16>
LayerCount: 5
Back
Fore
SplineSet
240 704 m 0
 240 588 243 478 265 382 c 0
 301 235 396 104 576 104 c 0
 756 104 851 235 887 382 c 0
 909 478 912 588 912 704 c 0
 912 820 909 930 887 1026 c 0
 851 1173 756 1304 576 1304 c 0
 396 1304 301 1173 265 1026 c 0
 243 930 240 820 240 704 c 0
112 704 m 0
 112 831 114 950 140 1053 c 0
 189 1253 331 1424 576 1424 c 0
 821 1424 963 1253 1012 1053 c 0
 1038 950 1040 831 1040 704 c 0
 1040 577 1038 458 1012 355 c 0
 963 155 821 -16 576 -16 c 0
 331 -16 189 155 140 355 c 0
 114 458 112 577 112 704 c 0
472 1536 m 1
 334 1536 l 1
 168 1792 l 1
 306 1792 l 1
 472 1536 l 1
856 1536 m 1
 718 1536 l 1
 552 1792 l 1
 690 1792 l 1
 856 1536 l 1
EndSplineSet
Validated: 1
Layer: 2
Layer: 3
Layer: 4
Substitution2: "'ss14' Style Set 14 lookup 14 subtable" uni020C.sq
EndChar
StartChar: uni020D
Encoding: 525 525 1148
GlifName: uni020D_
Width: 1024
VWidth: 0
Flags: W
HStem: -16 120<459.685 692.315> 920 120<459.685 692.315> 1388 20G<168 318.969 552 702.969>
VStem: 224 128<233.791 790.209> 800 128<233.791 790.209>
LayerCount: 5
Back
Fore
SplineSet
576 1040 m 0
 703 1040 802 978 863 880 c 0
 919 788 928 662 928 512 c 0
 928 362 919 236 863 144 c 0
 802 46 703 -16 576 -16 c 0
 449 -16 350 46 289 144 c 0
 233 236 224 362 224 512 c 0
 224 662 233 788 289 880 c 0
 350 978 449 1040 576 1040 c 0
576 920 m 0
 492 920 435 881 400 822 c 0
 354 744 352 629 352 512 c 0
 352 395 354 280 400 202 c 0
 435 143 492 104 576 104 c 0
 660 104 717 143 752 202 c 0
 798 280 800 395 800 512 c 0
 800 629 798 744 752 822 c 0
 717 881 660 920 576 920 c 0
472 1152 m 1
 334 1152 l 1
 168 1408 l 1
 306 1408 l 1
 472 1152 l 1
856 1152 m 1
 718 1152 l 1
 552 1408 l 1
 690 1408 l 1
 856 1152 l 1
EndSplineSet
Validated: 1
Layer: 2
Layer: 3
Layer: 4
EndChar
StartChar: uni020F
Encoding: 527 527 1150
GlifName: uni020F_
Width: 1024
VWidth: 0
Flags: W
HStem: -16 120<459.533 692.467> 920 120<459.533 692.467> 1304 120<435.067 716.933>
VStem: 224 128<231.125 792.875> 236 128<1152 1239.49> 788 128<1152 1239.49> 800 128<231.125 792.875>
LayerCount: 5
Back
Fore
SplineSet
788 1152 m 1xec
 788 1238 719 1304 576 1304 c 0
 433 1304 364 1238 364 1152 c 1
 236 1152 l 1
 236 1320 388 1424 576 1424 c 0
 764 1424 916 1320 916 1152 c 1
 788 1152 l 1xec
576 920 m 0
 480 920 416 868 384 789 c 0
 354 714 352 614 352 512 c 0
 352 410 354 310 384 235 c 0
 416 156 480 104 576 104 c 0
 672 104 736 156 768 235 c 0
 798 310 800 410 800 512 c 0xf2
 800 614 798 714 768 789 c 0
 736 868 672 920 576 920 c 0
576 1040 m 0
 736 1040 842 945 888 829 c 0
 926 734 928 633 928 512 c 0
 928 391 926 290 888 195 c 0
 842 79 736 -16 576 -16 c 0
 416 -16 310 79 264 195 c 0
 226 290 224 391 224 512 c 0
 224 633 226 734 264 829 c 0
 310 945 416 1040 576 1040 c 0
EndSplineSet
Validated: 1
Layer: 2
Layer: 3
Layer: 4
EndChar
StartChar: uni0210
Encoding: 528 528 1151
GlifName: uni0210
Width: 1024
VWidth: 0
Flags: W
HStem: 0 21G<256 384 920.073 1065> 520 120<384 689.19> 1288 120<384 742.904>
VStem: 256 128<0 520 640 1288> 912 128<811.269 1116.73>
LayerCount: 5
Back
Fore
SplineSet
912 964 m 0
 912 1072 868 1161 805 1215 c 0
 721 1288 615 1288 533 1288 c 2
 384 1288 l 1
 384 640 l 1
 533 640 l 2
 615 640 721 641 805 713 c 0
 868 767 912 856 912 964 c 0
533 1408 m 2
 624 1408 772 1408 891 1303 c 0
 977 1227 1040 1111 1040 964 c 0
 1040 817 977 701 891 625 c 0
 866 603 840 586 813 572 c 1
 1065 0 l 1
 929 0 l 1
 692 531 l 1
 632 520 576 520 533 520 c 2
 384 520 l 1
 384 0 l 1
 256 0 l 1
 256 1408 l 1
 533 1408 l 2
472 1536 m 1
 334 1536 l 1
 168 1792 l 1
 306 1792 l 1
 472 1536 l 1
856 1536 m 1
 718 1536 l 1
 552 1792 l 1
 690 1792 l 1
 856 1536 l 1
EndSplineSet
Validated: 1
Layer: 2
Layer: 3
Layer: 4
Substitution2: "'ss14' Style Set 14 lookup 14 subtable" uni0210.sq
EndChar
StartChar: uni0211
Encoding: 529 529 1153
GlifName: uni0211
Width: 1024
VWidth: 0
Flags: W
HStem: 0 21G<256 384> 920 120<559.204 893.328> 1004 20G<256 384> 1388 20G<168 318.969 552 702.969>
VStem: 256 128<0 724.349 865 1024>
LayerCount: 5
Back
Fore
SplineSet
716 920 m 0xd8
 624 920 552 894 501 847 c 0
 384 740 384 589 384 475 c 2
 384 0 l 1
 256 0 l 1
 256 1024 l 1
 384 1024 l 1xb8
 384 865 l 1
 394 865 l 1
 469 967 561 1040 716 1040 c 0
 782 1040 839 1034 896 1027 c 1
 896 907 l 1
 839 914 781 920 716 920 c 0xd8
472 1152 m 1
 334 1152 l 1
 168 1408 l 1
 306 1408 l 1
 472 1152 l 1
856 1152 m 1
 718 1152 l 1
 552 1408 l 1
 690 1408 l 1
 856 1152 l 1
EndSplineSet
Validated: 1
Layer: 2
Layer: 3
Layer: 4
EndChar
StartChar: uni0212
Encoding: 530 530 1154
GlifName: uni0212
Width: 1024
VWidth: 0
Flags: W
HStem: 0 21G<256 384 920.073 1065> 520 120<384 689.19> 1288 120<384 742.904> 1688 120<435.067 716.933>
VStem: 236 128<1536 1623.49> 256 128<0 520 640 1288> 788 128<1536 1623.49> 912 128<811.269 1116.73>
LayerCount: 5
Back
Fore
SplineSet
912 964 m 0xf5
 912 1072 868 1161 805 1215 c 0
 721 1288 615 1288 533 1288 c 2
 384 1288 l 1
 384 640 l 1
 533 640 l 2
 615 640 721 641 805 713 c 0
 868 767 912 856 912 964 c 0xf5
533 1408 m 2
 624 1408 772 1408 891 1303 c 0
 977 1227 1040 1111 1040 964 c 0
 1040 817 977 701 891 625 c 0
 866 603 840 586 813 572 c 1
 1065 0 l 1
 929 0 l 1
 692 531 l 1
 632 520 576 520 533 520 c 2
 384 520 l 1
 384 0 l 1
 256 0 l 1
 256 1408 l 1
 533 1408 l 2
788 1536 m 1xfa
 788 1622 719 1688 576 1688 c 0
 433 1688 364 1622 364 1536 c 1
 236 1536 l 1
 236 1704 388 1808 576 1808 c 0
 764 1808 916 1704 916 1536 c 1
 788 1536 l 1xfa
EndSplineSet
Validated: 1
Layer: 2
Layer: 3
Layer: 4
Substitution2: "'ss14' Style Set 14 lookup 14 subtable" uni0212.sq
EndChar
StartChar: uni0213
Encoding: 531 531 1156
GlifName: uni0213
Width: 1024
VWidth: 0
Flags: W
HStem: 0 21G<256 384> 920 120<559.204 893.328> 1004 20G<256 384> 1304 120<435.067 716.933>
VStem: 236 128<1152 1239.49> 256 128<0 724.349 865 1024> 788 128<1152 1239.49>
LayerCount: 5
Back
Fore
SplineSet
716 920 m 0xd6
 624 920 552 894 501 847 c 0
 384 740 384 589 384 475 c 2
 384 0 l 1
 256 0 l 1
 256 1024 l 1
 384 1024 l 1xb6
 384 865 l 1
 394 865 l 1
 469 967 561 1040 716 1040 c 0
 782 1040 839 1034 896 1027 c 1
 896 907 l 1
 839 914 781 920 716 920 c 0xd6
788 1152 m 1
 788 1238 719 1304 576 1304 c 0
 433 1304 364 1238 364 1152 c 1
 236 1152 l 1x9a
 236 1320 388 1424 576 1424 c 0
 764 1424 916 1320 916 1152 c 1
 788 1152 l 1
EndSplineSet
Validated: 1
Layer: 2
Layer: 3
Layer: 4
EndChar
StartChar: uni0215
Encoding: 533 533 1159
GlifName: uni0215
Width: 1024
VWidth: 0
Flags: W
HStem: -16 120<463.245 663.827> 0 21G<768 896> 1004 20G<256 384 768 896> 1388 20G<168 318.969 552 702.969>
VStem: 256 128<182.745 1024> 768 128<0 112 180.901 1024>
LayerCount: 5
Back
Fore
SplineSet
556 -16 m 0xbc
 456 -16 375 29 325 91 c 0
 256 177 256 273 256 367 c 2
 256 1024 l 1
 384 1024 l 1
 384 367 l 2
 384 280 384 218 429 166 c 0
 461 129 512 104 576 104 c 0xbc
 640 104 691 129 723 166 c 0
 768 218 768 280 768 367 c 2
 768 1024 l 1
 896 1024 l 1
 896 0 l 1
 768 0 l 1x7c
 768 112 l 1
 758 112 l 1
 709 35 632 -16 556 -16 c 0xbc
472 1152 m 1
 334 1152 l 1
 168 1408 l 1
 306 1408 l 1
 472 1152 l 1
856 1152 m 1
 718 1152 l 1
 552 1408 l 1
 690 1408 l 1
 856 1152 l 1
EndSplineSet
Validated: 1
Layer: 2
Layer: 3
Layer: 4
EndChar
StartChar: uni0216
Encoding: 534 534 1160
GlifName: uni0216
Width: 1024
VWidth: 0
Flags: W
HStem: -16 120<426.462 725.475> 1388 20G<128 256 896 1024> 1688 120<435.067 716.933>
VStem: 128 128<277.329 1408> 236 128<1536 1623.49> 788 128<1536 1623.49> 896 128<277.329 1408>
LayerCount: 5
Back
Fore
SplineSet
128 1408 m 1xf2
 256 1408 l 1
 256 512 l 2
 256 437 256 378 268 330 c 0
 301 196 416 104 576 104 c 0
 736 104 851 196 884 330 c 0
 896 378 896 437 896 512 c 2
 896 1408 l 1
 1024 1408 l 1
 1024 512 l 2
 1024 426 1024 371 1008 303 c 0
 964 118 797 -16 576 -16 c 0
 355 -16 187 118 144 303 c 0
 128 371 128 426 128 512 c 2
 128 1408 l 1xf2
788 1536 m 1xec
 788 1622 719 1688 576 1688 c 0
 433 1688 364 1622 364 1536 c 1
 236 1536 l 1
 236 1704 388 1808 576 1808 c 0
 764 1808 916 1704 916 1536 c 1
 788 1536 l 1xec
EndSplineSet
Validated: 1
Layer: 2
Layer: 3
Layer: 4
Substitution2: "'ss14' Style Set 14 lookup 14 subtable" uni0216.sq
EndChar
StartChar: uni0217
Encoding: 535 535 1162
GlifName: uni0217
Width: 1024
VWidth: 0
Flags: W
HStem: -16 120<463.245 663.827> 0 21G<768 896> 1004 20G<256 384 768 896> 1304 120<435.067 716.933>
VStem: 236 128<1152 1239.49> 256 128<182.745 1024> 768 128<0 112 180.901 1024> 788 128<1152 1239.49>
LayerCount: 5
Back
Fore
SplineSet
556 -16 m 0xb6
 456 -16 375 29 325 91 c 0
 256 177 256 273 256 367 c 2
 256 1024 l 1
 384 1024 l 1
 384 367 l 2
 384 280 384 218 429 166 c 0
 461 129 512 104 576 104 c 0xb6
 640 104 691 129 723 166 c 0
 768 218 768 280 768 367 c 2
 768 1024 l 1
 896 1024 l 1
 896 0 l 1
 768 0 l 1x76
 768 112 l 1
 758 112 l 1
 709 35 632 -16 556 -16 c 0xb6
788 1152 m 1x39
 788 1238 719 1304 576 1304 c 0
 433 1304 364 1238 364 1152 c 1
 236 1152 l 1
 236 1320 388 1424 576 1424 c 0
 764 1424 916 1320 916 1152 c 1
 788 1152 l 1x39
EndSplineSet
Validated: 1
Layer: 2
Layer: 3
Layer: 4
EndChar
StartChar: uni0218
Encoding: 536 536 1163
GlifName: uni0218
Width: 1024
VWidth: 0
Flags: W
HStem: -400 120<512 608.793> -16 120<260.808 779.079> 1304 120<483.228 984.716>
VStem: 226 128<912.314 1176.61> 640 128<-250.637 -128> 926 128<246.8 518.189>
LayerCount: 5
Back
Fore
SplineSet
620 -16 m 0
 486 -16 366 -2 250 16 c 1
 250 139 l 1
 364 121 492 104 620 104 c 0
 809 104 926 213 926 385 c 0
 926 483 878 567 800 613 c 0
 705 668 583 651 465 694 c 0
 324 745 226 867 226 1045 c 0
 226 1261 385 1424 620 1424 c 0
 756 1424 877 1411 990 1399 c 1
 990 1278 l 1
 878 1290 745 1304 620 1304 c 0
 455 1304 354 1191 354 1045 c 0
 354 936 406 858 482 819 c 0
 581 768 729 789 850 725 c 0
 972 661 1054 536 1054 385 c 0
 1054 147 879 -16 620 -16 c 0
716 -315 m 0
 675 -367 602 -400 512 -400 c 1
 512 -280 l 1
 559 -280 593 -268 612 -245 c 0
 640 -211 640 -173 640 -128 c 1
 683 -128 725 -128 768 -128 c 1
 768 -184 768 -249 716 -315 c 0
EndSplineSet
Validated: 1
Layer: 2
Layer: 3
Layer: 4
EndChar
StartChar: uni021A
Encoding: 538 538 1165
GlifName: uni021A_
Width: 1024
VWidth: 0
Flags: W
HStem: -387 120<448 544.793> 0 21G<512 640> 1288 120<128 512 640 1024>
VStem: 512 128<0 1288> 576 128<-237.637 -115>
LayerCount: 5
Back
Fore
SplineSet
1024 1408 m 1xf0
 1024 1288 l 1
 640 1288 l 1
 640 0 l 1
 512 0 l 1
 512 1288 l 1
 128 1288 l 1
 128 1408 l 1
 1024 1408 l 1xf0
652 -302 m 0
 611 -354 538 -387 448 -387 c 1
 448 -267 l 1
 495 -267 529 -255 548 -232 c 0
 576 -198 576 -160 576 -115 c 1
 619 -115 661 -115 704 -115 c 1xe8
 704 -171 704 -236 652 -302 c 0
EndSplineSet
Validated: 1
Layer: 2
Layer: 3
Layer: 4
EndChar
StartChar: uni021B
Encoding: 539 539 1166
GlifName: uni021B_
Width: 1024
VWidth: 0
Flags: W
HStem: -400 120<512 608.793> -16 120<588.916 893.438> 898 126<128 384 512 896>
VStem: 384 128<180.946 898 1024 1280> 640 128<-250.637 -128>
LayerCount: 5
Back
Fore
SplineSet
896 -1 m 1
 839 -9 775 -16 704 -16 c 0
 594 -16 505 28 452 92 c 0
 384 174 384 271 384 360 c 2
 384 898 l 1
 128 898 l 1
 128 1024 l 1
 384 1024 l 1
 384 1280 l 1
 512 1280 l 1
 512 1024 l 1
 896 1024 l 1
 896 898 l 1
 512 898 l 1
 512 370 l 2
 512 284 512 218 555 166 c 0
 588 127 643 104 714 104 c 0
 778 104 844 112 896 119 c 1
 896 -1 l 1
716 -315 m 0
 675 -367 602 -400 512 -400 c 1
 512 -280 l 1
 559 -280 593 -268 612 -245 c 0
 640 -211 640 -173 640 -128 c 1
 683 -128 725 -128 768 -128 c 1
 768 -184 768 -249 716 -315 c 0
EndSplineSet
Validated: 1
Layer: 2
Layer: 3
Layer: 4
EndChar
StartChar: uni0237
Encoding: 567 567 1167
GlifName: uni0237
Width: 1024
VWidth: 0
Flags: W
HStem: -272 120<174.991 533.513> 904 120<384 640>
VStem: 640 128<-30.9382 904>
AnchorPoint: "top" 704 1024 basechar 0
LayerCount: 5
Back
Fore
SplineSet
640 160 m 2
 640 904 l 1
 384 904 l 1
 384 1024 l 1
 768 1024 l 1
 768 160 l 2
 768 100 768 -11 707 -113 c 0
 652 -205 556 -272 408 -272 c 0
 318 -272 236 -265 172 -257 c 1
 172 -137 l 1
 235 -144 319 -152 408 -152 c 0
 504 -152 559 -113 596 -54 c 0
 640 17 640 113 640 160 c 2
EndSplineSet
Validated: 1
Layer: 2
Layer: 3
Layer: 4
EndChar
StartChar: uni0259
Encoding: 601 601 1168
GlifName: uni0259
Width: 1024
VWidth: 0
Flags: W
HStem: -16 120<452.408 699.592> 392 120<354 798> 920 120<260.894 682.93>
VStem: 224 130<211.347 392> 798 130<211.347 392 512 795.555>
LayerCount: 5
Back
Fore
SplineSet
576 104 m 0
 673 104 742 150 771 225 c 0
 792 273 795 331 798 392 c 1
 354 392 l 1
 357 331 360 273 381 225 c 0
 410 150 479 104 576 104 c 0
576 -16 m 0
 414 -16 303 73 261 185 c 0
 225 277 224 387 224 512 c 1
 800 512 l 1
 800 614 800 716 768 789 c 0
 731 873 662 920 556 920 c 0
 463 920 361 911 256 899 c 1
 256 1019 l 1
 360 1031 456 1040 556 1040 c 0
 730 1040 841 947 888 831 c 0
 926 738 928 633 928 512 c 0
 928 387 927 277 891 185 c 0
 849 73 738 -16 576 -16 c 0
EndSplineSet
Validated: 1
Layer: 2
Layer: 3
Layer: 4
EndChar
StartChar: uni025C
Encoding: 604 604 1170
GlifName: uni025C_
Width: 1024
VWidth: 0
Flags: W
HStem: -16 120<256 702.476> 512 120<384 705.625> 920 120<280.521 713.656>
VStem: 800 128<197.441 420.945 706.629 843.639>
LayerCount: 5
Back
Fore
SplineSet
775 563 m 1
 888 508 928 417 928 308 c 0
 928 116 775 -16 566 -16 c 0
 456 -16 360 -12 256 -6 c 1
 256 114 l 1
 363 108 468 104 566 104 c 0
 704 104 800 181 800 308 c 0
 800 410 734 483 645 503 c 0
 609 511 568 512 522 512 c 2
 384 512 l 1
 384 632 l 1
 430 632 477 632 523 632 c 0
 572 632 610 632 656 641 c 0
 724 654 790 703 790 777 c 0
 790 848 717 920 567 920 c 0
 468 920 373 912 276 904 c 1
 276 1024 l 1
 372 1033 463 1040 567 1040 c 0
 779 1040 918 922 918 777 c 0
 918 680 869 612 775 573 c 1
 775 563 l 1
EndSplineSet
Validated: 1
Layer: 2
Layer: 3
Layer: 4
EndChar
StartChar: uni02BB
Encoding: 699 699 1171
GlifName: uni02B_B_
Width: 1024
VWidth: 0
Flags: W
HStem: 1024 21G<512 640> 1432 120<678.665 768>
VStem: 512 128<1024 1391.68>
LayerCount: 5
Back
Fore
SplineSet
512 1257 m 6
 512 1317 512 1387 564 1457 c 4
 606 1514 678 1552 768 1552 c 5
 768 1432 l 5
 721 1432 689 1415 668 1387 c 4
 640 1350 640 1307 640 1257 c 6
 640 1024 l 5
 512 1024 l 5
 512 1257 l 6
EndSplineSet
Validated: 1
Layer: 2
Layer: 3
Layer: 4
EndChar
StartChar: uni02BC
Encoding: 700 700 1172
GlifName: uni02B_C_
Width: 1024
VWidth: 0
Flags: W
HStem: 1008 120<384 473.335>
VStem: 512 128<1168.32 1536>
LayerCount: 5
Back
Fore
SplineSet
640 1303 m 2
 640 1243 640 1173 588 1103 c 0
 546 1046 474 1008 384 1008 c 1
 384 1128 l 1
 431 1128 463 1145 484 1173 c 0
 512 1210 512 1253 512 1303 c 2
 512 1536 l 1
 640 1536 l 1
 640 1303 l 2
EndSplineSet
Validated: 1
Layer: 2
Layer: 3
Layer: 4
EndChar
StartChar: tildecomb
Encoding: 771 771 1086
GlifName: tildecomb
Width: 1024
VWidth: 0
Flags: W
HStem: 1284 120<637.402 751.423> 1412 120<400.597 514.598>
VStem: 253 128<1305 1399.42> 771 128<1416.67 1511>
AnchorPoint: "top" 576 1152 mark 0
LayerCount: 5
Back
Fore
SplineSet
448 1412 m 0
 397 1412 384 1353 381 1299 c 1
 253 1305 l 1
 257 1423 319 1532 448 1532 c 0
 594 1532 627 1404 704 1404 c 0
 755 1404 768 1463 771 1517 c 1
 899 1511 l 1
 896 1395 833 1284 704 1284 c 0
 558 1284 525 1412 448 1412 c 0
EndSplineSet
Validated: 1
Layer: 2
Layer: 3
Layer: 4
EndChar
StartChar: uni0304
Encoding: 772 772 1174
GlifName: uni0304
Width: 1024
VWidth: 0
Flags: W
HStem: 1284 120<256 896>
AnchorPoint: "top" 576 1152 mark 0
LayerCount: 5
Back
Fore
SplineSet
256 1404 m 1
 896 1404 l 1
 896 1284 l 1
 256 1284 l 1
 256 1404 l 1
EndSplineSet
Validated: 1
Layer: 2
Layer: 3
Layer: 4
EndChar
StartChar: uni0306
Encoding: 774 774 1175
GlifName: uni0306
Width: 1024
VWidth: 0
Flags: W
HStem: 1264 120<435.067 716.933>
VStem: 236 128<1448.51 1536> 788 128<1448.51 1536>
AnchorPoint: "top" 576 1152 mark 0
LayerCount: 5
Back
Fore
SplineSet
788 1536 m 1
 916 1536 l 1
 916 1368 764 1264 576 1264 c 0
 388 1264 236 1368 236 1536 c 1
 364 1536 l 1
 364 1450 433 1384 576 1384 c 0
 719 1384 788 1450 788 1536 c 1
EndSplineSet
Validated: 1
Layer: 2
Layer: 3
Layer: 4
EndChar
StartChar: uni0307
Encoding: 775 775 1176
GlifName: uni0307
Width: 1024
VWidth: 0
Flags: W
HStem: 1328 224<493.423 658.577>
VStem: 464 224<1357.42 1522.58>
AnchorPoint: "top" 576 1152 mark 0
LayerCount: 5
Back
Fore
SplineSet
576 1552 m 0
 642 1552 688 1506 688 1440 c 0
 688 1374 642 1328 576 1328 c 0
 510 1328 464 1374 464 1440 c 0
 464 1506 510 1552 576 1552 c 0
EndSplineSet
Validated: 1
Layer: 2
Layer: 3
Layer: 4
EndChar
StartChar: uni0308
Encoding: 776 776 1177
GlifName: uni0308
Width: 1024
VWidth: 0
Flags: W
HStem: 1296 224<269.423 434.577 717.423 882.577>
VStem: 240 224<1325.42 1490.58> 688 224<1325.42 1490.58>
AnchorPoint: "top" 576 1152 mark 0
LayerCount: 5
Back
Fore
SplineSet
800 1520 m 4
 866 1520 912 1474 912 1408 c 4
 912 1342 866 1296 800 1296 c 4
 734 1296 688 1342 688 1408 c 4
 688 1474 734 1520 800 1520 c 4
352 1520 m 4
 418 1520 464 1474 464 1408 c 4
 464 1342 418 1296 352 1296 c 4
 286 1296 240 1342 240 1408 c 4
 240 1474 286 1520 352 1520 c 4
EndSplineSet
Validated: 1
Layer: 2
Layer: 3
Layer: 4
EndChar
StartChar: uni030A
Encoding: 778 778 1178
GlifName: uni030A_
Width: 1024
VWidth: 0
Flags: W
HStem: 1052 100<491.86 660.14> 1408 100<491.86 660.14>
VStem: 348 108<1185.29 1374.71> 696 108<1185.29 1374.71>
AnchorPoint: "top" 576 1152 mark 0
LayerCount: 5
Back
Fore
SplineSet
576 1508 m 0
 711 1508 804 1407 804 1280 c 0
 804 1153 711 1052 576 1052 c 0
 441 1052 348 1153 348 1280 c 0
 348 1407 441 1508 576 1508 c 0
576 1408 m 0
 506 1408 456 1363 456 1280 c 0
 456 1197 506 1152 576 1152 c 0
 646 1152 696 1197 696 1280 c 0
 696 1363 646 1408 576 1408 c 0
EndSplineSet
Validated: 1
Layer: 2
Layer: 3
Layer: 4
EndChar
StartChar: uni0312
Encoding: 786 786 1182
GlifName: uni0312
Width: 1024
VWidth: 0
Flags: W
HStem: 1560 120<550.665 640>
VStem: 384 128<1280 1519.68>
AnchorPoint: "top" 576 1152 mark 0
LayerCount: 5
Back
Fore
SplineSet
384 1385 m 6
 384 1445 384 1515 436 1585 c 4
 478 1642 550 1680 640 1680 c 5
 640 1560 l 5
 593 1560 561 1543 540 1515 c 4
 512 1478 512 1435 512 1385 c 6
 512 1280 l 5
 384 1280 l 5
 384 1385 l 6
EndSplineSet
Validated: 1
Layer: 2
Layer: 3
Layer: 4
EndChar
StartChar: uni0329
Encoding: 809 809 1186
GlifName: uni0329
Width: 1024
VWidth: 0
Flags: W
HStem: -384 256<512 640>
VStem: 512 128<-384 -128>
AnchorPoint: "bottom" 576 0 mark 0
LayerCount: 5
Back
Fore
SplineSet
512 -128 m 1
 640 -128 l 1
 640 -384 l 1
 512 -384 l 1
 512 -128 l 1
EndSplineSet
Validated: 1
Layer: 2
Layer: 3
Layer: 4
EndChar
StartChar: dieresistonos
Encoding: 901 901 555
GlifName: dieresistonos
Width: 1024
VWidth: 0
Flags: W
HStem: 1136 224<209.423 374.577 777.423 942.577>
VStem: 180 224<1165.42 1330.58> 748 224<1165.42 1330.58>
AnchorPoint: "top" 576 1024 mark 0
LayerCount: 5
Back
Fore
SplineSet
860 1360 m 0
 926 1360 972 1314 972 1248 c 0
 972 1182 926 1136 860 1136 c 0
 794 1136 748 1182 748 1248 c 0
 748 1314 794 1360 860 1360 c 0
292 1360 m 0
 358 1360 404 1314 404 1248 c 0
 404 1182 358 1136 292 1136 c 0
 226 1136 180 1182 180 1248 c 0
 180 1314 226 1360 292 1360 c 0
690 1566 m 1
 786 1486 l 1
 579 1259 l 1
 504 1322 l 1
 690 1566 l 1
EndSplineSet
Validated: 1
Layer: 2
Layer: 3
Layer: 4
EndChar
StartChar: Epsilontonos
Encoding: 904 904 711
GlifName: E_psilontonos
Width: 1024
VWidth: 0
Flags: W
HStem: 0 120<384 1024> 644 120<384 896> 1288 120<384 1024>
VStem: 256 128<120 644 764 1288>
CounterMasks: 1 e0
LayerCount: 5
Back
Fore
SplineSet
60 1438 m 1
 155 1358 l 1
 -51 1131 l 1
 -126 1194 l 1
 60 1438 l 1
256 1408 m 1
 1024 1408 l 1
 1024 1288 l 1
 384 1288 l 1
 384 764 l 1
 896 764 l 1
 896 644 l 1
 384 644 l 1
 384 120 l 1
 1024 120 l 1
 1024 0 l 1
 256 0 l 1
 256 1408 l 1
EndSplineSet
Validated: 1
Layer: 2
Layer: 3
Layer: 4
EndChar
StartChar: Omegatonos
Encoding: 911 911 737
GlifName: O_megatonos
Width: 1024
VWidth: 0
Flags: W
HStem: 0 120<128 292 860 1024> 1304 120<423.945 728.055>
VStem: 112 128<450.222 1095.8> 912 128<450.222 1095.8>
LayerCount: 5
Back
Fore
SplineSet
61 1438 m 1
 156 1358 l 1
 -50 1131 l 1
 -125 1194 l 1
 61 1438 l 1
1040 832 m 0
 1040 695 1037 552 998 411 c 0
 971 312 922 216 860 130 c 1
 860 120 l 1
 1024 120 l 1
 1024 0 l 1
 710 0 l 1
 710 96 l 1
 790 195 847 313 878 438 c 0
 909 563 912 696 912 832 c 0
 912 923 907 1011 881 1089 c 0
 838 1217 740 1304 576 1304 c 0
 412 1304 314 1217 271 1089 c 0
 245 1011 240 923 240 832 c 0
 240 696 243 563 274 438 c 0
 305 313 362 195 442 96 c 1
 442 0 l 1
 128 0 l 1
 128 120 l 1
 292 120 l 1
 292 130 l 1
 230 216 181 312 154 411 c 0
 115 552 112 695 112 832 c 0
 112 926 117 1027 149 1124 c 0
 206 1298 354 1424 576 1424 c 0
 798 1424 946 1298 1003 1124 c 0
 1035 1027 1040 926 1040 832 c 0
EndSplineSet
Validated: 1
Layer: 2
Layer: 3
Layer: 4
EndChar
StartChar: Rho
Encoding: 929 929 744
GlifName: R_ho
Width: 1024
VWidth: 0
Flags: W
HStem: 0 21G<256 384> 640 120<384 790.336> 1288 120<384 790.336>
VStem: 256 128<0 640 760 1288> 912 128<887.539 1160.46>
LayerCount: 5
Back
Fore
SplineSet
577 760 m 2
 653 760 693 762 729 770 c 0
 837 794 912 890 912 1024 c 0
 912 1158 837 1254 729 1278 c 0
 693 1286 653 1288 577 1288 c 2
 384 1288 l 1
 384 760 l 1
 577 760 l 2
384 0 m 1
 256 0 l 1
 256 1408 l 1
 577 1408 l 2
 654 1408 706 1408 761 1395 c 0
 920 1357 1040 1220 1040 1024 c 0
 1040 828 920 691 761 653 c 0
 706 640 654 640 577 640 c 2
 384 640 l 1
 384 0 l 1
EndSplineSet
Validated: 1
Layer: 2
Layer: 3
Layer: 4
EndChar
StartChar: alphatonos
Encoding: 940 940 768
GlifName: alphatonos
Width: 1024
VWidth: 0
Flags: W
HStem: -16 120<461.907 660.445 924.946 1024> 920 120<461.907 651.996> 1004 20G<768 896>
VStem: 224 128<237.748 786.252> 768 128<237.626 786.374 899 1024>
LayerCount: 5
Back
SplineSet
690.304084305 1437.61186219 m 5
 785.695915695 1358.38813781 l 5
 589.695915695 1122.38813781 l 5
 494.304084305 1201.61186219 l 5
 690.304084305 1437.61186219 l 5
EndSplineSet
Fore
SplineSet
775 118 m 5xb8
 707 23 638 -16 540 -16 c 4
 409 -16 299 71 252 221 c 4
 224 311 224 400 224 512 c 4
 224 624 224 713 252 803 c 4
 299 953 409 1040 540 1040 c 4xd8
 623 1040 699 991 758 899 c 5
 768 899 l 5
 768 1024 l 5
 896 1024 l 5
 896 208 l 6
 896 180 896 153 924 130 c 4
 944 114 975 103 1024 103 c 5
 1024 -16 l 5
 938 -16 884 2 841 36 c 4
 809 61 793 89 785 118 c 5
 775 118 l 5xb8
560 920 m 4
 464 920 404 847 378 768 c 4
 353 692 352 604 352 512 c 4
 352 420 353 332 378 256 c 4
 404 177 464 104 560 104 c 4
 656 104 716 177 742 256 c 4
 767 332 768 420 768 512 c 4
 768 604 767 692 742 768 c 4
 716 847 656 920 560 920 c 4
690 1438 m 1
 785 1358 l 1
 579 1131 l 1
 504 1194 l 1
 690 1438 l 1
EndSplineSet
Validated: 1
Layer: 2
Layer: 3
Layer: 4
EndChar
StartChar: iotatonos
Encoding: 943 943 910
GlifName: iotatonos
Width: 1024
VWidth: 0
Flags: W
HStem: -16 120<677.032 894.258> 1004 20G<512 640>
VStem: 512 128<141.858 1024>
LayerCount: 5
Back
Fore
SplineSet
896 -2 m 1
 858 -9 813 -16 758 -16 c 0
 686 -16 627 9 585 52 c 0
 512 128 512 218 512 279 c 2
 512 1024 l 1
 640 1024 l 1
 640 279 l 2
 640 232 640 186 668 148 c 0
 688 121 719 104 768 104 c 0
 810 104 860 111 896 119 c 1
 896 -2 l 1
690 1438 m 1
 785 1358 l 1
 579 1131 l 1
 504 1194 l 1
 690 1438 l 1
EndSplineSet
Validated: 1
Layer: 2
Layer: 3
Layer: 4
EndChar
StartChar: upsilondieresistonos
Encoding: 944 944 1317
GlifName: upsilondieresistonos
Width: 1024
VWidth: 0
Flags: W
HStem: -16 120<462.792 689.208> 1004 20G<256 384 768 896> 1136 224<209.423 374.577 777.423 942.577>
VStem: 180 224<1165.42 1330.58> 256 128<183.516 1024> 748 224<1165.42 1330.58> 768 128<183.516 1024>
LayerCount: 5
Back
Fore
SplineSet
896 337 m 1026,0,-1
256 337 m 2,1,-1
 256 1024 l 1,2,-1
 384 1024 l 1,3,-1
 384 337 l 2,4,-1
 384 301 385 268 392 240 c 0,7,-1
 412 159 478 104 576 104 c 0,10,-1
 674 104 740 159 760 240 c 0,13,-1
 767 268 768 301 768 337 c 2,16,-1
 768 1024 l 1,17,-1
 896 1024 l 1,18,-1
 896 337 l 2,19,-1
 896 299 896 258 887 214 c 0,22,-1
 860 81 749 -16 576 -16 c 0,25,-1
 403 -16 292 81 265 214 c 0,28,-1
 256 258 256 299 256 337 c 2,1,-1
384 337 m 1026,31,-1
860 1360 m 0,32,-1
 926 1360 972 1314 972 1248 c 0,35,-1
 972 1182 926 1136 860 1136 c 0,38,-1
 794 1136 748 1182 748 1248 c 0,41,-1
 748 1314 794 1360 860 1360 c 0,32,-1
292 1360 m 0,44,-1
 358 1360 404 1314 404 1248 c 0,47,-1
 404 1182 358 1136 292 1136 c 0,50,-1
 226 1136 180 1182 180 1248 c 0,53,-1
 180 1314 226 1360 292 1360 c 0,44,-1
690 1566 m 1,56,-1
 786 1486 l 1,57,-1
 579 1259 l 1,58,-1
 504 1322 l 1,59,-1
 690 1566 l 1,56,-1
EndSplineSet
Validated: 1
Layer: 2
Layer: 3
Layer: 4
EndChar
StartChar: gamma
Encoding: 947 947 873
GlifName: gamma
Width: 1024
VWidth: 0
Flags: W
HStem: 1004 20G<201 356 796 951>
VStem: 201 135<806.08 1024> 512 128<-384 59.1147> 816 135<806.08 1024>
CounterMasks: 1 70
LayerCount: 5
Back
Fore
SplineSet
201 1024 m 1
 336 1024 l 1
 376 680 452 387 571 151 c 1
 581 151 l 1
 700 387 776 680 816 1024 c 1
 951 1024 l 1
 909 663 824 318 640 -1 c 1
 640 -384 l 1
 512 -384 l 1
 512 -1 l 1
 328 318 243 663 201 1024 c 1
EndSplineSet
Validated: 1
Layer: 2
Layer: 3
Layer: 4
EndChar
StartChar: epsilon
Encoding: 949 949 836
GlifName: epsilon
Width: 1024
VWidth: 0
Flags: W
HStem: -16 120<451.524 898> 512 120<448.375 770> 920 120<440.344 873.479>
VStem: 226 128<197.441 420.945 706.629 843.639>
AnchorPoint: "top" 576 1024 basechar 0
LayerCount: 5
Back
Fore
SplineSet
379 563 m 1
 379 573 l 1
 285 612 236 680 236 777 c 0
 236 922 375 1040 587 1040 c 0
 691 1040 782 1033 878 1024 c 1
 878 904 l 1
 781 912 686 920 587 920 c 0
 437 920 364 848 364 777 c 0
 364 703 430 654 498 641 c 0
 544 632 582 632 631 632 c 0
 677 632 724 632 770 632 c 1
 770 512 l 1
 632 512 l 2
 586 512 545 511 509 503 c 0
 420 483 354 410 354 308 c 0
 354 181 450 104 588 104 c 0
 686 104 791 108 898 114 c 1
 898 -6 l 1
 794 -12 698 -16 588 -16 c 0
 379 -16 226 116 226 308 c 0
 226 417 266 508 379 563 c 1
EndSplineSet
Validated: 1
Layer: 2
Layer: 3
Layer: 4
EndChar
StartChar: eta
Encoding: 951 951 844
GlifName: eta
Width: 1024
VWidth: 0
Flags: W
HStem: 0 21G<256 384> 920 120<488.173 688.755> 1004 20G<256 384>
VStem: 256 128<0 843.099 912 1024> 768 128<-384 841.255>
LayerCount: 5
Back
Fore
SplineSet
596 1040 m 0xd8
 696 1040 777 995 827 933 c 0
 896 847 896 751 896 657 c 2
 896 -384 l 1
 768 -384 l 1
 768 657 l 2
 768 744 768 806 723 858 c 0
 691 895 640 920 576 920 c 0xd8
 512 920 461 895 429 858 c 0
 384 806 384 744 384 657 c 2
 384 0 l 1
 256 0 l 1
 256 1024 l 1
 384 1024 l 1xb8
 384 912 l 1
 394 912 l 1
 443 989 520 1040 596 1040 c 0xd8
EndSplineSet
Validated: 1
Layer: 2
Layer: 3
Layer: 4
EndChar
StartChar: uni03BC
Encoding: 956 956 1189
GlifName: uni03B_C_
Width: 1024
VWidth: 0
Flags: W
HStem: -16 120<479.078 672.922> 0 21G<768 896> 1004 20G<256 384 768 896>
VStem: 256 128<-384 112 180.901 1024> 768 128<0 112 180.901 1024>
LayerCount: 5
Back
Fore
SplineSet
576 -16 m 0xb8
 508 -16 438 35 394 112 c 1
 384 112 l 1
 384 -384 l 1
 256 -384 l 1
 256 1024 l 1
 384 1024 l 1
 384 367 l 2
 384 280 384 218 429 166 c 0
 461 129 512 104 576 104 c 0xb8
 640 104 691 129 723 166 c 0
 768 218 768 280 768 367 c 2
 768 1024 l 1
 896 1024 l 1
 896 0 l 1
 768 0 l 1x78
 768 112 l 1
 758 112 l 1
 714 35 644 -16 576 -16 c 0xb8
EndSplineSet
Validated: 1
Layer: 2
Layer: 3
Layer: 4
EndChar
StartChar: iotadieresis
Encoding: 970 970 908
GlifName: iotadieresis
Width: 1024
VWidth: 0
Flags: W
HStem: -16 120<677.032 894.258> 1004 20G<512 640> 1168 224<269.423 434.577 717.423 882.577>
VStem: 240 224<1197.42 1362.58> 512 128<141.858 1024> 688 224<1197.42 1362.58>
CounterMasks: 1 1c
LayerCount: 5
Back
Fore
SplineSet
896 -2 m 1
 858 -9 813 -16 758 -16 c 0
 686 -16 627 9 585 52 c 0
 512 128 512 218 512 279 c 2
 512 1024 l 1
 640 1024 l 1
 640 279 l 2
 640 232 640 186 668 148 c 0
 688 121 719 104 768 104 c 0
 810 104 860 111 896 119 c 1
 896 -2 l 1
800 1392 m 4
 866 1392 912 1346 912 1280 c 4
 912 1214 866 1168 800 1168 c 4
 734 1168 688 1214 688 1280 c 4
 688 1346 734 1392 800 1392 c 4
352 1392 m 4
 418 1392 464 1346 464 1280 c 4
 464 1214 418 1168 352 1168 c 4
 286 1168 240 1214 240 1280 c 4
 240 1346 286 1392 352 1392 c 4
EndSplineSet
Validated: 1
Layer: 2
Layer: 3
Layer: 4
EndChar
StartChar: upsilondieresis
Encoding: 971 971 1316
GlifName: upsilondieresis
Width: 1024
VWidth: 0
Flags: W
HStem: -16 120<462.792 689.208> 1004 20G<256 384 768 896> 1168 224<269.423 434.577 717.423 882.577>
VStem: 240 224<1197.42 1362.58> 256 128<183.516 1024> 688 224<1197.42 1362.58> 768 128<183.516 1024>
LayerCount: 5
Back
Fore
SplineSet
896 337 m 1026,0,-1
256 337 m 2,1,-1
 256 1024 l 1,2,-1
 384 1024 l 1,3,-1
 384 337 l 2,4,-1
 384 301 385 268 392 240 c 0,7,-1
 412 159 478 104 576 104 c 0,10,-1
 674 104 740 159 760 240 c 0,13,-1
 767 268 768 301 768 337 c 2,16,-1
 768 1024 l 1,17,-1
 896 1024 l 1,18,-1
 896 337 l 2,19,-1
 896 299 896 258 887 214 c 0,22,-1
 860 81 749 -16 576 -16 c 0,25,-1
 403 -16 292 81 265 214 c 0,28,-1
 256 258 256 299 256 337 c 2,1,-1
384 337 m 1026,31,-1
800 1392 m 4,32,-1
 866 1392 912 1346 912 1280 c 4,35,-1
 912 1214 866 1168 800 1168 c 4,38,-1
 734 1168 688 1214 688 1280 c 4,41,-1
 688 1346 734 1392 800 1392 c 4,32,-1
352 1392 m 4,44,-1
 418 1392 464 1346 464 1280 c 4,47,-1
 464 1214 418 1168 352 1168 c 4,50,-1
 286 1168 240 1214 240 1280 c 4,53,-1
 240 1346 286 1392 352 1392 c 4,44,-1
EndSplineSet
Validated: 1
Layer: 2
Layer: 3
Layer: 4
EndChar
StartChar: upsilontonos
Encoding: 973 973 1318
GlifName: upsilontonos
Width: 1024
VWidth: 0
Flags: W
HStem: -16 120<462.792 689.208> 1004 20G<256 384 768 896>
VStem: 256 128<183.516 1024> 768 128<183.516 1024>
LayerCount: 5
Back
Fore
SplineSet
896 337 m 1026,0,-1
256 337 m 2,1,-1
 256 1024 l 1,2,-1
 384 1024 l 1,3,-1
 384 337 l 2,4,-1
 384 301 385 268 392 240 c 0,7,-1
 412 159 478 104 576 104 c 0,10,-1
 674 104 740 159 760 240 c 0,13,-1
 767 268 768 301 768 337 c 2,16,-1
 768 1024 l 1,17,-1
 896 1024 l 1,18,-1
 896 337 l 2,19,-1
 896 299 896 258 887 214 c 0,22,-1
 860 81 749 -16 576 -16 c 0,25,-1
 403 -16 292 81 265 214 c 0,28,-1
 256 258 256 299 256 337 c 2,1,-1
384 337 m 1026,31,-1
690 1438 m 1,32,-1
 785 1358 l 1,33,-1
 579 1131 l 1,34,-1
 504 1194 l 1,35,-1
 690 1438 l 1,32,-1
EndSplineSet
Validated: 1
Layer: 2
Layer: 3
Layer: 4
EndChar
StartChar: uni0400
Encoding: 1024 1024 1190
GlifName: uni0400
Width: 1024
VWidth: 0
Flags: W
HStem: 0 120<384 1024> 648 120<384 896> 1288 120<384 1024>
VStem: 256 128<120 648 768 1288>
LayerCount: 5
Back
Fore
SplineSet
256 1408 m 1
 1024 1408 l 1
 1024 1288 l 1
 384 1288 l 1
 384 768 l 1
 896 768 l 1
 896 648 l 1
 384 648 l 1
 384 120 l 1
 1024 120 l 1
 1024 0 l 1
 256 0 l 1
 256 1408 l 1
664 1536 m 1
 526 1536 l 1
 360 1792 l 1
 498 1792 l 1
 664 1536 l 1
EndSplineSet
Validated: 1
Layer: 2
Layer: 3
Layer: 4
EndChar
StartChar: uni0403
Encoding: 1027 1027 406
GlifName: uni0403
Width: 1024
VWidth: 0
Flags: W
HStem: 0 21G<256 384> 1288 120<384 1024>
VStem: 256 128<0 1288>
LayerCount: 5
Back
Fore
SplineSet
256 1408 m 1
 1024 1408 l 1
 1024 1288 l 1
 384 1288 l 1
 384 0 l 1
 256 0 l 1
 256 1408 l 1
488 1536 m 1
 654 1792 l 1
 792 1792 l 1
 626 1536 l 1
 488 1536 l 1
EndSplineSet
Validated: 1
Layer: 2
Layer: 3
Layer: 4
EndChar
StartChar: uni040A
Encoding: 1034 1034 1198
GlifName: uni040A_
Width: 1024
VWidth: 0
Flags: W
HStem: 0 120<640 790.131> 648 120<256 512 640 790.131> 1388 20G<128 256 512 640>
VStem: 128 128<0 648 768 1408> 512 128<120 648 768 1408> 912 128<244.266 523.734>
LayerCount: 5
Back
Fore
SplineSet
640 120 m 1
 671 120 699 120 744 132 c 0
 843 158 912 254 912 384 c 0
 912 514 843 610 744 636 c 0
 699 648 671 648 640 648 c 1
 640 120 l 1
128 1408 m 1
 256 1408 l 1
 256 768 l 1
 512 768 l 1
 512 1408 l 1
 640 1408 l 1
 640 768 l 1
 675 768 712 768 776 752 c 0
 928 714 1040 575 1040 384 c 0
 1040 193 928 54 776 16 c 0
 712 0 675 0 640 0 c 2
 512 0 l 1
 512 648 l 1
 256 648 l 1
 256 0 l 1
 128 0 l 1
 128 1408 l 1
EndSplineSet
Validated: 1
Layer: 2
Layer: 3
Layer: 4
EndChar
StartChar: uni040C
Encoding: 1036 1036 1200
GlifName: uni040C_
Width: 1024
VWidth: 0
Flags: W
HStem: 0 21G<128 256 890.881 1062> 1388 20G<128 256 813.338 969>
VStem: 128 128<0 558 719 1408>
LayerCount: 5
Back
Fore
SplineSet
256 0 m 1
 128 0 l 1
 128 1408 l 1
 256 1408 l 1
 256 719 l 1
 830 1408 l 1
 969 1408 l 1
 481 813 l 1
 1062 0 l 1
 905 0 l 1
 396 721 l 1
 256 558 l 1
 256 0 l 1
488 1536 m 1
 654 1792 l 1
 792 1792 l 1
 626 1536 l 1
 488 1536 l 1
EndSplineSet
Validated: 1
Layer: 2
Layer: 3
Layer: 4
EndChar
StartChar: uni040D
Encoding: 1037 1037 1201
GlifName: uni040D_
Width: 1024
VWidth: 0
Flags: W
HStem: 0 21G<128 266.881 896 1024> 1388 20G<128 256 886.102 1024>
VStem: 128 128<250 1408> 896 128<0 1158>
LayerCount: 5
Back
Fore
SplineSet
896 0 m 1
 896 1158 l 1
 886 1158 l 1
 256 0 l 1
 128 0 l 1
 128 1408 l 1
 256 1408 l 1
 256 250 l 1
 266 250 l 1
 897 1408 l 1
 1024 1408 l 1
 1024 0 l 1
 896 0 l 1
664 1536 m 1
 526 1536 l 1
 360 1792 l 1
 498 1792 l 1
 664 1536 l 1
EndSplineSet
Validated: 1
Layer: 2
Layer: 3
Layer: 4
EndChar
StartChar: uni040E
Encoding: 1038 1038 1202
GlifName: uni040E_
Width: 1024
VWidth: 0
Flags: W
HStem: -16 114<128 413.42> 1388 20G<137 288 845.5 1015> 1520 120<435.067 716.933>
VStem: 137 125<1220.51 1408> 236 128<1704.51 1792> 788 128<1704.51 1792> 880 135<1287.38 1408>
LayerCount: 5
Back
SplineSet
481 384 m 5
 272.067650809 712 183.831062869 1047 137 1408 c 5
 272 1408 l 5
 322.494915254 1035.11663067 417.213135594 716.399568035 576 462 c 5
 586 462 l 5
 722.06876277 790.264324494 813.296805054 1103.64901129 880 1408 c 5
 1015 1408 l 5
 909.761770357 964.039664217 768.412950566 524.353386837 556 111 c 4
 509.713110185 20.9261950824 410.183488425 -16 256 -16 c 5
 256 98 l 5
 364.776889414 98 425.202637764 108.193235441 455 160 c 4
 495.63864039 230.65580027 528.520425697 301.334983342 559 384 c 5
 481 384 l 5
EndSplineSet
Fore
SplineSet
491 384 m 1xf2
 276 712 185 1047 137 1408 c 1
 262 1408 l 1
 314 1035 412 716 576 462 c 1
 586 462 l 1
 716 790 811 1104 880 1408 c 1
 1015 1408 l 1
 915 978 764 560 580 151 c 0
 544 72 466 3 345 -9 c 0
 282 -15 209 -16 128 -16 c 1
 128 98 l 1
 211 98 278 98 331 104 c 0
 402 112 439 136 475 200 c 0
 508 257 534 316 559 384 c 1
 491 384 l 1xf2
788 1792 m 1xec
 916 1792 l 1
 916 1624 764 1520 576 1520 c 0
 388 1520 236 1624 236 1792 c 1
 364 1792 l 1
 364 1706 433 1640 576 1640 c 0
 719 1640 788 1706 788 1792 c 1xec
EndSplineSet
Validated: 1
Layer: 2
Layer: 3
Layer: 4
EndChar
StartChar: uni0412
Encoding: 1042 1042 1206
GlifName: uni0412
Width: 1024
VWidth: 0
Flags: W
HStem: 0 120<256 750.131> 648 120<256 657.993> 1288 120<256 662.336>
VStem: 128 128<120 648 768 1288> 784 128<893.619 1162.61> 872 128<244.266 526.246>
LayerCount: 5
Back
Fore
SplineSet
449 768 m 2xf8
 525 768 565 769 601 778 c 0
 709 804 784 896 784 1028 c 0
 784 1160 709 1254 601 1278 c 0
 565 1286 525 1288 449 1288 c 2
 256 1288 l 1
 256 768 l 1
 449 768 l 2xf8
746 726 m 1
 895 685 1000 555 1000 384 c 0xf4
 1000 193 888 54 736 16 c 0
 672 0 608 0 523 0 c 2
 128 0 l 1
 128 1408 l 1
 449 1408 l 2
 526 1408 578 1408 633 1395 c 0
 792 1357 912 1222 912 1028 c 0
 912 890 845 789 746 736 c 1
 746 726 l 1
256 648 m 1
 256 120 l 1
 523 120 l 2
 604 120 659 120 704 132 c 0
 803 158 872 254 872 384 c 0
 872 514 804 612 704 636 c 0
 659 647 604 648 523 648 c 2
 256 648 l 1
EndSplineSet
Validated: 1
Layer: 2
Layer: 3
Layer: 4
EndChar
StartChar: uni0416
Encoding: 1046 1046 324
GlifName: uni0416
Width: 1024
VWidth: 0
Flags: W
HStem: 0 21G<74 213.891 512 640 938.109 1078> 653 100<437 512 640 715> 1388 20G<131 266.374 512 640 885.626 1021>
VStem: 512 128<0 653 753 1408>
LayerCount: 5
Back
SplineSet
206 1584 m 21
 384 704 l 5
 88 -273 l 1037
946 1584 m 21
 768 704 l 5
 1064 -273 l 1037
384 704 m 29
 768 704 l 1053
576 0 m 29
 576 1533 l 1053
EndSplineSet
Fore
SplineSet
512 0 m 1
 512 653 l 1
 432 653 l 1
 207 0 l 1
 74 0 l 1
 328 706 l 1
 131 1408 l 1
 261 1408 l 1
 437 753 l 1
 512 753 l 1
 512 1408 l 1
 640 1408 l 1
 640 753 l 1
 715 753 l 1
 891 1408 l 1
 1021 1408 l 1
 824 706 l 1
 1078 0 l 1
 945 0 l 1
 720 653 l 1
 640 653 l 1
 640 0 l 1
 512 0 l 1
EndSplineSet
Validated: 1
Layer: 2
Layer: 3
Layer: 4
EndChar
StartChar: uni0419
Encoding: 1049 1049 1208
GlifName: uni0419
Width: 1024
VWidth: 0
Flags: W
HStem: 0 21G<128 266.881 896 1024> 1388 20G<128 256 886.102 1024> 1520 120<435.067 716.933>
VStem: 128 128<250 1408> 236 128<1704.51 1792> 788 128<1704.51 1792> 896 128<0 1158>
LayerCount: 5
Back
SplineSet
256 0 m 5
 128 0 l 5
 128 1152 l 5
 255 1152 l 5
 886 210 l 5
 896 210 l 5
 896 1152 l 5
 1024 1152 l 5
 1024 0 l 5
 896 0 l 5
 266 942 l 5
 256 942 l 5
 256 0 l 5
497 1280 m 5
 655 1280 l 5
 952 1536 l 5
 794 1536 l 5
 576 1372.03710938 l 5
 358 1536 l 5
 200 1536 l 5
 497 1280 l 5
EndSplineSet
Fore
SplineSet
896 0 m 1xf2
 896 1158 l 1
 886 1158 l 1
 256 0 l 1
 128 0 l 1
 128 1408 l 1
 256 1408 l 1
 256 250 l 1
 266 250 l 1
 897 1408 l 1
 1024 1408 l 1
 1024 0 l 1
 896 0 l 1xf2
788 1792 m 1xec
 916 1792 l 1
 916 1624 764 1520 576 1520 c 0
 388 1520 236 1624 236 1792 c 1
 364 1792 l 1
 364 1706 433 1640 576 1640 c 0
 719 1640 788 1706 788 1792 c 1xec
EndSplineSet
Validated: 1
Layer: 2
Layer: 3
Layer: 4
EndChar
StartChar: uni041B
Encoding: 1051 1051 1210
GlifName: uni041B_
Width: 1024
VWidth: 0
Flags: W
HStem: -16 120<128 249.324> 0 21G<896 1024> 1288 120<512 896>
VStem: 384 128<1034.58 1288> 896 128<0 1288>
LayerCount: 5
Back
SplineSet
448 1408 m 1
 448 1280 l 2
 448 1078.95517311 446.779583114 877.853034177 438 677 c 0
 433.828421092 581.565596104 429.157498802 486.01298139 416.833668632 391.28573754 c 0
 410.671753547 343.922115614 402.330718301 296.695075687 388.30544637 251.037944517 c 0
 374.28017444 205.380813347 354.326313193 160.89981853 324 124 c 0
 300.675546097 95.6197577048 270.726368666 72.3401488936 236.450369808 59.125603692 c 0
 202.17437095 45.9110584904 164.735109944 44 128 44 c 2
 39 44 l 1025
  Spiro
    448 1408 {
    448 1280 ]
    438 677 o
    324 124 o
    128 44 [
    39 44 v
    0 0 z
  EndSpiro
EndSplineSet
Fore
SplineSet
361 72 m 0x78
 283 -16 176 -16 128 -16 c 1
 128 104 l 1xb8
 204 104 237 119 273 161 c 0
 384 288 384 683 384 1408 c 1
 512 1408 l 1
 1024 1408 l 1
 1024 0 l 1
 896 0 l 1
 896 1288 l 1
 512 1288 l 1
 512 640 512 244 361 72 c 0x78
EndSplineSet
Validated: 1
Layer: 2
SplineSet
513 1408 m 5
 1024 1408 l 5
 1024 0 l 5
 896 0 l 5
 896 1288 l 5
 512 1288 l 5
 513 1408 l 5
384 1408 m 5
 512 1408 l 5
 512 1288 l 5
 512 1280 l 6
 512 1078.72753906 510.787109375 876.806640625 501.946289062 674.543945312 c 4
 497.766601562 578.918945312 493.077148438 481.75390625 480.36328125 384.020507812 c 4
 473.981445312 334.96875 465.212890625 284.587890625 449.805664062 234.432617188 c 4
 434.412109375 184.3203125 411.931640625 132.685546875 374.697265625 87.3798828125 c 4
 345.638671875 52.0224609375 307.426757812 21.6142578125 260.791992188 3.634765625 c 4
 213.283203125 -14.681640625 166.741210938 -16 128 -16 c 5
 128 104 l 5
 162.729492188 104 191.06640625 106.50390625 212.108398438 114.616210938 c 4
 234.026367188 123.06640625 255.712890625 139.216796875 273.302734375 160.620117188 c 4
 296.720703125 189.114257812 314.1484375 226.44140625 326.805664062 267.642578125 c 4
 339.44921875 308.802734375 347.362304688 352.876953125 353.3046875 398.549804688 c 4
 365.237304688 490.272460938 369.889648438 584.212890625 374.053710938 679.45703125 c 4
 382.771484375 878.900390625 384 1079.18261719 384 1280 c 6
 384 1408 l 5
EndSplineSet
Layer: 3
SplineSet
384 1338 m 5
 512 1338 l 5
 512 344 l 4
 512 300.6640625 511.6796875 251.977539062 497.317382812 201.45703125 c 4
 482.9296875 150.84375 455.088867188 102.8984375 413.499023438 65.728515625 c 4
 371.995117188 28.634765625 321.1640625 6.056640625 269.995117188 -5.0595703125 c 4
 219.13671875 -16.107421875 170.958984375 -16 128 -16 c 5
 128 104 l 5
 170.48046875 104 208.46875 104.75390625 241.102539062 111.842773438 c 4
 273.42578125 118.865234375 302.977539062 132.743164062 325.176757812 152.583984375 c 4
 347.291992188 172.348632812 364.66015625 200.787109375 373.633789062 232.357421875 c 4
 382.634765625 264.020507812 384 301.896484375 384 344 c 4
 384 1338 l 5
EndSplineSet
Layer: 4
EndChar
StartChar: uni0420
Encoding: 1056 1056 1215
GlifName: uni0420
Width: 1024
VWidth: 0
Flags: W
HStem: 0 21G<256 384> 520 120<384 742.904> 1288 120<384 742.904>
VStem: 256 128<0 520 640 1288> 912 128<811.269 1116.73>
LayerCount: 5
Back
Fore
SplineSet
533 1408 m 2
 624 1408 772 1408 891 1303 c 0
 977 1227 1040 1111 1040 964 c 0
 1040 817 977 701 891 625 c 0
 772 520 624 520 533 520 c 2
 384 520 l 1
 384 0 l 1
 256 0 l 1
 256 1408 l 1
 533 1408 l 2
912 964 m 0
 912 1072 868 1161 805 1215 c 0
 721 1288 615 1288 533 1288 c 2
 384 1288 l 1
 384 640 l 1
 533 640 l 2
 615 640 721 640 805 713 c 0
 868 767 912 856 912 964 c 0
EndSplineSet
Validated: 1
Layer: 2
Layer: 3
Layer: 4
EndChar
StartChar: uni0423
Encoding: 1059 1059 1218
GlifName: uni0423
Width: 1024
VWidth: 0
Flags: W
HStem: -16 114<128 413.42> 1388 20G<137 288 845.5 1015>
VStem: 137 125<1220.51 1408> 880 135<1287.38 1408>
AnchorPoint: "top" 576 1408 basechar 0
LayerCount: 5
Back
SplineSet
497 384 m 5
 317.221001859 712 241.296495957 1047 201 1408 c 5
 336 1408 l 5
 378.522033898 1035.11663067 458.284745763 716.399568035 592 462 c 5
 602 462 l 5
 701.043249091 790.264324494 767.447334291 1103.64901129 816 1408 c 5
 951 1408 l 5
 858.14273855 920.225537016 763.864794847 417.857677469 546 -17 c 4
 500.35865925 -108.100021227 405.044038811 -144 256 -144 c 5
 256 -30 l 5
 353.844538719 -30 407.789942502 -19.5436103058 435 32 c 4
 493.61342364 143.030543282 541.039075525 254.097830966 585 384 c 5
 497 384 l 5
EndSplineSet
Fore
SplineSet
491 384 m 1
 276 712 185 1047 137 1408 c 1
 262 1408 l 1
 314 1035 412 716 576 462 c 1
 586 462 l 1
 716 790 811 1104 880 1408 c 1
 1015 1408 l 1
 915 978 764 560 580 151 c 0
 544 72 466 3 345 -9 c 0
 282 -15 209 -16 128 -16 c 1
 128 98 l 1
 211 98 278 98 331 104 c 0
 402 112 439 136 475 200 c 0
 508 257 534 316 559 384 c 1
 491 384 l 1
EndSplineSet
Validated: 1
Layer: 2
Layer: 3
Layer: 4
EndChar
StartChar: uni0428
Encoding: 1064 1064 1222
GlifName: uni0428
Width: 1024
VWidth: 0
Flags: W
HStem: 0 120<256 512 640 896> 1388 20G<128 256 512 640 896 1024>
VStem: 128 128<120 1408> 512 128<120 1408> 896 128<120 1408>
CounterMasks: 1 38
LayerCount: 5
Back
Fore
SplineSet
128 0 m 1
 128 1408 l 1
 256 1408 l 1
 256 120 l 1
 512 120 l 1
 512 1408 l 1
 640 1408 l 1
 640 120 l 1
 896 120 l 1
 896 1408 l 1
 1024 1408 l 1
 1024 0 l 1
 128 0 l 1
EndSplineSet
Validated: 1
Layer: 2
Layer: 3
Layer: 4
EndChar
StartChar: uni0429
Encoding: 1065 1065 1223
GlifName: uni0429
Width: 1024
VWidth: 0
Flags: W
HStem: 0 120<256 512 640 896> 1388 20G<128 256 512 640 896 1024>
VStem: 128 128<120 1408> 512 128<120 1408> 896 128<120 1408> 1024 128<-256 0>
LayerCount: 5
Back
Fore
SplineSet
128 0 m 1xf4
 128 1408 l 1
 256 1408 l 1
 256 120 l 1
 512 120 l 1
 512 1408 l 1
 640 1408 l 1
 640 120 l 1
 896 120 l 1
 896 1408 l 1
 1024 1408 l 1xf8
 1024 119 l 1
 1152 119 l 1
 1152 -256 l 1
 1024 -256 l 1
 1024 0 l 1
 128 0 l 1xf4
EndSplineSet
Validated: 1
Layer: 2
Layer: 3
Layer: 4
EndChar
